<?xml version="1.0" encoding="utf-8"?>
<!DOCTYPE svg PUBLIC "-//W3C//DTD SVG 1.0//EN" "http://www.w3.org/TR/2001/REC-SVG-20010904/DTD/svg10.dtd">
<svg xmlns="http://www.w3.org/2000/svg" xmlns:xlink="http://www.w3.org/1999/xlink" version="1.0" id="Layer_1" x="0px" y="0px" width="24px" height="24px" viewBox="0 0 24 24" enable-background="new 0 0 24 24" xml:space="preserve">
<g>
	<g>
		<path fill="#010101" d="M7.13,13.706c-0.085,0-0.169-0.03-0.236-0.092c-0.73-0.668-1.153-1.571-1.19-2.544    c-0.037-0.961,0.309-1.881,0.972-2.59c0.646-0.719,1.54-1.142,2.513-1.185c0.995-0.033,1.91,0.302,2.627,0.971    c0.041,0.041,0.074,0.068,0.107,0.096c0.053,0.044,0.105,0.089,0.157,0.143c0.136,0.138,0.133,0.359-0.005,0.494    c-0.14,0.135-0.36,0.132-0.495-0.005c-0.035-0.036-0.07-0.064-0.105-0.094c-0.049-0.041-0.098-0.082-0.146-0.131    c-0.569-0.53-1.307-0.81-2.109-0.774C8.435,8.03,7.715,8.37,7.191,8.953c-0.54,0.577-0.818,1.317-0.789,2.091    c0.03,0.783,0.372,1.513,0.964,2.055c0.143,0.13,0.152,0.352,0.021,0.494C7.319,13.668,7.225,13.706,7.13,13.706z"/>
	</g>
	<g>
		<path fill="#010101" d="M7.497,6.61c-0.14,0-0.271-0.083-0.325-0.221l-0.48-1.217C6.62,4.993,6.708,4.789,6.888,4.719    C7.07,4.647,7.271,4.734,7.342,4.915l0.48,1.217c0.071,0.18-0.017,0.384-0.196,0.454C7.583,6.603,7.54,6.61,7.497,6.61z"/>
	</g>
	<g>
		<path fill="#010101" d="M3.335,13.735c-0.142,0-0.275-0.087-0.328-0.228c-0.067-0.181,0.024-0.383,0.206-0.45l1.217-0.453    c0.178-0.064,0.383,0.025,0.45,0.206s-0.024,0.383-0.206,0.45l-1.217,0.453C3.417,13.729,3.376,13.735,3.335,13.735z"/>
	</g>
	<g>
		<path fill="#010101" d="M4.638,9.323c-0.046,0-0.093-0.009-0.138-0.027L3.311,8.788c-0.178-0.076-0.26-0.282-0.185-0.46    c0.077-0.178,0.281-0.259,0.46-0.185l1.189,0.508c0.178,0.076,0.26,0.282,0.185,0.46C4.902,9.244,4.773,9.323,4.638,9.323z"/>
	</g>
	<g>
		<path fill="#010101" d="M11.433,6.722c-0.049,0-0.098-0.01-0.145-0.031c-0.176-0.079-0.254-0.287-0.174-0.463l0.539-1.188    c0.08-0.177,0.287-0.255,0.463-0.174c0.176,0.079,0.254,0.287,0.174,0.463l-0.539,1.188C11.692,6.646,11.565,6.722,11.433,6.722z"/>
	</g>
	<g>
		<path fill="#010101" d="M18.003,19.306H8.206c-0.05,0-0.106-0.015-0.158-0.038c-1.683-0.177-2.967-1.587-2.967-3.253    c0-1.83,1.49-3.318,3.322-3.318c0.073,0,0.146,0.003,0.218,0.01c0.061-2.464,2.073-4.449,4.54-4.449    c2.52,0,4.568,2.047,4.568,4.563c0,0.046-0.002,0.091-0.006,0.134c0.037-0.002,0.073-0.003,0.109-0.003    c1.755,0,3.182,1.426,3.182,3.178c0,1.684-1.313,3.08-2.991,3.178C18.017,19.306,18.01,19.306,18.003,19.306z M8.287,18.606h9.705    c1.304-0.082,2.323-1.168,2.323-2.479c0-1.366-1.114-2.479-2.482-2.479c-0.126,0-0.251,0.02-0.391,0.04l-0.099,0.014    c-0.108,0.014-0.221-0.022-0.298-0.103c-0.078-0.079-0.113-0.19-0.096-0.301c0.01-0.059,0.022-0.117,0.035-0.178    c0.023-0.104,0.045-0.203,0.045-0.303c0-2.13-1.736-3.863-3.869-3.863c-2.118,0-3.842,1.733-3.842,3.863    c0,0.038,0.007,0.071,0.012,0.105c0.01,0.065,0.018,0.132,0.018,0.207c0,0.109-0.051,0.213-0.139,0.279    c-0.087,0.067-0.201,0.088-0.307,0.058c-0.172-0.049-0.335-0.073-0.5-0.073c-1.422,0-2.623,1.199-2.623,2.619    c0,1.336,1.053,2.462,2.396,2.563C8.211,18.58,8.249,18.591,8.287,18.606z"/>
	</g>
	<g>
		<path fill="#010101" d="M15.427,17.044c-0.119,0-0.236-0.061-0.301-0.171c-0.636-1.073-2.05-1.448-3.154-0.835    c-0.332,0.189-0.634,0.482-0.868,0.846c-0.104,0.164-0.322,0.209-0.483,0.104c-0.163-0.104-0.209-0.321-0.104-0.483    c0.295-0.458,0.68-0.83,1.112-1.077c1.439-0.797,3.274-0.305,4.1,1.088c0.099,0.167,0.044,0.382-0.122,0.479    C15.549,17.028,15.487,17.044,15.427,17.044z"/>
	</g>
</g>

	
	
	<metadata>
		<rdf:RDF xmlns:rdf="http://www.w3.org/1999/02/22-rdf-syntax-ns#" xmlns:rdfs="http://www.w3.org/2000/01/rdf-schema#" xmlns:dc="http://purl.org/dc/elements/1.1/">
			<rdf:Description about="https://iconscout.com/legal#licenses" dc:title="Cloudy, Cloud, Sad, Sun, Patlysun, Sunny, Weather" dc:description="Cloudy, Cloud, Sad, Sun, Patlysun, Sunny, Weather" dc:publisher="Iconscout" dc:date="2016-12-14" dc:format="image/svg+xml" dc:language="en">
				<dc:creator>
					<rdf:Bag>
						<rdf:li>Chamestudio</rdf:li>
					</rdf:Bag>
				</dc:creator>
			</rdf:Description>
		</rdf:RDF>
    </metadata></svg>
