<?xml version="1.0" encoding="utf-8"?>
<!DOCTYPE svg PUBLIC "-//W3C//DTD SVG 1.0//EN" "http://www.w3.org/TR/2001/REC-SVG-20010904/DTD/svg10.dtd">
<svg xmlns="http://www.w3.org/2000/svg" xmlns:xlink="http://www.w3.org/1999/xlink" version="1.0" id="Layer_1" x="0px" y="0px" width="24px" height="24px" viewBox="0 0 24 24" enable-background="new 0 0 24 24" xml:space="preserve">
<g>
	<g>
		<path fill="#010101" d="M7.115,13.708c-0.085,0-0.169-0.03-0.236-0.092c-0.726-0.664-1.147-1.563-1.189-2.53    c-0.043-0.97,0.302-1.904,0.969-2.631C8.002,6.99,10.287,6.883,11.77,8.21c0.051,0.034,0.087,0.069,0.11,0.093    c0.173,0.086,0.231,0.292,0.146,0.464s-0.306,0.239-0.48,0.151c-0.08-0.04-0.132-0.092-0.163-0.124    c-1.255-1.138-3.117-1.058-4.208,0.132c-0.541,0.589-0.819,1.345-0.785,2.127c0.034,0.781,0.376,1.507,0.963,2.044    c0.143,0.13,0.152,0.352,0.021,0.495C7.305,13.669,7.21,13.708,7.115,13.708z"/>
	</g>
	<g>
		<path fill="#010101" d="M7.398,6.638c-0.137,0-0.267-0.081-0.323-0.215l-0.51-1.216C6.491,5.029,6.575,4.824,6.753,4.75    c0.182-0.075,0.384,0.009,0.459,0.188l0.51,1.216c0.074,0.178-0.01,0.383-0.188,0.458C7.489,6.629,7.443,6.638,7.398,6.638z"/>
	</g>
	<g>
		<path fill="#010101" d="M3.348,13.848c-0.137,0-0.267-0.081-0.323-0.215c-0.074-0.178,0.01-0.383,0.188-0.458l1.219-0.509    c0.178-0.074,0.383,0.009,0.458,0.188c0.074,0.178-0.01,0.383-0.188,0.458l-1.219,0.509C3.438,13.839,3.393,13.848,3.348,13.848z"/>
	</g>
	<g>
		<path fill="#010101" d="M4.594,9.409c-0.045,0-0.091-0.009-0.135-0.027L3.242,8.873C3.063,8.798,2.979,8.593,3.054,8.415    c0.075-0.178,0.279-0.263,0.458-0.188l1.217,0.509C4.907,8.81,4.991,9.015,4.917,9.194C4.86,9.328,4.73,9.409,4.594,9.409z"/>
	</g>
	<g>
		<path fill="#010101" d="M11.334,6.667c-0.045,0-0.091-0.009-0.136-0.027c-0.178-0.075-0.262-0.28-0.188-0.458l0.51-1.216    c0.075-0.178,0.277-0.263,0.459-0.188c0.178,0.075,0.262,0.28,0.188,0.458l-0.51,1.216C11.601,6.586,11.471,6.667,11.334,6.667z"/>
	</g>
	<g>
		<path fill="#010101" d="M17.988,19.278H8.191c-0.043,0-0.097-0.014-0.148-0.035c-1.675-0.16-2.977-1.578-2.977-3.256    c0-1.814,1.49-3.291,3.322-3.291c0.069,0,0.143,0,0.218,0.003c0.049-2.474,2.066-4.471,4.54-4.471c2.52,0,4.568,2.047,4.568,4.563    c0,0.047-0.002,0.091-0.006,0.135c0.037-0.002,0.073-0.003,0.109-0.003c1.755,0,3.182,1.425,3.182,3.177    c0,1.717-1.316,3.113-2.998,3.178C17.997,19.278,17.993,19.278,17.988,19.278z M8.272,18.578h9.709    c1.301-0.054,2.319-1.141,2.319-2.478c0-1.366-1.114-2.477-2.482-2.477c-0.133,0-0.266,0.021-0.415,0.042    c-0.113,0.018-0.258-0.017-0.336-0.095c-0.078-0.08-0.149-0.187-0.132-0.296c0.01-0.06,0.022-0.12,0.036-0.181    c0.022-0.104,0.044-0.204,0.044-0.301c0-2.13-1.736-3.863-3.869-3.863c-2.118,0-3.842,1.733-3.842,3.863    c0,0.038,0.007,0.071,0.012,0.104c0.01,0.066,0.018,0.132,0.018,0.207c0,0.11-0.051,0.213-0.139,0.279s-0.201,0.088-0.307,0.057    c-0.152-0.043-0.313-0.043-0.5-0.043c-1.446,0-2.623,1.162-2.623,2.59c0,1.336,1.053,2.463,2.396,2.564    C8.2,18.553,8.237,18.563,8.272,18.578z"/>
	</g>
	<g>
		<path fill="#010101" d="M13.095,17.014c-0.503,0-1.012-0.123-1.478-0.381c-0.438-0.25-0.822-0.622-1.116-1.078    c-0.104-0.163-0.059-0.379,0.104-0.484c0.161-0.105,0.378-0.059,0.483,0.104c0.234,0.362,0.535,0.656,0.872,0.848    c1.098,0.611,2.515,0.237,3.15-0.836c0.098-0.166,0.312-0.221,0.479-0.123c0.166,0.099,0.221,0.313,0.122,0.479    C15.155,16.484,14.138,17.014,13.095,17.014z"/>
	</g>
</g>

	
	
	<metadata>
		<rdf:RDF xmlns:rdf="http://www.w3.org/1999/02/22-rdf-syntax-ns#" xmlns:rdfs="http://www.w3.org/2000/01/rdf-schema#" xmlns:dc="http://purl.org/dc/elements/1.1/">
			<rdf:Description about="https://iconscout.com/legal#licenses" dc:title="Cloud, Sun, Sunrise, Cloudy, Morning, Weather, Smiley" dc:description="Cloud, Sun, Sunrise, Cloudy, Morning, Weather, Smiley" dc:publisher="Iconscout" dc:date="2016-12-14" dc:format="image/svg+xml" dc:language="en">
				<dc:creator>
					<rdf:Bag>
						<rdf:li>Chamestudio</rdf:li>
					</rdf:Bag>
				</dc:creator>
			</rdf:Description>
		</rdf:RDF>
    </metadata></svg>
