<svg xmlns="http://www.w3.org/2000/svg" xmlns:xlink="http://www.w3.org/1999/xlink" id="Layer_1" width="24" height="24" x="0" y="0" enable-background="new 0 0 24 24" version="1.0" viewBox="0 0 24 24" xml:space="preserve"><g><g><path fill="#010101" d="M5.984,12.895L5.984,12.895c-0.573,0-1.148-0.138-1.662-0.399c-0.472-0.251-0.882-0.597-1.195-1.003 c-0.086-0.111-0.097-0.262-0.028-0.385c0.068-0.122,0.202-0.188,0.344-0.177c1.198,0.137,2.343-0.495,2.878-1.562 C6.862,8.334,6.744,7.085,6.02,6.182C5.933,6.073,5.918,5.923,5.983,5.8c0.064-0.123,0.18-0.191,0.335-0.187 c0.412,0.029,0.879,0.169,1.35,0.404c1.774,0.932,2.477,3.134,1.571,4.911C8.6,12.143,7.354,12.895,5.984,12.895z M4.24,11.616 c0.127,0.097,0.263,0.183,0.405,0.259c0.416,0.211,0.868,0.32,1.339,0.32l0,0c1.108,0,2.117-0.608,2.634-1.588 c0.729-1.433,0.161-3.215-1.27-3.967c-0.106-0.053-0.213-0.1-0.317-0.141c0.459,1.003,0.44,2.182-0.089,3.189 C6.411,10.75,5.401,11.46,4.24,11.616z"/></g><g><path fill="#010101" d="M17.932,18.387H8.105c-0.057,0-0.111-0.014-0.161-0.039c-1.654-0.18-2.935-1.587-2.935-3.252 c0-1.814,1.49-3.291,3.322-3.291c0.069,0,0.143,0,0.218,0.003c0.049-2.474,2.066-4.47,4.54-4.47c2.504,0,4.541,2.047,4.541,4.563 c0,0.046-0.001,0.091-0.004,0.135c0.046-0.003,0.092-0.004,0.135-0.004c1.755,0,3.182,1.426,3.182,3.178 c0,1.685-1.313,3.08-2.991,3.177C17.945,18.387,17.938,18.387,17.932,18.387z M8.216,17.687h9.705 c1.304-0.08,2.323-1.167,2.323-2.478c0-1.366-1.114-2.478-2.482-2.478c-0.152,0-0.328,0.026-0.48,0.051 c-0.109,0.02-0.224-0.018-0.304-0.098c-0.08-0.079-0.116-0.192-0.099-0.303c0.027-0.171,0.053-0.314,0.053-0.481 c0-2.13-1.724-3.863-3.842-3.863s-3.842,1.733-3.842,3.863c0,0.038,0.007,0.071,0.012,0.104c0.01,0.066,0.018,0.132,0.018,0.207 c0,0.11-0.051,0.213-0.139,0.279c-0.088,0.066-0.201,0.088-0.307,0.057c-0.152-0.043-0.313-0.043-0.5-0.043 c-1.446,0-2.623,1.162-2.623,2.591c0,1.336,1.053,2.462,2.396,2.563C8.144,17.663,8.181,17.672,8.216,17.687z"/></g></g><metadata><rdf:RDF xmlns:dc="http://purl.org/dc/elements/1.1/" xmlns:rdf="http://www.w3.org/1999/02/22-rdf-syntax-ns#" xmlns:rdfs="http://www.w3.org/2000/01/rdf-schema#"><rdf:Description about="https://iconscout.com/legal#licenses" dc:date="2016-12-14" dc:description="Cloud, Moon, Weather, Cloudy, Dark, Night, Forecast" dc:format="image/svg+xml" dc:language="en" dc:publisher="Iconscout" dc:title="Cloud, Moon, Weather, Cloudy, Dark, Night, Forecast"><dc:creator><rdf:Bag><rdf:li>Chamestudio</rdf:li></rdf:Bag></dc:creator></rdf:Description></rdf:RDF></metadata></svg>