<svg xmlns="http://www.w3.org/2000/svg" xmlns:xlink="http://www.w3.org/1999/xlink" id="Layer_1" width="24" height="24" x="0" y="0" enable-background="new 0 0 24 24" version="1.0" viewBox="0 0 24 24" xml:space="preserve"><g><g><path fill="#010101" d="M11.76,16.426c-0.193,0-0.35-0.157-0.35-0.35s0.156-0.35,0.35-0.35c0.913,0,1.791-0.29,2.539-0.837 c0.154-0.114,0.374-0.082,0.489,0.076c0.114,0.156,0.08,0.375-0.075,0.489C13.844,16.089,12.822,16.426,11.76,16.426z M7.371,13.174c-0.147,0-0.285-0.094-0.333-0.242C6.382,10.905,7.104,8.703,8.836,7.45c2.218-1.61,5.334-1.118,6.945,1.095 c0.45,0.572,0.758,1.272,0.883,2.015c0.031,0.19-0.098,0.371-0.288,0.403c-0.196,0.038-0.371-0.097-0.402-0.288 c-0.105-0.627-0.364-1.217-0.751-1.707c-1.391-1.913-4.07-2.333-5.977-0.951c-1.485,1.074-2.104,2.962-1.542,4.699 c0.06,0.184-0.041,0.381-0.226,0.441C7.443,13.168,7.407,13.174,7.371,13.174z"/></g><g><path fill="#010101" d="M9.098,11.742c-0.208,0-0.438-0.106-0.614-0.283c-0.185-0.216-0.269-0.453-0.245-0.656 c0.017-0.145,0.086-0.27,0.196-0.352c0.153-0.167,0.628-0.167,0.939,0.146c0.306,0.305,0.343,0.746,0.084,1.004 C9.369,11.691,9.24,11.742,9.098,11.742z"/></g><g><path fill="#010101" d="M10.377,12.947c-0.183,0-0.368-0.098-0.484-0.255c-0.084-0.076-0.154-0.23-0.155-0.381l-0.001-0.146 l0.134-0.183c0.08-0.144,0.521-0.197,0.776,0.055c0.274,0.363,0.197,0.64,0.058,0.779l-0.103,0.103L10.377,12.947z"/></g><g><path fill="#010101" d="M12.58,9.548c-0.194,0-0.401-0.048-0.6-0.139c-0.578-0.289-0.849-0.813-0.653-1.252 c0.211-0.427,0.841-0.532,1.362-0.251c0.563,0.281,0.838,0.812,0.63,1.229C13.206,9.388,12.928,9.548,12.58,9.548z M12.07,8.443 c-0.073,0-0.112,0.019-0.12,0.025c0.001,0.007,0.07,0.178,0.333,0.31c0.168,0.077,0.394,0.062,0.409,0.049 c-0.005-0.026-0.085-0.179-0.325-0.3C12.263,8.472,12.161,8.443,12.07,8.443z"/></g><g><path fill="#010101" d="M12.473,10.906c-0.125,0-0.251-0.042-0.354-0.12c-0.113-0.051-0.247-0.195-0.295-0.345l-0.046-0.139 l0.068-0.185c0.194-0.299,0.514-0.343,0.802-0.167c0.258,0.127,0.394,0.438,0.277,0.678C12.874,10.783,12.69,10.906,12.473,10.906 z M12.466,10.18l0.007,0.026c-0.069,0-0.159,0.054-0.194,0.157c-0.04,0.078,0,0.185,0.032,0.201 c0.05-0.014,0.106-0.045,0.137-0.091C12.53,10.317,12.488,10.205,12.466,10.18z"/></g><g><path fill="#010101" d="M14.098,11.066c-0.141,0-0.288-0.037-0.428-0.107c-0.392-0.194-0.582-0.57-0.452-0.895 c0.209-0.356,0.601-0.409,0.974-0.248c0.409,0.204,0.6,0.581,0.469,0.904C14.575,10.933,14.359,11.066,14.098,11.066z"/></g><g><path fill="#010101" d="M17.848,15.521H13.43c-0.064,0-0.125-0.018-0.177-0.048c-0.803-0.134-1.39-0.8-1.39-1.603 c0-0.899,0.711-1.636,1.602-1.677c0.132-1.099,1.082-1.953,2.23-1.953c1.174,0,2.138,0.915,2.214,2.069 c0.842,0.06,1.507,0.75,1.507,1.59c0,0.851-0.661,1.548-1.539,1.621C17.867,15.52,17.857,15.521,17.848,15.521z M13.567,14.82 h4.265c0.505-0.048,0.885-0.443,0.885-0.922c0-0.493-0.415-0.894-0.926-0.894c-0.131,0.02-0.193,0.028-0.254,0.028 c-0.112,0-0.217-0.054-0.283-0.144c-0.065-0.09-0.084-0.207-0.05-0.313c0.01-0.031,0.011-0.042,0.011-0.119 c0-0.836-0.682-1.516-1.52-1.516c-0.867,0-1.547,0.666-1.547,1.516v0.113c0,0.193-0.156,0.35-0.35,0.35 c-0.063,0-0.124-0.009-0.186-0.019c-0.006,0-0.013,0-0.02,0c-0.601,0-1.031,0.436-1.031,0.97c0,0.484,0.386,0.881,0.896,0.924 C13.497,14.796,13.534,14.806,13.567,14.82z"/></g><g><path fill="#010101" d="M10.57,17.5H6.152c-0.064,0-0.125-0.018-0.178-0.048c-0.802-0.136-1.389-0.813-1.389-1.631 c0-0.883,0.71-1.607,1.599-1.649c0.12-1.096,1.076-1.953,2.233-1.953c1.183,0,2.153,0.917,2.216,2.069 c0.839,0.061,1.503,0.75,1.503,1.59c0,0.851-0.661,1.548-1.537,1.621C10.59,17.5,10.58,17.5,10.57,17.5z M6.29,16.8h4.265 c0.504-0.048,0.883-0.442,0.883-0.922c0-0.493-0.415-0.894-0.924-0.894c-0.063,0-0.113,0-0.146,0.011 c-0.125,0.041-0.265,0.009-0.358-0.087c-0.094-0.095-0.125-0.234-0.082-0.36c0.011-0.029,0.011-0.081,0.011-0.141 c0-0.82-0.682-1.488-1.52-1.488c-0.853,0-1.547,0.667-1.547,1.488v0.142c0,0.193-0.156,0.35-0.35,0.35 c-0.063,0-0.124-0.009-0.186-0.019c-0.625-0.023-1.051,0.417-1.051,0.941c0,0.508,0.377,0.909,0.896,0.952 C6.22,16.776,6.257,16.785,6.29,16.8z"/></g></g><metadata><rdf:RDF xmlns:dc="http://purl.org/dc/elements/1.1/" xmlns:rdf="http://www.w3.org/1999/02/22-rdf-syntax-ns#" xmlns:rdfs="http://www.w3.org/2000/01/rdf-schema#"><rdf:Description about="https://iconscout.com/legal#licenses" dc:date="2016-12-14" dc:description="Colud, Rainbow, Nature, Sky, Vision, Weather, Moon" dc:format="image/svg+xml" dc:language="en" dc:publisher="Iconscout" dc:title="Colud, Rainbow, Nature, Sky, Vision, Weather, Moon"><dc:creator><rdf:Bag><rdf:li>Chamestudio</rdf:li></rdf:Bag></dc:creator></rdf:Description></rdf:RDF></metadata></svg>