<?xml version="1.0" encoding="utf-8"?>
<!DOCTYPE svg PUBLIC "-//W3C//DTD SVG 1.0//EN" "http://www.w3.org/TR/2001/REC-SVG-20010904/DTD/svg10.dtd">
<svg xmlns="http://www.w3.org/2000/svg" xmlns:xlink="http://www.w3.org/1999/xlink" version="1.0" id="Layer_1" x="0px" y="0px" width="24px" height="24px" viewBox="0 0 24 24" enable-background="new 0 0 24 24" xml:space="preserve">
<g>
	<g>
		<path fill="#010101" d="M13.671,13.093c-0.193,0-0.35-0.157-0.35-0.35c0-0.777-0.572-1.488-1.391-1.729    c-1.03-0.264-2.114,0.29-2.398,1.235c-0.055,0.186-0.252,0.292-0.436,0.234c-0.186-0.055-0.29-0.25-0.234-0.436    c0.39-1.3,1.852-2.064,3.253-1.709c1.127,0.332,1.905,1.318,1.905,2.404C14.021,12.936,13.864,13.093,13.671,13.093z"/>
	</g>
	<g>
		<path fill="#010101" d="M6.195,12.131c-0.021,0-0.044-0.002-0.066-0.006c-0.19-0.037-0.314-0.221-0.277-0.411    c0.293-1.504,1.151-2.803,2.418-3.656c1.257-0.846,2.764-1.152,4.251-0.862c1.78,0.362,3.292,1.567,4.046,3.224    c0.08,0.176,0.003,0.383-0.173,0.463c-0.18,0.08-0.384,0.002-0.464-0.173c-0.662-1.454-1.987-2.51-3.546-2.828    c-1.295-0.254-2.62,0.014-3.724,0.756c-1.111,0.749-1.864,1.888-2.121,3.209C6.507,12.015,6.359,12.131,6.195,12.131z"/>
	</g>
	<g>
		<path fill="#010101" d="M14.945,11.65c-0.133,0-0.261-0.077-0.319-0.206c-0.356-0.789-1.022-1.435-1.826-1.772    c-1.787-0.739-3.872,0.055-4.643,1.771C8.078,11.62,7.872,11.7,7.694,11.62c-0.176-0.079-0.255-0.286-0.176-0.462    c0.923-2.059,3.412-3.014,5.551-2.131c0.967,0.406,1.767,1.182,2.195,2.13c0.079,0.176,0.001,0.383-0.175,0.463    C15.043,11.64,14.994,11.65,14.945,11.65z"/>
	</g>
	<g>
		<path fill="#010101" d="M19.137,16.146h-5.041c-0.984-0.069-1.736-0.869-1.736-1.821c0-1.01,0.814-1.833,1.822-1.848    c0.118-1.268,1.178-2.263,2.463-2.263c1.339,0,2.436,1.056,2.499,2.377c0.947,0.048,1.702,0.833,1.702,1.79    c0,0.954-0.745,1.729-1.696,1.764C19.146,16.146,19.141,16.146,19.137,16.146z M14.209,13.178c-0.645,0-1.15,0.504-1.15,1.148    c0,0.586,0.467,1.079,1.063,1.122l5.009-0.001c0.57-0.024,1.017-0.491,1.017-1.064c0-0.603-0.492-1.092-1.096-1.092    c-0.027,0-0.059,0.006-0.091,0.01c-0.196,0.029-0.376,0.011-0.476-0.128c-0.065-0.091-0.083-0.209-0.048-0.316    c0.011-0.03,0.011-0.084,0.011-0.142c0-0.992-0.809-1.799-1.803-1.799c-0.979,0-1.774,0.807-1.774,1.799v0.142    c0,0.108-0.049,0.209-0.134,0.276c-0.086,0.066-0.196,0.09-0.301,0.063C14.367,13.178,14.319,13.178,14.209,13.178z"/>
	</g>
	<g>
		<path fill="#010101" d="M9.934,16.91H4.921c-1.001-0.071-1.766-0.87-1.766-1.821c0-1.018,0.795-1.819,1.821-1.848    c0.107-1.266,1.185-2.263,2.493-2.263c1.348,0,2.449,1.058,2.5,2.377c0.945,0.048,1.7,0.833,1.7,1.79    c0,0.953-0.757,1.728-1.724,1.764C9.942,16.91,9.938,16.91,9.934,16.91z M5.034,13.94c-0.661,0-1.18,0.504-1.18,1.149    c0,0.585,0.479,1.078,1.092,1.122l4.98-0.001c0.576-0.024,1.044-0.5,1.044-1.064c0-0.603-0.491-1.092-1.094-1.092    c-0.041,0-0.076,0.006-0.109,0.012c-0.272,0.041-0.523-0.085-0.523-0.333c0-0.056,0.007-0.113,0.016-0.173    c0.005-0.033,0.012-0.068,0.012-0.109c0-0.977-0.809-1.771-1.802-1.771c-0.994,0-1.803,0.794-1.803,1.771    c0.014,0.038,0.028,0.097,0.028,0.169c0,0.108-0.049,0.209-0.134,0.276c-0.086,0.066-0.195,0.091-0.301,0.063    C5.192,13.941,5.145,13.94,5.034,13.94z"/>
	</g>
</g>

	
	
	<metadata>
		<rdf:RDF xmlns:rdf="http://www.w3.org/1999/02/22-rdf-syntax-ns#" xmlns:rdfs="http://www.w3.org/2000/01/rdf-schema#" xmlns:dc="http://purl.org/dc/elements/1.1/">
			<rdf:Description about="https://iconscout.com/legal#licenses" dc:title="Colud, Rainbow, Nature, Sky, Vision, Weather, Sun" dc:description="Colud, Rainbow, Nature, Sky, Vision, Weather, Sun" dc:publisher="Iconscout" dc:date="2016-12-14" dc:format="image/svg+xml" dc:language="en">
				<dc:creator>
					<rdf:Bag>
						<rdf:li>Chamestudio</rdf:li>
					</rdf:Bag>
				</dc:creator>
			</rdf:Description>
		</rdf:RDF>
    </metadata></svg>
