<?xml version="1.0" encoding="utf-8"?>
<!DOCTYPE svg PUBLIC "-//W3C//DTD SVG 1.0//EN" "http://www.w3.org/TR/2001/REC-SVG-20010904/DTD/svg10.dtd">
<svg xmlns="http://www.w3.org/2000/svg" xmlns:xlink="http://www.w3.org/1999/xlink" version="1.0" id="Layer_1" x="0px" y="0px" width="24px" height="24px" viewBox="0 0 24 24" enable-background="new 0 0 24 24" xml:space="preserve">
<g>
	<g>
		<path fill="#010101" d="M11.901,17.638c-0.193,0-0.35-0.157-0.35-0.35V9.144c0-0.193,0.157-0.35,0.35-0.35h3.709    c0.193,0,0.35,0.157,0.35,0.35s-0.157,0.35-0.35,0.35h-3.359v7.794C12.251,17.481,12.094,17.638,11.901,17.638z"/>
	</g>
	<g>
		<path fill="#010101" d="M15.384,13.566h-3.483c-0.193,0-0.35-0.157-0.35-0.35s0.157-0.35,0.35-0.35h3.483    c0.193,0,0.35,0.157,0.35,0.35S15.577,13.566,15.384,13.566z"/>
	</g>
	<g>
		<path fill="#010101" d="M9.438,9.156c-0.771,0-1.398-0.627-1.398-1.397c0-0.757,0.64-1.397,1.398-1.397    c0.771,0,1.397,0.627,1.397,1.397C10.835,8.542,10.221,9.156,9.438,9.156z M9.438,7.062c-0.372,0-0.698,0.326-0.698,0.697    c0,0.384,0.313,0.697,0.698,0.697c0.404,0,0.697-0.293,0.697-0.697C10.135,7.375,9.822,7.062,9.438,7.062z"/>
	</g>
</g>

	
	
	<metadata>
		<rdf:RDF xmlns:rdf="http://www.w3.org/1999/02/22-rdf-syntax-ns#" xmlns:rdfs="http://www.w3.org/2000/01/rdf-schema#" xmlns:dc="http://purl.org/dc/elements/1.1/">
			<rdf:Description about="https://iconscout.com/legal#licenses" dc:title="Degree, Feranhit, Temperature, Meterology, Centigrade, Forecast, Outline" dc:description="Degree, Feranhit, Temperature, Meterology, Centigrade, Forecast, Outline" dc:publisher="Iconscout" dc:date="2016-12-14" dc:format="image/svg+xml" dc:language="en">
				<dc:creator>
					<rdf:Bag>
						<rdf:li>Chamestudio</rdf:li>
					</rdf:Bag>
				</dc:creator>
			</rdf:Description>
		</rdf:RDF>
    </metadata></svg>
