<?xml version="1.0" encoding="utf-8"?>
<!DOCTYPE svg PUBLIC "-//W3C//DTD SVG 1.0//EN" "http://www.w3.org/TR/2001/REC-SVG-20010904/DTD/svg10.dtd">
<svg xmlns="http://www.w3.org/2000/svg" xmlns:xlink="http://www.w3.org/1999/xlink" version="1.0" id="Layer_1" x="0px" y="0px" width="24px" height="24px" viewBox="0 0 24 24" enable-background="new 0 0 24 24" xml:space="preserve">
<g>
	<g>
		<path fill="#010101" d="M14.217,17.561c-0.736,0-1.463-0.196-2.119-0.579c-0.968-0.566-1.656-1.473-1.938-2.553    c-0.61-2.255,0.72-4.591,2.965-5.205c0.71-0.186,1.457-0.185,2.163-0.001c0.187,0.049,0.299,0.24,0.25,0.427    c-0.049,0.187-0.235,0.297-0.427,0.25c-0.59-0.154-1.214-0.154-1.805,0c-1.87,0.511-2.98,2.463-2.469,4.349    c0.235,0.902,0.809,1.657,1.615,2.128c0.812,0.474,1.757,0.604,2.659,0.367c0.19-0.05,0.378,0.063,0.428,0.249    c0.049,0.187-0.063,0.378-0.249,0.428C14.935,17.514,14.574,17.561,14.217,17.561z"/>
	</g>
	<g>
		<path fill="#010101" d="M9.848,9.232c-0.757,0-1.397-0.639-1.397-1.396S9.09,6.44,9.848,6.44c0.771,0,1.398,0.626,1.398,1.396    S10.619,9.232,9.848,9.232z M9.848,7.141c-0.372,0-0.697,0.325-0.697,0.696s0.326,0.696,0.697,0.696    c0.385,0,0.698-0.312,0.698-0.696S10.232,7.141,9.848,7.141z"/>
	</g>
</g>

	
	
	<metadata>
		<rdf:RDF xmlns:rdf="http://www.w3.org/1999/02/22-rdf-syntax-ns#" xmlns:rdfs="http://www.w3.org/2000/01/rdf-schema#" xmlns:dc="http://purl.org/dc/elements/1.1/">
			<rdf:Description about="https://iconscout.com/legal#licenses" dc:title="Degree, Celsius, Temperature, Meterology, Centigrade, Forecast, Outline" dc:description="Degree, Celsius, Temperature, Meterology, Centigrade, Forecast, Outline" dc:publisher="Iconscout" dc:date="2016-12-14" dc:format="image/svg+xml" dc:language="en">
				<dc:creator>
					<rdf:Bag>
						<rdf:li>Chamestudio</rdf:li>
					</rdf:Bag>
				</dc:creator>
			</rdf:Description>
		</rdf:RDF>
    </metadata></svg>
