<?xml version="1.0" encoding="utf-8"?>
<!DOCTYPE svg PUBLIC "-//W3C//DTD SVG 1.0//EN" "http://www.w3.org/TR/2001/REC-SVG-20010904/DTD/svg10.dtd">
<svg xmlns="http://www.w3.org/2000/svg" xmlns:xlink="http://www.w3.org/1999/xlink" version="1.0" id="Layer_1" x="0px" y="0px" width="24px" height="24px" viewBox="0 0 24 24" enable-background="new 0 0 24 24" xml:space="preserve">
<g>
	<g>
		<path fill="#010101" d="M13.348,20.253c-0.006,0-0.012,0-0.018,0h-2.888c-0.097,0-0.19-0.04-0.256-0.111    c-0.066-0.07-0.1-0.166-0.093-0.263l0.651-9.248c0.011-0.155,0.123-0.284,0.275-0.317c0.153-0.035,0.307,0.038,0.382,0.175    c0.058,0.106,0.229,0.354,0.57,0.354c0.238,0,0.462-0.128,0.571-0.326c0.075-0.138,0.233-0.208,0.385-0.173    c0.153,0.034,0.264,0.166,0.272,0.322l0.475,9.11c0.015,0.04,0.024,0.082,0.024,0.127C13.698,20.097,13.542,20.253,13.348,20.253z     M10.818,19.554h2.144l-0.424-8.132c-0.354,0.158-0.797,0.157-1.146-0.012L10.818,19.554z"/>
	</g>
	<g>
		<path fill="#010101" d="M6.705,13.606c-0.123,0-0.239-0.064-0.302-0.174c-0.079-0.135-0.059-0.305,0.049-0.417L9.34,9.99    C9.407,9.919,9.506,9.876,9.6,9.882l1.388,0.029c0.19,0.004,0.343,0.159,0.343,0.35c0,0.182,0.1,0.341,0.297,0.473    c0.152,0.102,0.2,0.303,0.111,0.462l-0.68,1.215c-0.047,0.084-0.127,0.146-0.22,0.169L6.79,13.597    C6.762,13.604,6.733,13.606,6.705,13.606z M9.739,10.585l-1.945,2.037l2.728-0.686l0.464-0.829    c-0.145-0.148-0.248-0.318-0.305-0.503L9.739,10.585z M17.295,13.606c-0.028,0-0.057-0.003-0.085-0.01l-4.05-1.018    c-0.092-0.023-0.171-0.084-0.219-0.167l-0.708-1.244c-0.091-0.159-0.043-0.362,0.11-0.464c0.124-0.083,0.277-0.232,0.299-0.476    c0.016-0.177,0.163-0.313,0.341-0.317l1.387-0.029c0.101-0.012,0.192,0.036,0.259,0.106l2.917,3.025    c0.108,0.112,0.129,0.283,0.051,0.419C17.535,13.542,17.418,13.606,17.295,13.606z M13.476,11.937l2.719,0.683l-1.962-2.034    l-0.96,0.02c-0.061,0.174-0.158,0.332-0.287,0.47L13.476,11.937z M12.453,9.649c-0.043,0-0.087-0.008-0.13-0.024    c-0.187-0.075-0.495-0.104-0.62-0.041c-0.164,0.08-0.363,0.022-0.458-0.134l-0.708-1.188c-0.05-0.084-0.063-0.185-0.035-0.277    l1.161-3.986c0.043-0.15,0.192-0.237,0.337-0.252c0.156,0,0.293,0.104,0.335,0.255l1.133,4.014    c0.025,0.09,0.014,0.187-0.033,0.269l-0.68,1.189C12.693,9.585,12.575,9.649,12.453,9.649z M11.972,8.837    c0.112,0,0.22,0.017,0.319,0.041l0.465-0.813l-0.761-2.698l-0.777,2.668l0.49,0.822C11.79,8.843,11.877,8.837,11.972,8.837z"/>
	</g>
	<g>
		<path fill="#010101" d="M11.972,11.542c-0.755,0-1.37-0.6-1.37-1.338c0-0.754,0.614-1.367,1.37-1.367s1.37,0.613,1.37,1.367    C13.341,10.942,12.727,11.542,11.972,11.542z M11.972,9.536c-0.375,0-0.669,0.294-0.669,0.668c0,0.352,0.3,0.639,0.669,0.639    s0.669-0.287,0.669-0.639C12.641,9.83,12.347,9.536,11.972,9.536z"/>
	</g>
</g>

	
	
	<metadata>
		<rdf:RDF xmlns:rdf="http://www.w3.org/1999/02/22-rdf-syntax-ns#" xmlns:rdfs="http://www.w3.org/2000/01/rdf-schema#" xmlns:dc="http://purl.org/dc/elements/1.1/">
			<rdf:Description about="https://iconscout.com/legal#licenses" dc:title="Energy, Turbine, Wind, Windmill, Weather, Technology, Power" dc:description="Energy, Turbine, Wind, Windmill, Weather, Technology, Power" dc:publisher="Iconscout" dc:date="2016-12-14" dc:format="image/svg+xml" dc:language="en">
				<dc:creator>
					<rdf:Bag>
						<rdf:li>Chamestudio</rdf:li>
					</rdf:Bag>
				</dc:creator>
			</rdf:Description>
		</rdf:RDF>
    </metadata></svg>
