<?xml version="1.0" encoding="utf-8"?>
<!DOCTYPE svg PUBLIC "-//W3C//DTD SVG 1.0//EN" "http://www.w3.org/TR/2001/REC-SVG-20010904/DTD/svg10.dtd">
<svg xmlns="http://www.w3.org/2000/svg" xmlns:xlink="http://www.w3.org/1999/xlink" version="1.0" id="Layer_1" x="0px" y="0px" width="24px" height="24px" viewBox="0 0 24 24" enable-background="new 0 0 24 24" xml:space="preserve">
<g>
	<g>
		<path fill="#010101" d="M12,17.595c-1.349,0-2.445-1.122-2.445-2.5c0-0.187,0.018-0.366,0.053-0.539    c-0.182,0.055-0.371,0.087-0.564,0.096l-0.121,0.003c-1.344,0-2.445-1.029-2.51-2.342c-0.047-0.627,0.165-1.246,0.596-1.733    c0.443-0.501,1.08-0.807,1.747-0.84l0.15-0.004c0.303,0,0.592,0.047,0.857,0.139c-0.135-0.315-0.208-0.66-0.208-1.001    c0-1.362,1.097-2.47,2.445-2.47c1.364,0,2.475,1.108,2.475,2.47c0,0.197-0.023,0.394-0.068,0.585    c0.178-0.048,0.362-0.077,0.552-0.086c0.054-0.004,0.114-0.006,0.176-0.006c1.313,0,2.392,1.005,2.454,2.29    c0.048,0.645-0.169,1.281-0.609,1.782c-0.438,0.497-1.04,0.798-1.695,0.846l-0.129,0.003c-0.293,0-0.591-0.054-0.871-0.156    c0.127,0.298,0.191,0.622,0.191,0.962C14.475,16.474,13.364,17.595,12,17.595z M10.792,13.763l-0.079,0.13    c-0.314,0.35-0.459,0.748-0.459,1.203c0,0.992,0.783,1.799,1.746,1.799c0.979,0,1.775-0.807,1.775-1.799    c0-0.485-0.176-0.906-0.521-1.25l0,0c-0.018-0.016-0.034-0.034-0.05-0.053l-0.001,0.001l-0.065-0.078    C12.435,14.192,11.469,14.192,10.792,13.763z M8.905,10.438L8.79,10.44c-0.481,0.023-0.938,0.244-1.258,0.604    c-0.305,0.345-0.454,0.78-0.422,1.226c0.047,0.949,0.842,1.685,1.812,1.685l0.089-0.002c0.464-0.021,0.898-0.24,1.226-0.615    c0.012-0.014,0.024-0.026,0.038-0.038c-0.29-0.36-0.464-0.818-0.464-1.316c0-0.395,0.108-0.768,0.315-1.096l-0.125-0.098    C9.706,10.56,9.327,10.438,8.905,10.438z M13.935,13.159c0.032,0.01,0.063,0.026,0.091,0.048c0.313,0.24,0.735,0.383,1.129,0.383    l0.085-0.002c0.464-0.034,0.897-0.25,1.213-0.61c0.316-0.359,0.472-0.812,0.438-1.276c-0.049-0.963-0.905-1.709-1.89-1.628    c-0.443,0.021-0.836,0.184-1.146,0.471l-0.104,0.105c-0.034,0.034-0.072,0.059-0.114,0.076c0.26,0.354,0.413,0.789,0.413,1.26    c0,0.382-0.095,0.741-0.271,1.043L13.935,13.159z M10.922,10.992c-0.014,0.025-0.03,0.048-0.05,0.07    c-0.236,0.261-0.362,0.58-0.362,0.924c0,0.773,0.631,1.403,1.406,1.403c0.387,0,0.735-0.14,1.037-0.417    c0.009-0.009,0.019-0.017,0.029-0.024c0.015-0.035,0.035-0.066,0.061-0.095c0.197-0.218,0.307-0.526,0.307-0.868    c0-0.803-0.63-1.431-1.434-1.431c-0.409,0-0.73,0.212-0.928,0.39C10.968,10.963,10.945,10.979,10.922,10.992z M11.916,9.854    c0.472,0,0.909,0.154,1.263,0.415c0.016-0.038,0.037-0.073,0.066-0.104c0.043-0.046,0.087-0.09,0.133-0.133    c0.242-0.29,0.397-0.723,0.397-1.156c0-0.959-0.813-1.77-1.775-1.77c-0.963,0-1.746,0.794-1.746,1.77    c0,0.467,0.2,0.958,0.521,1.28c0.013,0.013,0.025,0.027,0.036,0.042C11.153,9.972,11.529,9.854,11.916,9.854z"/>
	</g>
</g>

	
	
	<metadata>
		<rdf:RDF xmlns:rdf="http://www.w3.org/1999/02/22-rdf-syntax-ns#" xmlns:rdfs="http://www.w3.org/2000/01/rdf-schema#" xmlns:dc="http://purl.org/dc/elements/1.1/">
			<rdf:Description about="https://iconscout.com/legal#licenses" dc:title="Flower, Nature, Weather, Autumn, Winter, Decoration, Bloosom" dc:description="Flower, Nature, Weather, Autumn, Winter, Decoration, Bloosom" dc:publisher="Iconscout" dc:date="2016-12-14" dc:format="image/svg+xml" dc:language="en">
				<dc:creator>
					<rdf:Bag>
						<rdf:li>Chamestudio</rdf:li>
					</rdf:Bag>
				</dc:creator>
			</rdf:Description>
		</rdf:RDF>
    </metadata></svg>
