<svg xmlns="http://www.w3.org/2000/svg" xmlns:xlink="http://www.w3.org/1999/xlink" id="Layer_1" width="24" height="24" x="0" y="0" enable-background="new 0 0 24 24" version="1.0" viewBox="0 0 24 24" xml:space="preserve"><g><g><path fill="#010101" d="M6.676,15.94c-1.228,0-2.189-0.974-2.189-2.217c0-1.206,0.982-2.188,2.189-2.188h7.59 c0.193,0,0.35,0.156,0.35,0.35s-0.156,0.35-0.35,0.35h-7.59c-0.821,0-1.49,0.668-1.49,1.488c0,0.851,0.655,1.518,1.49,1.518 c0.668,0,1.262-0.465,1.446-1.13c0.051-0.187,0.239-0.298,0.43-0.244c0.187,0.051,0.296,0.244,0.244,0.43 C8.529,15.265,7.657,15.94,6.676,15.94z"/></g><g><path fill="#010101" d="M11.943,17.552c-1.224,0-2.219-0.981-2.219-2.188s0.995-2.188,2.219-2.188h2.066 c0.193,0,0.35,0.156,0.35,0.35s-0.156,0.35-0.35,0.35h-2.066c-0.838,0-1.52,0.668-1.52,1.488s0.682,1.488,1.52,1.488 c0.576,0,1.119-0.355,1.384-0.905c0.084-0.175,0.294-0.247,0.467-0.164c0.175,0.084,0.248,0.293,0.164,0.467 C13.578,17.041,12.787,17.552,11.943,17.552z"/></g><g><path fill="#010101" d="M11.688,10.597c-0.601,0-0.958-0.48-1.272-0.904c-0.237-0.32-0.461-0.623-0.71-0.623 c-0.259,0-0.511,0.309-0.776,0.636c-0.341,0.418-0.728,0.892-1.317,0.892c-0.6,0-0.965-0.498-1.287-0.938 C6.122,9.383,5.894,9.069,5.713,9.069c-0.193,0-0.35-0.156-0.35-0.35s0.156-0.35,0.35-0.35c0.535,0,0.876,0.465,1.177,0.875 c0.234,0.32,0.477,0.652,0.722,0.652c0.258,0,0.509-0.309,0.774-0.635C8.727,8.845,9.114,8.37,9.705,8.37 c0.601,0,0.958,0.48,1.272,0.904c0.237,0.32,0.461,0.623,0.71,0.623c0.277,0,0.564-0.355,0.841-0.699 c0.337-0.418,0.7-0.868,1.186-0.828c0.465,0.019,0.746,0.03,0.794,0.389c0.136,0.138,0.123,0.329-0.014,0.466 c-0.14,0.135-0.37,0.104-0.507-0.032c-0.038-0.039-0.068-0.077-0.092-0.114c-0.054-0.003-0.122-0.005-0.21-0.009 c-0.149-0.005-0.415,0.325-0.612,0.568C12.711,10.087,12.3,10.597,11.688,10.597z"/></g><g><circle cx="11.744" cy="7.645" r=".604" fill="#010101"/></g><g><circle cx="5.09" cy="10.529" r=".604" fill="#010101"/></g><g><path fill="#010101" d="M15.852,17.892c-1.536,0-2.785-1.261-2.785-2.811c0-0.736,0.308-1.453,0.85-1.989V7.983 c0-0.867,0.846-1.875,1.936-1.875c1.105,0,1.963,1.008,1.963,1.875v5.108c0.542,0.536,0.85,1.253,0.85,1.989 C18.664,16.631,17.402,17.892,15.852,17.892z M15.852,6.808c-0.705,0-1.236,0.714-1.236,1.176v5.26c0,0.1-0.042,0.195-0.117,0.262 c-0.472,0.42-0.732,0.979-0.732,1.576c0,1.164,0.936,2.111,2.086,2.111c1.165,0,2.113-0.947,2.113-2.111 c0-0.597-0.261-1.156-0.732-1.576c-0.075-0.066-0.117-0.162-0.117-0.262v-5.26C17.115,7.51,16.584,6.808,15.852,6.808z"/></g><g><path fill="#010101" d="M15.822,14.526c-0.193,0-0.35-0.156-0.35-0.35v-3.479c0-0.193,0.156-0.35,0.35-0.35s0.35,0.156,0.35,0.35 v3.479C16.172,14.37,16.016,14.526,15.822,14.526z"/></g><g><path fill="#010101" d="M15.822,16.308c-0.661,0-1.199-0.55-1.199-1.227s0.538-1.227,1.199-1.227c0.678,0,1.229,0.55,1.229,1.227 S16.5,16.308,15.822,16.308z M15.822,14.554c-0.28,0-0.5,0.231-0.5,0.527s0.22,0.527,0.5,0.527c0.287,0,0.529-0.242,0.529-0.527 S16.109,14.554,15.822,14.554z"/></g><g><path fill="#010101" d="M19.164,12.548h-1.699c-0.193,0-0.35-0.156-0.35-0.35s0.156-0.35,0.35-0.35h1.699 c0.193,0,0.35,0.156,0.35,0.35S19.357,12.548,19.164,12.548z"/></g><g><path fill="#010101" d="M19.164,10.935h-1.699c-0.193,0-0.35-0.156-0.35-0.35s0.156-0.35,0.35-0.35h1.699 c0.193,0,0.35,0.156,0.35,0.35S19.357,10.935,19.164,10.935z"/></g><g><path fill="#010101" d="M19.164,9.267h-1.699c-0.193,0-0.35-0.156-0.35-0.35s0.156-0.35,0.35-0.35h1.699 c0.193,0,0.35,0.156,0.35,0.35S19.357,9.267,19.164,9.267z"/></g></g><metadata><rdf:RDF xmlns:dc="http://purl.org/dc/elements/1.1/" xmlns:rdf="http://www.w3.org/1999/02/22-rdf-syntax-ns#" xmlns:rdfs="http://www.w3.org/2000/01/rdf-schema#"><rdf:Description about="https://iconscout.com/legal#licenses" dc:date="2016-12-14" dc:description="Forecast, Weather, Temperature, Wind, Mountain, Hill, Sun" dc:format="image/svg+xml" dc:language="en" dc:publisher="Iconscout" dc:title="Forecast, Weather, Temperature, Wind, Mountain, Hill, Sun"><dc:creator><rdf:Bag><rdf:li>Chamestudio</rdf:li></rdf:Bag></dc:creator></rdf:Description></rdf:RDF></metadata></svg>