<svg xmlns="http://www.w3.org/2000/svg" xmlns:xlink="http://www.w3.org/1999/xlink" id="Layer_1" width="24" height="24" x="0" y="0" enable-background="new 0 0 24 24" version="1.0" viewBox="0 0 24 24" xml:space="preserve"><g><g><path fill="#010101" d="M9.861,16.409c-0.623,0-1.205-0.239-1.639-0.672c-0.909-0.907-0.911-2.408-0.004-3.346 c0.394-0.393,0.901-0.626,1.513-0.698l2.279-0.171c0.101-0.012,0.199,0.027,0.271,0.097c0.075,0.073,0.143,0.203,0.134,0.307 l-0.141,2.114c-0.003,0.044-0.014,0.085-0.031,0.124c-0.029,0.579-0.272,1.125-0.694,1.546 C11.096,16.161,10.497,16.409,9.861,16.409z M11.686,12.25l-1.889,0.14c-0.443,0.052-0.801,0.214-1.081,0.493 c-0.638,0.66-0.64,1.721,0,2.359c0.613,0.612,1.708,0.602,2.337-0.027c0.317-0.317,0.492-0.731,0.492-1.167 c0-0.05,0.013-0.101,0.035-0.147L11.686,12.25z"/></g><g><path fill="#010101" d="M9.861,16.409c-0.623,0-1.205-0.239-1.639-0.672c-0.909-0.907-0.911-2.408-0.004-3.346 c0.394-0.393,0.901-0.626,1.513-0.698l2.279-0.171c0.101-0.012,0.199,0.027,0.271,0.097c0.075,0.073,0.143,0.203,0.134,0.307 l-0.141,2.114c-0.003,0.044-0.014,0.085-0.031,0.124c-0.029,0.579-0.272,1.125-0.694,1.546 C11.096,16.161,10.497,16.409,9.861,16.409z M11.686,12.25l-1.889,0.14c-0.443,0.052-0.801,0.214-1.081,0.493 c-0.638,0.66-0.64,1.721,0,2.359c0.613,0.612,1.708,0.602,2.337-0.027c0.317-0.317,0.492-0.731,0.492-1.167 c0-0.05,0.013-0.101,0.035-0.147L11.686,12.25z"/></g><g><path fill="#010101" d="M10.851,10.884c-0.429,0-0.83-0.165-1.128-0.463c-0.303-0.302-0.466-0.705-0.46-1.132 c0.006-0.428,0.182-0.826,0.495-1.122c0.261-0.262,0.609-0.423,1-0.461l1.429-0.115c0.101,0.005,0.199,0.032,0.269,0.103 c0.071,0.071,0.108,0.169,0.102,0.269l-0.085,1.329c0.001,0.387-0.157,0.78-0.456,1.115 C11.682,10.722,11.276,10.884,10.851,10.884z M11.833,8.314l-1.011,0.089c-0.156,0.015-0.384,0.074-0.577,0.266 c-0.182,0.171-0.28,0.393-0.283,0.629c-0.003,0.237,0.087,0.46,0.255,0.627c0.336,0.335,0.937,0.332,1.296-0.007 c0.106-0.121,0.258-0.354,0.258-0.649L11.833,8.314z"/></g><g><path fill="#010101" d="M14.745,14.925L14.745,14.925c-0.422,0-0.818-0.163-1.114-0.459c-0.297-0.296-0.461-0.692-0.46-1.115 c0-0.436,0.174-0.848,0.489-1.162c0.217-0.249,0.589-0.426,1.004-0.469l1.431-0.085c0.099,0.003,0.198,0.031,0.269,0.103 c0.071,0.071,0.108,0.169,0.102,0.269l-0.085,1.302c0.001,0.407-0.18,0.838-0.47,1.128C15.594,14.751,15.181,14.925,14.745,14.925 z M15.741,12.357l-1.021,0.061c-0.222,0.023-0.434,0.117-0.55,0.25c-0.199,0.199-0.299,0.436-0.299,0.684 c0,0.235,0.091,0.456,0.255,0.62c0.165,0.164,0.385,0.254,0.62,0.254l0,0c0.249,0,0.486-0.101,0.669-0.284 c0.162-0.161,0.266-0.408,0.266-0.629L15.741,12.357z"/></g></g><metadata><rdf:RDF xmlns:dc="http://purl.org/dc/elements/1.1/" xmlns:rdf="http://www.w3.org/1999/02/22-rdf-syntax-ns#" xmlns:rdfs="http://www.w3.org/2000/01/rdf-schema#"><rdf:Description about="https://iconscout.com/legal#licenses" dc:date="2016-12-14" dc:description="Heavy, Weather, Rain, Drib, Drop, Sky, Waterdrop" dc:format="image/svg+xml" dc:language="en" dc:publisher="Iconscout" dc:title="Heavy, Weather, Rain, Drib, Drop, Sky, Waterdrop"><dc:creator><rdf:Bag><rdf:li>Chamestudio</rdf:li></rdf:Bag></dc:creator></rdf:Description></rdf:RDF></metadata></svg>