<svg xmlns="http://www.w3.org/2000/svg" xmlns:xlink="http://www.w3.org/1999/xlink" id="Layer_1" width="24" height="24" x="0" y="0" enable-background="new 0 0 24 24" version="1.0" viewBox="0 0 24 24" xml:space="preserve"><g><g><path fill="#010101" d="M9.675,17.021c-0.297,0-0.525-0.161-0.626-0.441l-0.055-0.245c-0.034-0.156-0.057-0.26-0.077-0.458 c-0.014-0.126,0.042-0.25,0.146-0.324l0.603-0.425c-1.509-0.675-1.777-2.061-1.911-3.44c-0.013-0.133,0.052-0.262,0.166-0.333 c0.409-0.25,0.915-0.183,1.347-0.022c0.01-0.989,0.522-1.666,0.983-2.274c0.204-0.269,0.396-0.522,0.548-0.798 c0.089-0.161,0.288-0.224,0.454-0.148c0.322,0.15,0.62,0.379,0.873,0.667c0.451-0.903,1.173-1.423,1.714-1.751 c0.146-0.087,0.331-0.06,0.443,0.067c0.644,0.726,0.746,1.598,0.821,2.524c0.279-0.021,0.572-0.005,0.854,0.051 c0.157,0.032,0.272,0.165,0.281,0.325c0.07,1.341-0.316,2.433-1.149,3.254c0.349,0.23,0.725,0.576,1.009,1.012 c0.078,0.12,0.076,0.274-0.006,0.391c-0.592,0.85-1.764,1.765-2.94,1.765c-0.519,0-0.991-0.171-1.407-0.51 c-0.121,0.08-0.253,0.172-0.39,0.268C10.761,16.592,10.146,17.021,9.675,17.021z M9.641,16.002 c0.011,0.061,0.022,0.117,0.037,0.185l0.028,0.132c0.269-0.031,0.854-0.441,1.248-0.716c0.242-0.169,0.47-0.327,0.655-0.434 c0.137-0.081,0.31-0.057,0.422,0.056c0.328,0.328,0.705,0.494,1.121,0.494c0.884,0,1.752-0.701,2.218-1.27 c-0.315-0.398-0.729-0.694-1.015-0.796c-0.12-0.043-0.208-0.149-0.228-0.275c-0.02-0.127,0.031-0.254,0.133-0.332 c0.861-0.659,1.283-1.553,1.287-2.725c-0.22-0.019-0.418-0.005-0.609,0.021c-0.001,0.001-0.003,0.001-0.004,0.002 c-0.134,0.062-0.288,0.053-0.392-0.049c-0.086-0.083-0.135-0.215-0.114-0.333l-0.01-0.115c-0.062-0.792-0.117-1.49-0.48-2.05 c-0.722,0.492-1.147,1.042-1.366,1.755c-0.006,0.018-0.04,0.091-0.048,0.107c-0.058,0.117-0.176,0.192-0.306,0.196 c-0.131-0.012-0.252-0.066-0.314-0.18c-0.178-0.319-0.413-0.585-0.679-0.771c-0.133,0.202-0.276,0.392-0.417,0.577 c-0.526,0.695-0.981,1.294-0.803,2.311c0.021,0.121-0.022,0.243-0.114,0.324s-0.217,0.107-0.336,0.071 c-0.124-0.04-0.247-0.087-0.369-0.134c-0.263-0.102-0.514-0.194-0.708-0.17c0.146,1.309,0.464,2.4,2.032,2.798 c0.133,0.034,0.233,0.141,0.258,0.275c0.025,0.135-0.03,0.271-0.142,0.35L9.641,16.002z"/></g></g><metadata><rdf:RDF xmlns:dc="http://purl.org/dc/elements/1.1/" xmlns:rdf="http://www.w3.org/1999/02/22-rdf-syntax-ns#" xmlns:rdfs="http://www.w3.org/2000/01/rdf-schema#"><rdf:Description about="https://iconscout.com/legal#licenses" dc:date="2016-12-14" dc:description="Leaf, Nature, Weather, Autumn, Fall, Maple, Winter" dc:format="image/svg+xml" dc:language="en" dc:publisher="Iconscout" dc:title="Leaf, Nature, Weather, Autumn, Fall, Maple, Winter"><dc:creator><rdf:Bag><rdf:li>Chamestudio</rdf:li></rdf:Bag></dc:creator></rdf:Description></rdf:RDF></metadata></svg>