<svg xmlns="http://www.w3.org/2000/svg" xmlns:xlink="http://www.w3.org/1999/xlink" id="Layer_1" width="24" height="24" x="0" y="0" enable-background="new 0 0 24 24" version="1.0" viewBox="0 0 24 24" xml:space="preserve"><g><g><path fill="#010101" d="M16.63,7.911h-2.094c-0.193,0-0.35-0.157-0.35-0.35s0.156-0.35,0.35-0.35h2.094 c0.193,0,0.35,0.157,0.35,0.35S16.823,7.911,16.63,7.911z"/></g><g><g><path fill="#010101" d="M11.482,16.343L11.482,16.343c-0.577,0-1.154-0.143-1.67-0.414c-0.461-0.231-0.87-0.556-1.209-0.963 c-0.091-0.108-0.107-0.261-0.042-0.386c0.064-0.125,0.198-0.2,0.341-0.187c1.211,0.099,2.354-0.519,2.917-1.569 c0.519-1.034,0.399-2.298-0.308-3.211c-0.088-0.113-0.098-0.267-0.026-0.391c0.072-0.123,0.213-0.189,0.353-0.17 c0.491,0.07,0.942,0.21,1.306,0.406c0.875,0.452,1.521,1.215,1.813,2.147c0.29,0.922,0.199,1.904-0.254,2.764 C14.085,15.584,12.85,16.343,11.482,16.343z M9.727,15.063c0.129,0.091,0.264,0.173,0.405,0.244 c0.428,0.224,0.88,0.336,1.351,0.336c1.103,0,2.099-0.611,2.6-1.596c0.368-0.698,0.44-1.489,0.207-2.232 c-0.236-0.752-0.759-1.369-1.473-1.738c-0.093-0.05-0.193-0.096-0.301-0.137c0.447,1.008,0.434,2.193-0.075,3.206 C11.883,14.19,10.875,14.889,9.727,15.063z"/></g><g><path fill="#010101" d="M8.276,12.548c-0.193,0-0.35-0.157-0.35-0.35v-2.093c0-0.193,0.156-0.35,0.35-0.35s0.35,0.157,0.35,0.35 v2.093C8.626,12.392,8.47,12.548,8.276,12.548z"/></g><g><path fill="#010101" d="M9.325,11.501H7.229c-0.193,0-0.35-0.157-0.35-0.35s0.156-0.35,0.35-0.35h2.096 c0.193,0,0.35,0.157,0.35,0.35S9.519,11.501,9.325,11.501z"/></g><g><path fill="#010101" d="M15.583,8.957c-0.193,0-0.35-0.157-0.35-0.35V6.515c0-0.193,0.156-0.35,0.35-0.35s0.35,0.157,0.35,0.35 v2.092C15.933,8.8,15.776,8.957,15.583,8.957z"/></g><g><path fill="#010101" d="M16.263,15.799c-0.193,0-0.35-0.157-0.35-0.35v-1.413c0-0.193,0.156-0.35,0.35-0.35s0.35,0.157,0.35,0.35 v1.413C16.612,15.643,16.456,15.799,16.263,15.799z"/></g><g><path fill="#010101" d="M16.97,15.092h-1.387c-0.193,0-0.35-0.157-0.35-0.35s0.156-0.35,0.35-0.35h1.387 c0.193,0,0.35,0.157,0.35,0.35S17.163,15.092,16.97,15.092z"/></g><g><path fill="#010101" d="M7.739,17.835c-0.193,0-0.35-0.157-0.35-0.35V16.1c0-0.193,0.156-0.35,0.35-0.35s0.35,0.157,0.35,0.35 v1.386C8.089,17.679,7.933,17.835,7.739,17.835z"/></g><g><path fill="#010101" d="M8.446,17.128H7.03c-0.193,0-0.35-0.157-0.35-0.35s0.156-0.35,0.35-0.35h1.416 c0.193,0,0.35,0.157,0.35,0.35S8.64,17.128,8.446,17.128z"/></g></g></g><metadata><rdf:RDF xmlns:dc="http://purl.org/dc/elements/1.1/" xmlns:rdf="http://www.w3.org/1999/02/22-rdf-syntax-ns#" xmlns:rdfs="http://www.w3.org/2000/01/rdf-schema#"><rdf:Description about="https://iconscout.com/legal#licenses" dc:date="2016-12-14" dc:description="Moon, Half, Night, Star, Galaxy, Weather, Dark" dc:format="image/svg+xml" dc:language="en" dc:publisher="Iconscout" dc:title="Moon, Half, Night, Star, Galaxy, Weather, Dark"><dc:creator><rdf:Bag><rdf:li>Chamestudio</rdf:li></rdf:Bag></dc:creator></rdf:Description></rdf:RDF></metadata></svg>