<?xml version="1.0" encoding="utf-8"?>
<!DOCTYPE svg PUBLIC "-//W3C//DTD SVG 1.0//EN" "http://www.w3.org/TR/2001/REC-SVG-20010904/DTD/svg10.dtd">
<svg xmlns="http://www.w3.org/2000/svg" xmlns:xlink="http://www.w3.org/1999/xlink" version="1.0" id="Layer_1" x="0px" y="0px" width="24px" height="24px" viewBox="0 0 24 24" enable-background="new 0 0 24 24" xml:space="preserve">
<g>
	<g>
		<path fill="#010101" d="M16.785,16.804c-0.193,0-0.35-0.157-0.35-0.35s0.156-0.35,0.35-0.35h2.691    c1.288-0.075,2.313-1.164,2.313-2.478c0-1.366-1.114-2.478-2.482-2.478c-0.132,0-0.264,0.021-0.412,0.042    c-0.115,0.016-0.262-0.017-0.34-0.097c-0.078-0.081-0.151-0.188-0.132-0.298c0.026-0.151,0.052-0.302,0.052-0.478    c0-2.13-1.723-3.863-3.84-3.863c-1.264,0-2.408,0.604-3.141,1.659c-0.109,0.159-0.33,0.197-0.486,0.088    c-0.159-0.11-0.198-0.329-0.088-0.487c0.852-1.227,2.24-1.96,3.715-1.96c2.503,0,4.539,2.047,4.539,4.563    c0,0.046-0.001,0.092-0.003,0.136c0.046-0.003,0.091-0.005,0.136-0.005c1.755,0,3.182,1.426,3.182,3.178    c0,1.685-1.313,3.08-2.991,3.177L16.785,16.804z"/>
	</g>
	<g>
		<path fill="#010101" d="M14.408,18.246H4.609c-0.055,0-0.108-0.015-0.157-0.04c-1.683-0.203-2.938-1.596-2.938-3.279    c0-1.814,1.477-3.291,3.293-3.291c0.077,0,0.148,0.003,0.218,0.008c0.063-2.462,2.088-4.447,4.569-4.447    c2.504,0,4.541,2.047,4.541,4.563c0,0.044-0.001,0.089-0.004,0.134c0.043-0.002,0.089-0.004,0.135-0.004    c1.768,0,3.152,1.396,3.152,3.178c0,1.687-1.313,3.082-2.99,3.177C14.422,18.245,14.415,18.246,14.408,18.246z M4.718,17.545    h9.681c1.302-0.079,2.32-1.165,2.32-2.478c0-1.389-1.078-2.478-2.453-2.478c-0.176,0-0.328,0.026-0.479,0.052    c-0.111,0.02-0.221-0.017-0.302-0.094c-0.08-0.078-0.118-0.188-0.103-0.299l0.014-0.1c0.021-0.139,0.04-0.264,0.04-0.389    c0-2.13-1.724-3.863-3.842-3.863c-2.135,0-3.871,1.733-3.871,3.863c0,0.021,0.011,0.085,0.04,0.175    c0.037,0.114,0.013,0.239-0.063,0.331c-0.077,0.093-0.2,0.142-0.313,0.124l-0.114-0.015c-0.159-0.021-0.295-0.039-0.466-0.039    c-1.43,0-2.594,1.162-2.594,2.59c0,1.351,1.032,2.466,2.399,2.592C4.649,17.522,4.686,17.531,4.718,17.545z"/>
	</g>
</g>

	
	
	<metadata>
		<rdf:RDF xmlns:rdf="http://www.w3.org/1999/02/22-rdf-syntax-ns#" xmlns:rdfs="http://www.w3.org/2000/01/rdf-schema#" xmlns:dc="http://purl.org/dc/elements/1.1/">
			<rdf:Description about="https://iconscout.com/legal#licenses" dc:title="Natur, Weather, Atmosphere, Cloud, Clouds, Cloudy, Forecast" dc:description="Natur, Weather, Atmosphere, Cloud, Clouds, Cloudy, Forecast" dc:publisher="Iconscout" dc:date="2016-12-14" dc:format="image/svg+xml" dc:language="en">
				<dc:creator>
					<rdf:Bag>
						<rdf:li>Chamestudio</rdf:li>
					</rdf:Bag>
				</dc:creator>
			</rdf:Description>
		</rdf:RDF>
    </metadata></svg>
