<?xml version="1.0" encoding="utf-8"?>
<!DOCTYPE svg PUBLIC "-//W3C//DTD SVG 1.0//EN" "http://www.w3.org/TR/2001/REC-SVG-20010904/DTD/svg10.dtd">
<svg xmlns="http://www.w3.org/2000/svg" xmlns:xlink="http://www.w3.org/1999/xlink" version="1.0" id="Layer_1" x="0px" y="0px" width="24px" height="24px" viewBox="0 0 24 24" enable-background="new 0 0 24 24" xml:space="preserve">
<g>
	<g>
		<path fill="#010101" d="M12.922,17.736c-0.705,0-1.256-0.551-1.256-1.254l-0.023-0.112l-0.005-5.204c0-0.193,0.157-0.35,0.35-0.35    s0.35,0.156,0.35,0.35l0.023,5.259c0.005,0.374,0.244,0.612,0.561,0.612c0.322,0,0.584-0.249,0.584-0.555    c0-0.193,0.157-0.35,0.35-0.35s0.35,0.156,0.35,0.35C14.207,17.174,13.63,17.736,12.922,17.736z M11.987,7.896    c-0.193,0-0.35-0.156-0.35-0.35V6.613c0-0.193,0.157-0.35,0.35-0.35s0.35,0.156,0.35,0.35v0.934    C12.337,7.74,12.181,7.896,11.987,7.896z"/>
	</g>
	<g>
		<path fill="#010101" d="M16.122,13.297c-0.089,0-0.176-0.033-0.243-0.098l-0.028-0.027c-0.092-0.09-0.128-0.223-0.094-0.347    l0.012-0.045c-0.047-0.589-0.471-1.056-1.003-1.096h0c-0.494,0-0.902,0.324-1.023,0.787c-0.042,0.164-0.189,0.279-0.369,0.26    c-0.17-0.015-0.304-0.149-0.318-0.319c-0.043-0.517-0.396-0.921-0.859-0.983c-0.05-0.007-0.096-0.011-0.141-0.011    c-0.527,0-1.001,0.445-1.079,1.013c-0.024,0.173-0.172,0.302-0.347,0.302c-0.154,0-0.318-0.101-0.363-0.248    c-0.144-0.473-0.534-0.803-0.948-0.803c-0.609,0.043-1.035,0.51-1.083,1.099l0.012,0.047c0.034,0.123-0.002,0.256-0.094,0.345    c-0.1,0.096-0.261,0.14-0.389,0.086c-0.128-0.052-0.228-0.161-0.232-0.299c-0.001-0.036-0.001-0.072-0.001-0.108    c-0.572-2.41,0.865-4.807,3.288-5.472c0.391-0.103,0.789-0.153,1.185-0.153c2.082,0,3.903,1.398,4.428,3.4    c0.199,0.735,0.213,1.505,0.041,2.227c0,0.035,0,0.07-0.001,0.106c-0.004,0.138-0.09,0.261-0.218,0.313    C16.21,13.289,16.166,13.297,16.122,13.297z M9.317,10.981c0.478,0,0.921,0.224,1.237,0.596c0.365-0.586,1.034-0.942,1.739-0.842    c0.504,0.068,0.932,0.366,1.193,0.794c0.318-0.339,0.765-0.545,1.248-0.545c0.451,0.032,0.844,0.212,1.142,0.491    c-0.021-0.225-0.061-0.448-0.12-0.67c-0.445-1.696-1.988-2.88-3.752-2.88c-0.337,0-0.674,0.043-1.003,0.13    c-1.64,0.449-2.748,1.836-2.88,3.415c0.286-0.275,0.657-0.453,1.067-0.483C9.227,10.983,9.272,10.981,9.317,10.981z"/>
	</g>
</g>

	
	
	<metadata>
		<rdf:RDF xmlns:rdf="http://www.w3.org/1999/02/22-rdf-syntax-ns#" xmlns:rdfs="http://www.w3.org/2000/01/rdf-schema#" xmlns:dc="http://purl.org/dc/elements/1.1/">
			<rdf:Description about="https://iconscout.com/legal#licenses" dc:title="Protection, Security, Umbrella, Sunshade, Saftey, Insurance, Rainy" dc:description="Protection, Security, Umbrella, Sunshade, Saftey, Insurance, Rainy" dc:publisher="Iconscout" dc:date="2016-12-14" dc:format="image/svg+xml" dc:language="en">
				<dc:creator>
					<rdf:Bag>
						<rdf:li>Chamestudio</rdf:li>
					</rdf:Bag>
				</dc:creator>
			</rdf:Description>
		</rdf:RDF>
    </metadata></svg>
