<?xml version="1.0" encoding="utf-8"?>
<!DOCTYPE svg PUBLIC "-//W3C//DTD SVG 1.0//EN" "http://www.w3.org/TR/2001/REC-SVG-20010904/DTD/svg10.dtd">
<svg xmlns="http://www.w3.org/2000/svg" xmlns:xlink="http://www.w3.org/1999/xlink" version="1.0" id="Layer_1" x="0px" y="0px" width="24px" height="24px" viewBox="0 0 24 24" enable-background="new 0 0 24 24" xml:space="preserve">
<g>
	<g>
		<path fill="#010101" d="M12.515,18.189c-0.705,0-1.256-0.551-1.256-1.255v-5.372c0-0.193,0.157-0.35,0.35-0.35    s0.35,0.157,0.35,0.35v5.372c0,0.316,0.239,0.555,0.556,0.555c0.322,0,0.584-0.249,0.584-0.555c0-0.193,0.157-0.35,0.35-0.35    s0.35,0.157,0.35,0.35C13.799,17.626,13.223,18.189,12.515,18.189z M11.608,8.321c-0.193,0-0.35-0.157-0.35-0.35V7.066    c0-0.193,0.157-0.35,0.35-0.35s0.35,0.157,0.35,0.35v0.905C11.958,8.165,11.802,8.321,11.608,8.321z"/>
	</g>
	<g>
		<path fill="#010101" d="M15.714,13.75c-0.002,0-0.004,0-0.006,0c-0.191-0.003-0.344-0.159-0.344-0.35c0-0.006,0-0.015,0-0.023    c0.017-0.653-0.424-1.197-1.007-1.24c-0.451-0.02-0.875,0.301-1.027,0.8c-0.049,0.16-0.205,0.263-0.372,0.246    c-0.167-0.018-0.298-0.152-0.312-0.319c-0.043-0.516-0.396-0.92-0.86-0.983c-0.557-0.078-1.111,0.371-1.222,1.014    c-0.056,0.324-0.628,0.348-0.712,0.029c-0.124-0.476-0.562-0.797-1.034-0.786c-0.53,0.04-0.947,0.508-0.993,1.095    c0.004,0.016,0.008,0.031,0.012,0.046c0.034,0.121-0.001,0.251-0.09,0.34c-0.1,0.098-0.263,0.143-0.39,0.092    c-0.13-0.051-0.231-0.161-0.235-0.3c-0.001-0.037-0.001-0.073-0.001-0.109c-0.269-1.133-0.095-2.306,0.494-3.323    c0.614-1.06,1.606-1.822,2.794-2.148c0.72-0.18,1.45-0.19,2.177-0.033c0.189,0.041,0.309,0.227,0.269,0.416    c-0.041,0.189-0.225,0.31-0.416,0.269c-0.62-0.133-1.243-0.125-1.853,0.026c-1.001,0.275-1.844,0.923-2.365,1.822    c-0.287,0.495-0.458,1.035-0.507,1.586C8,11.645,8.368,11.469,8.779,11.438c0.541-0.024,1.041,0.209,1.379,0.6    c0.376-0.596,1.043-0.952,1.728-0.851c0.508,0.069,0.939,0.372,1.199,0.804c0.339-0.364,0.816-0.57,1.313-0.554    c0.418,0.031,0.791,0.208,1.078,0.483c-0.018-0.219-0.052-0.436-0.103-0.646c-0.099-0.32-0.233-0.641-0.391-0.932    c-0.093-0.169-0.03-0.382,0.14-0.475c0.17-0.093,0.382-0.031,0.475,0.14c0.181,0.332,0.333,0.696,0.452,1.083    c0.187,0.773,0.19,1.568,0.015,2.322C16.057,13.602,15.902,13.75,15.714,13.75z"/>
	</g>
	<g>
		<path fill="#010101" d="M14.483,10.696c-0.632,0-1.228-0.247-1.677-0.695c-0.434-0.434-0.673-1.015-0.673-1.638    c0-0.636,0.249-1.235,0.701-1.686c0.372-0.402,0.922-0.659,1.5-0.695l2.289-0.17c0.101-0.01,0.202,0.029,0.274,0.102    s0.109,0.172,0.102,0.274l-0.142,2.116C16.857,8.941,16.603,9.557,16.16,10C15.71,10.449,15.115,10.696,14.483,10.696z     M16.269,6.541L14.381,6.68c-0.398,0.025-0.786,0.205-1.043,0.482c-0.329,0.329-0.505,0.752-0.505,1.201    c0,0.436,0.166,0.841,0.468,1.142c0.634,0.633,1.73,0.633,2.365,0c0.313-0.313,0.492-0.748,0.492-1.195L16.269,6.541z"/>
	</g>
	<g>
		<path fill="#010101" d="M14.483,10.696c-0.632,0-1.228-0.247-1.677-0.695c-0.434-0.434-0.673-1.015-0.673-1.638    c0-0.636,0.249-1.235,0.701-1.686c0.372-0.402,0.922-0.659,1.5-0.695l2.289-0.17c0.101-0.01,0.202,0.029,0.274,0.102    s0.109,0.172,0.102,0.274l-0.142,2.116C16.857,8.941,16.603,9.557,16.16,10C15.71,10.449,15.115,10.696,14.483,10.696z     M16.269,6.541L14.381,6.68c-0.398,0.025-0.786,0.205-1.043,0.482c-0.329,0.329-0.505,0.752-0.505,1.201    c0,0.436,0.166,0.841,0.468,1.142c0.634,0.633,1.73,0.633,2.365,0c0.313-0.313,0.492-0.748,0.492-1.195L16.269,6.541z"/>
	</g>
</g>

	
	
	<metadata>
		<rdf:RDF xmlns:rdf="http://www.w3.org/1999/02/22-rdf-syntax-ns#" xmlns:rdfs="http://www.w3.org/2000/01/rdf-schema#" xmlns:dc="http://purl.org/dc/elements/1.1/">
			<rdf:Description about="https://iconscout.com/legal#licenses" dc:title="Rain, Drop, Umbrella, Drib, Device, Protection, Security" dc:description="Rain, Drop, Umbrella, Drib, Device, Protection, Security" dc:publisher="Iconscout" dc:date="2016-12-14" dc:format="image/svg+xml" dc:language="en">
				<dc:creator>
					<rdf:Bag>
						<rdf:li>Chamestudio</rdf:li>
					</rdf:Bag>
				</dc:creator>
			</rdf:Description>
		</rdf:RDF>
    </metadata></svg>
