<svg xmlns="http://www.w3.org/2000/svg" xmlns:xlink="http://www.w3.org/1999/xlink" id="Layer_1" width="24" height="24" x="0" y="0" enable-background="new 0 0 24 24" version="1.0" viewBox="0 0 24 24" xml:space="preserve"><g><g><path fill="#010101" d="M13.955,17.073c-0.077,0-0.153-0.025-0.216-0.075l-1.764-1.384l-1.709,1.381 c-0.099,0.079-0.232,0.101-0.351,0.052C9.798,17,9.715,16.892,9.699,16.766l-0.278-2.24l-2.186-0.226 c-0.127-0.013-0.236-0.094-0.286-0.211c-0.05-0.118-0.031-0.253,0.047-0.353l1.386-1.762l-1.384-1.734 c-0.08-0.1-0.099-0.234-0.05-0.352s0.157-0.2,0.284-0.214l2.216-0.251l0.251-2.184c0.015-0.126,0.097-0.235,0.214-0.283 c0.117-0.049,0.251-0.03,0.352,0.049l1.709,1.355l1.766-1.384c0.1-0.078,0.235-0.098,0.351-0.047 c0.117,0.049,0.198,0.157,0.213,0.283l0.252,2.211l2.213,0.251c0.127,0.014,0.235,0.096,0.284,0.214s0.03,0.252-0.05,0.352 l-1.384,1.734l1.386,1.762c0.078,0.1,0.097,0.234,0.048,0.351s-0.157,0.198-0.283,0.213l-2.189,0.252l-0.276,2.215 c-0.016,0.125-0.098,0.232-0.215,0.28C14.045,17.064,14,17.073,13.955,17.073z M11.973,14.817c0.076,0,0.152,0.025,0.216,0.075 l1.496,1.174l0.233-1.875c0.021-0.16,0.147-0.286,0.308-0.304l1.841-0.211l-1.17-1.487c-0.101-0.127-0.1-0.308,0.002-0.435 l1.162-1.457l-1.861-0.211c-0.162-0.018-0.29-0.146-0.309-0.308l-0.213-1.866L12.188,9.08c-0.128,0.1-0.306,0.098-0.434-0.001 l-1.433-1.136l-0.211,1.835c-0.019,0.162-0.146,0.29-0.309,0.308l-1.863,0.211l1.162,1.457c0.102,0.127,0.103,0.307,0.002,0.435 l-1.164,1.48l1.831,0.189c0.162,0.017,0.291,0.143,0.312,0.305l0.234,1.892l1.437-1.16C11.816,14.843,11.895,14.817,11.973,14.817 z"/></g><g><path fill="#010101" d="M12,17.835c-0.193,0-0.35-0.157-0.35-0.35V6.515c0-0.193,0.156-0.35,0.35-0.35s0.35,0.157,0.35,0.35 v10.971C12.35,17.679,12.193,17.835,12,17.835z"/></g><g><path fill="#010101" d="M17.494,12.35H6.506c-0.193,0-0.35-0.157-0.35-0.35s0.156-0.35,0.35-0.35h10.988 c0.193,0,0.35,0.157,0.35,0.35S17.688,12.35,17.494,12.35z"/></g><g><path fill="#010101" d="M8.121,16.224c-0.09,0-0.179-0.034-0.247-0.103c-0.137-0.136-0.138-0.358-0.001-0.495l7.758-7.776 c0.137-0.138,0.358-0.137,0.495,0c0.137,0.136,0.138,0.358,0.001,0.495l-7.758,7.776C8.301,16.19,8.211,16.224,8.121,16.224z"/></g><g><path fill="#010101" d="M15.879,16.224c-0.09,0-0.18-0.034-0.248-0.103L7.873,8.345C7.736,8.208,7.737,7.986,7.874,7.85 c0.137-0.137,0.358-0.137,0.495,0l7.758,7.776c0.137,0.137,0.136,0.358-0.001,0.495C16.058,16.19,15.969,16.224,15.879,16.224z"/></g></g><metadata><rdf:RDF xmlns:dc="http://purl.org/dc/elements/1.1/" xmlns:rdf="http://www.w3.org/1999/02/22-rdf-syntax-ns#" xmlns:rdfs="http://www.w3.org/2000/01/rdf-schema#"><rdf:Description about="https://iconscout.com/legal#licenses" dc:date="2016-12-14" dc:description="Snow, Weather, Snowfall, Nature, Heavy, Snowflake, Flake" dc:format="image/svg+xml" dc:language="en" dc:publisher="Iconscout" dc:title="Snow, Weather, Snowfall, Nature, Heavy, Snowflake, Flake"><dc:creator><rdf:Bag><rdf:li>Chamestudio</rdf:li></rdf:Bag></dc:creator></rdf:Description></rdf:RDF></metadata></svg>