<svg xmlns="http://www.w3.org/2000/svg" xmlns:xlink="http://www.w3.org/1999/xlink" id="Layer_1" width="24" height="24" x="0" y="0" enable-background="new 0 0 24 24" version="1.0" viewBox="0 0 24 24" xml:space="preserve"><g><g><path fill="#010101" d="M15.33,13.934c-0.006,0-0.012,0-0.018,0H8.715c-0.193,0-0.35-0.157-0.35-0.35 c0-2.002,1.63-3.63,3.635-3.63c1.98,0,3.6,1.567,3.661,3.516c0.012,0.036,0.019,0.075,0.019,0.115 C15.68,13.777,15.523,13.934,15.33,13.934z M9.086,13.233h5.855c-0.176-1.451-1.428-2.58-2.941-2.58 C10.5,10.653,9.26,11.782,9.086,13.233z"/></g><g><path fill="#010101" d="M12,8.929c-0.193,0-0.35-0.157-0.35-0.35V7.278c0-0.193,0.156-0.35,0.35-0.35s0.35,0.157,0.35,0.35v1.301 C12.35,8.772,12.193,8.929,12,8.929z"/></g><g><path fill="#010101" d="M18.455,14.075h-1.301c-0.193,0-0.35-0.157-0.35-0.35s0.156-0.35,0.35-0.35h1.301 c0.193,0,0.35,0.157,0.35,0.35S18.648,14.075,18.455,14.075z"/></g><g><path fill="#010101" d="M6.846,14.075H5.543c-0.193,0-0.35-0.157-0.35-0.35s0.156-0.35,0.35-0.35h1.303 c0.193,0,0.35,0.157,0.35,0.35S7.039,14.075,6.846,14.075z"/></g><g><path fill="#010101" d="M8.346,10.427c-0.09,0-0.179-0.034-0.247-0.103L7.192,9.42C7.056,9.284,7.056,9.062,7.191,8.925 c0.137-0.138,0.358-0.137,0.495,0L8.593,9.83c0.137,0.136,0.137,0.358,0.001,0.495C8.525,10.393,8.436,10.427,8.346,10.427z"/></g><g><path fill="#010101" d="M15.652,10.427c-0.09,0-0.18-0.034-0.248-0.103c-0.136-0.137-0.136-0.358,0.001-0.495l0.906-0.905 c0.137-0.137,0.358-0.137,0.495,0c0.136,0.137,0.136,0.358-0.001,0.495l-0.906,0.905C15.831,10.393,15.742,10.427,15.652,10.427z"/></g><g><path fill="#010101" d="M14.633,15.517H9.365c-0.193,0-0.35-0.157-0.35-0.35s0.156-0.35,0.35-0.35h5.268 c0.193,0,0.35,0.157,0.35,0.35S14.826,15.517,14.633,15.517z"/></g><g><path fill="#010101" d="M13.273,17.072h-2.52c-0.193,0-0.35-0.157-0.35-0.35s0.156-0.35,0.35-0.35h2.52 c0.193,0,0.35,0.157,0.35,0.35S13.467,17.072,13.273,17.072z"/></g></g><metadata><rdf:RDF xmlns:dc="http://purl.org/dc/elements/1.1/" xmlns:rdf="http://www.w3.org/1999/02/22-rdf-syntax-ns#" xmlns:rdfs="http://www.w3.org/2000/01/rdf-schema#"><rdf:Description about="https://iconscout.com/legal#licenses" dc:date="2016-12-14" dc:description="Sun, Sunset, Weather, Shine, Orange, Sea, Forecast" dc:format="image/svg+xml" dc:language="en" dc:publisher="Iconscout" dc:title="Sun, Sunset, Weather, Shine, Orange, Sea, Forecast"><dc:creator><rdf:Bag><rdf:li>Chamestudio</rdf:li></rdf:Bag></dc:creator></rdf:Description></rdf:RDF></metadata></svg>