<?xml version="1.0" encoding="utf-8"?>
<!DOCTYPE svg PUBLIC "-//W3C//DTD SVG 1.0//EN" "http://www.w3.org/TR/2001/REC-SVG-20010904/DTD/svg10.dtd">
<svg xmlns="http://www.w3.org/2000/svg" xmlns:xlink="http://www.w3.org/1999/xlink" version="1.0" id="Layer_1" x="0px" y="0px" width="24px" height="24px" viewBox="0 0 24 24" enable-background="new 0 0 24 24" xml:space="preserve">
<g>
	<g>
		<path fill="#010101" d="M11.979,15.779c-0.862,0-1.733-0.281-2.462-0.86c-0.814-0.662-1.319-1.601-1.426-2.646    c-0.106-1.047,0.2-2.071,0.862-2.882c0.639-0.802,1.563-1.307,2.599-1.418c1.052-0.114,2.084,0.19,2.905,0.858    c0.211,0.149,0.41,0.348,0.574,0.579c0.112,0.157,0.075,0.376-0.082,0.488c-0.158,0.112-0.376,0.075-0.488-0.083    c-0.118-0.166-0.262-0.31-0.427-0.427c-0.692-0.563-1.543-0.813-2.407-0.72c-0.849,0.092-1.604,0.504-2.129,1.162    C8.952,10.499,8.7,11.34,8.788,12.201c0.088,0.859,0.502,1.63,1.168,2.172c1.393,1.105,3.42,0.89,4.518-0.484    c0.121-0.153,0.342-0.177,0.492-0.055c0.15,0.121,0.176,0.341,0.055,0.492C14.258,15.282,13.126,15.779,11.979,15.779z"/>
	</g>
	<g>
		<path fill="#010101" d="M12.001,6.793c-0.193,0-0.35-0.157-0.35-0.35V5.029c0-0.193,0.156-0.35,0.35-0.35s0.35,0.157,0.35,0.35    v1.414C12.351,6.637,12.194,6.793,12.001,6.793z"/>
	</g>
	<g>
		<path fill="#010101" d="M12.001,19.321c-0.193,0-0.35-0.157-0.35-0.35v-1.387c0-0.193,0.156-0.35,0.35-0.35s0.35,0.157,0.35,0.35    v1.387C12.351,19.164,12.194,19.321,12.001,19.321z"/>
	</g>
	<g>
		<path fill="#010101" d="M6.394,12.364H5.006c-0.193,0-0.35-0.157-0.35-0.35s0.156-0.35,0.35-0.35h1.388    c0.193,0,0.35,0.157,0.35,0.35S6.587,12.364,6.394,12.364z"/>
	</g>
	<g>
		<path fill="#010101" d="M16.928,17.284c-0.09,0-0.179-0.034-0.247-0.102l-0.991-0.988c-0.137-0.137-0.138-0.358-0.001-0.495    c0.137-0.138,0.358-0.137,0.495-0.001l0.991,0.988c0.137,0.137,0.138,0.358,0.001,0.495C17.107,17.25,17.018,17.284,16.928,17.284    z"/>
	</g>
	<g>
		<path fill="#010101" d="M8.036,8.405c-0.089,0-0.179-0.034-0.247-0.102L6.797,7.314C6.66,7.178,6.659,6.957,6.796,6.819    c0.136-0.136,0.358-0.137,0.495-0.001l0.992,0.988C8.42,7.943,8.421,8.165,8.284,8.302C8.216,8.37,8.126,8.405,8.036,8.405z"/>
	</g>
	<g>
		<path fill="#010101" d="M7.044,17.284c-0.09,0-0.18-0.035-0.248-0.103c-0.137-0.137-0.136-0.358,0.001-0.495l0.992-0.988    c0.138-0.136,0.359-0.134,0.495,0.001c0.137,0.137,0.136,0.358-0.001,0.495l-0.992,0.988C7.223,17.25,7.133,17.284,7.044,17.284z"/>
	</g>
	<g>
		<path fill="#010101" d="M15.937,8.405c-0.09,0-0.18-0.034-0.248-0.103c-0.137-0.137-0.136-0.358,0.001-0.495l0.991-0.988    c0.137-0.136,0.358-0.137,0.495,0.001c0.137,0.137,0.136,0.358-0.001,0.495l-0.991,0.988C16.115,8.371,16.026,8.405,15.937,8.405z    "/>
	</g>
	<g>
		<path fill="#010101" d="M17.777,14.512h-4.418c-0.063,0-0.123-0.017-0.175-0.047c-0.819-0.135-1.42-0.813-1.42-1.631    c0-0.869,0.737-1.607,1.629-1.649c0.131-1.099,1.069-1.953,2.203-1.953c1.188,0,2.165,0.915,2.242,2.069    c0.841,0.06,1.506,0.75,1.506,1.59c0,0.853-0.661,1.55-1.539,1.621C17.796,14.512,17.787,14.512,17.777,14.512z M13.495,13.812    h4.267c0.505-0.047,0.884-0.441,0.884-0.921c0-0.493-0.415-0.894-0.925-0.894c-0.133,0.019-0.194,0.027-0.255,0.027    c-0.112,0-0.219-0.054-0.284-0.146c-0.065-0.091-0.084-0.209-0.048-0.316c0.01-0.027,0.011-0.037,0.011-0.113    c0-0.851-0.68-1.517-1.548-1.517c-0.838,0-1.52,0.681-1.52,1.517v0.113c0,0.256-0.285,0.373-0.536,0.33    c-0.601,0.018-1.077,0.426-1.077,0.941c0,0.499,0.397,0.908,0.925,0.952C13.426,13.789,13.462,13.798,13.495,13.812z"/>
	</g>
</g>

	
	
	<metadata>
		<rdf:RDF xmlns:rdf="http://www.w3.org/1999/02/22-rdf-syntax-ns#" xmlns:rdfs="http://www.w3.org/2000/01/rdf-schema#" xmlns:dc="http://purl.org/dc/elements/1.1/">
			<rdf:Description about="https://iconscout.com/legal#licenses" dc:title="Sun, Cloud, Weather, Forecast, Sunny, Nature, Sky" dc:description="Sun, Cloud, Weather, Forecast, Sunny, Nature, Sky" dc:publisher="Iconscout" dc:date="2016-12-14" dc:format="image/svg+xml" dc:language="en">
				<dc:creator>
					<rdf:Bag>
						<rdf:li>Chamestudio</rdf:li>
					</rdf:Bag>
				</dc:creator>
			</rdf:Description>
		</rdf:RDF>
    </metadata></svg>
