<svg xmlns="http://www.w3.org/2000/svg" xmlns:xlink="http://www.w3.org/1999/xlink" id="Layer_1" width="24" height="24" x="0" y="0" enable-background="new 0 0 24 24" version="1.0" viewBox="0 0 24 24" xml:space="preserve"><g><g><path fill="#010101" d="M12.001,15.517c-2.021,0-3.664-1.641-3.664-3.658c0-2.001,1.644-3.629,3.664-3.629 c2.005,0,3.635,1.628,3.635,3.629C15.636,13.876,14.006,15.517,12.001,15.517z M12.001,8.929c-1.635,0-2.965,1.314-2.965,2.93 c0,1.632,1.33,2.959,2.965,2.959c1.618,0,2.936-1.327,2.936-2.959C14.937,10.243,13.619,8.929,12.001,8.929z"/></g><g><path fill="#010101" d="M12.001,7.204c-0.193,0-0.35-0.156-0.35-0.35V5.554c0-0.193,0.156-0.35,0.35-0.35s0.35,0.156,0.35,0.35 v1.301C12.351,7.048,12.194,7.204,12.001,7.204z"/></g><g><path fill="#010101" d="M12.001,18.796c-0.193,0-0.35-0.156-0.35-0.35v-1.301c0-0.193,0.156-0.35,0.35-0.35s0.35,0.156,0.35,0.35 v1.301C12.351,18.64,12.194,18.796,12.001,18.796z"/></g><g><path fill="#010101" d="M18.456,12.351h-1.303c-0.193,0-0.35-0.156-0.35-0.35s0.156-0.35,0.35-0.35h1.303 c0.193,0,0.35,0.156,0.35,0.35S18.649,12.351,18.456,12.351z"/></g><g><path fill="#010101" d="M6.817,12.351H5.544c-0.193,0-0.35-0.156-0.35-0.35s0.156-0.35,0.35-0.35h1.273 c0.193,0,0.35,0.156,0.35,0.35S7.011,12.351,6.817,12.351z"/></g><g><path fill="#010101" d="M16.56,16.901c-0.088,0-0.176-0.032-0.243-0.098l-0.936-0.904c-0.139-0.135-0.143-0.356-0.009-0.495 c0.135-0.14,0.356-0.143,0.495-0.009l0.936,0.904c0.139,0.135,0.143,0.356,0.009,0.495C16.742,16.866,16.651,16.901,16.56,16.901z"/></g><g><path fill="#010101" d="M8.347,8.702c-0.088,0-0.176-0.032-0.243-0.099L7.17,7.699C7.03,7.565,7.027,7.344,7.162,7.205 c0.134-0.139,0.356-0.144,0.494-0.008L8.59,8.102c0.14,0.134,0.143,0.355,0.008,0.494C8.529,8.667,8.438,8.702,8.347,8.702z"/></g><g><path fill="#010101" d="M7.413,16.901c-0.092,0-0.183-0.035-0.251-0.106c-0.135-0.139-0.132-0.36,0.008-0.494l0.934-0.904 c0.138-0.136,0.359-0.132,0.494,0.008c0.135,0.139,0.132,0.36-0.008,0.494l-0.934,0.904C7.589,16.869,7.501,16.901,7.413,16.901z"/></g><g><path fill="#010101" d="M15.624,8.702c-0.092,0-0.183-0.035-0.252-0.106c-0.134-0.139-0.13-0.36,0.009-0.495l0.936-0.904 c0.138-0.134,0.358-0.13,0.495,0.009c0.134,0.139,0.13,0.36-0.009,0.495l-0.936,0.904C15.8,8.67,15.712,8.702,15.624,8.702z"/></g><g><path fill="#010101" d="M11.944,13.808c-0.5,0-1-0.19-1.38-0.571c-0.137-0.137-0.137-0.357,0-0.494s0.357-0.137,0.494,0 c0.488,0.488,1.283,0.488,1.771,0c0.137-0.137,0.357-0.137,0.494,0s0.137,0.357,0,0.494 C12.944,13.617,12.444,13.808,11.944,13.808z"/></g><g><path fill="#010101" d="M10.793,11.67c-0.235,0-0.476-0.086-0.668-0.258c-0.144-0.128-0.156-0.35-0.027-0.494 c0.127-0.145,0.35-0.155,0.494-0.027c0.117,0.104,0.273,0.108,0.369,0.014c0.137-0.137,0.357-0.137,0.494,0s0.137,0.357,0,0.494 C11.275,11.579,11.036,11.67,10.793,11.67z"/></g><g><path fill="#010101" d="M13.258,11.673c-0.234,0-0.473-0.086-0.669-0.26c-0.145-0.128-0.158-0.349-0.029-0.494 c0.126-0.146,0.348-0.158,0.494-0.029c0.114,0.102,0.275,0.108,0.37,0.015c0.137-0.137,0.357-0.137,0.494,0s0.137,0.357,0,0.494 C13.735,11.582,13.498,11.673,13.258,11.673z"/></g></g><metadata><rdf:RDF xmlns:dc="http://purl.org/dc/elements/1.1/" xmlns:rdf="http://www.w3.org/1999/02/22-rdf-syntax-ns#" xmlns:rdfs="http://www.w3.org/2000/01/rdf-schema#"><rdf:Description about="https://iconscout.com/legal#licenses" dc:date="2016-12-14" dc:description="Sun, Smiley, Sunshine, Shine, Happy, Light, Energy" dc:format="image/svg+xml" dc:language="en" dc:publisher="Iconscout" dc:title="Sun, Smiley, Sunshine, Shine, Happy, Light, Energy"><dc:creator><rdf:Bag><rdf:li>Chamestudio</rdf:li></rdf:Bag></dc:creator></rdf:Description></rdf:RDF></metadata></svg>