<?xml version="1.0" encoding="utf-8"?>
<!DOCTYPE svg PUBLIC "-//W3C//DTD SVG 1.0//EN" "http://www.w3.org/TR/2001/REC-SVG-20010904/DTD/svg10.dtd">
<svg xmlns="http://www.w3.org/2000/svg" xmlns:xlink="http://www.w3.org/1999/xlink" version="1.0" id="Layer_1" x="0px" y="0px" width="24px" height="24px" viewBox="0 0 24 24" enable-background="new 0 0 24 24" xml:space="preserve">
<g>
	<g>
		<path fill="#010101" d="M11.589,17.892c-1.551,0-2.813-1.261-2.813-2.81c0-0.748,0.308-1.456,0.85-1.967v-5.13    c0-0.868,0.858-1.877,1.963-1.877c1.09,0,1.936,1.009,1.936,1.877v5.13c0.542,0.511,0.85,1.219,0.85,1.967    C14.375,16.631,13.125,17.892,11.589,17.892z M11.589,6.808c-0.733,0-1.263,0.703-1.263,1.177v5.287    c0,0.104-0.046,0.203-0.126,0.269c-0.46,0.383-0.724,0.945-0.724,1.541c0,1.164,0.948,2.11,2.113,2.11    c1.15,0,2.085-0.946,2.085-2.11c0-0.596-0.264-1.157-0.724-1.541c-0.08-0.066-0.126-0.165-0.126-0.269V7.985    C12.825,7.522,12.294,6.808,11.589,6.808z"/>
	</g>
	<g>
		<path fill="#010101" d="M11.532,14.556c-0.193,0-0.35-0.157-0.35-0.35V12.48c0-0.193,0.157-0.35,0.35-0.35s0.35,0.157,0.35,0.35    v1.726C11.882,14.399,11.726,14.556,11.532,14.556z"/>
	</g>
	<g>
		<path fill="#010101" d="M11.561,16.337c-0.677,0-1.227-0.55-1.227-1.227c0-0.688,0.539-1.226,1.227-1.226    c0.684,0,1.2,0.527,1.2,1.226C12.76,15.787,12.222,16.337,11.561,16.337z M11.561,14.584c-0.3,0-0.527,0.226-0.527,0.526    c0,0.286,0.241,0.527,0.527,0.527c0.28,0,0.5-0.231,0.5-0.527C12.06,14.801,11.854,14.584,11.561,14.584z"/>
	</g>
	<g>
		<path fill="#010101" d="M14.874,12.548h-1.671c-0.193,0-0.35-0.157-0.35-0.35s0.157-0.35,0.35-0.35h1.671    c0.193,0,0.35,0.157,0.35,0.35S15.067,12.548,14.874,12.548z"/>
	</g>
	<g>
		<path fill="#010101" d="M14.874,10.937h-1.671c-0.193,0-0.35-0.157-0.35-0.35s0.157-0.35,0.35-0.35h1.671    c0.193,0,0.35,0.157,0.35,0.35S15.067,10.937,14.874,10.937z"/>
	</g>
	<g>
		<path fill="#010101" d="M14.874,9.268h-1.671c-0.193,0-0.35-0.157-0.35-0.35s0.157-0.35,0.35-0.35h1.671    c0.193,0,0.35,0.157,0.35,0.35S15.067,9.268,14.874,9.268z"/>
	</g>
</g>

	
	
	<metadata>
		<rdf:RDF xmlns:rdf="http://www.w3.org/1999/02/22-rdf-syntax-ns#" xmlns:rdfs="http://www.w3.org/2000/01/rdf-schema#" xmlns:dc="http://purl.org/dc/elements/1.1/">
			<rdf:Description about="https://iconscout.com/legal#licenses" dc:title="Temprature, Device, Technology, Heat, Lead, Thermometer, Gauge" dc:description="Temprature, Device, Technology, Heat, Lead, Thermometer, Gauge" dc:publisher="Iconscout" dc:date="2016-12-14" dc:format="image/svg+xml" dc:language="en">
				<dc:creator>
					<rdf:Bag>
						<rdf:li>Chamestudio</rdf:li>
					</rdf:Bag>
				</dc:creator>
			</rdf:Description>
		</rdf:RDF>
    </metadata></svg>
