<?xml version="1.0" encoding="utf-8"?>
<!DOCTYPE svg PUBLIC "-//W3C//DTD SVG 1.0//EN" "http://www.w3.org/TR/2001/REC-SVG-20010904/DTD/svg10.dtd">
<svg xmlns="http://www.w3.org/2000/svg" xmlns:xlink="http://www.w3.org/1999/xlink" version="1.0" id="Layer_1" x="0px" y="0px" width="24px" height="24px" viewBox="0 0 24 24" enable-background="new 0 0 24 24" xml:space="preserve">
<g>
	<g>
		<path fill="#010101" d="M11.729,15.511c-0.504,0-1.006-0.106-1.478-0.318c-0.89-0.399-1.572-1.127-1.92-2.049    c-0.347-0.906-0.315-1.895,0.09-2.783c0.404-0.883,1.127-1.562,2.038-1.91c1.146-0.433,2.434-0.259,3.444,0.467    c0.157,0.112,0.193,0.331,0.08,0.488s-0.331,0.194-0.488,0.08c-0.82-0.587-1.86-0.729-2.788-0.381    c-0.736,0.282-1.322,0.832-1.649,1.547c-0.327,0.716-0.354,1.513-0.074,2.243c0.283,0.748,0.834,1.337,1.553,1.659    c0.712,0.32,1.51,0.341,2.243,0.061c0.179-0.068,0.383,0.021,0.452,0.202c0.069,0.181-0.021,0.383-0.202,0.452    C12.608,15.431,12.168,15.511,11.729,15.511z"/>
	</g>
	<g>
		<path fill="#010101" d="M11.746,7.203c-0.193,0-0.35-0.156-0.35-0.35V5.553c0-0.193,0.157-0.35,0.35-0.35s0.35,0.156,0.35,0.35    v1.301C12.096,7.047,11.939,7.203,11.746,7.203z"/>
	</g>
	<g>
		<path fill="#010101" d="M11.746,18.797c-0.193,0-0.35-0.156-0.35-0.35v-1.301c0-0.193,0.157-0.35,0.35-0.35s0.35,0.156,0.35,0.35    v1.301C12.096,18.641,11.939,18.797,11.746,18.797z"/>
	</g>
	<g>
		<path fill="#010101" d="M6.592,12.35H5.289c-0.193,0-0.35-0.156-0.35-0.35s0.157-0.35,0.35-0.35h1.303    c0.193,0,0.35,0.156,0.35,0.35S6.785,12.35,6.592,12.35z"/>
	</g>
	<g>
		<path fill="#010101" d="M8.092,8.703c-0.089,0-0.179-0.034-0.248-0.103L6.938,7.694c-0.137-0.137-0.137-0.357,0-0.494    s0.358-0.137,0.495,0l0.906,0.906c0.137,0.137,0.137,0.357,0,0.494C8.271,8.669,8.181,8.703,8.092,8.703z"/>
	</g>
	<g>
		<path fill="#010101" d="M7.186,16.902c-0.09,0-0.179-0.034-0.248-0.103c-0.137-0.137-0.137-0.358,0-0.495L7.845,15.4    c0.137-0.138,0.358-0.135,0.495,0.001c0.137,0.137,0.137,0.358,0,0.495l-0.906,0.904C7.364,16.869,7.275,16.902,7.186,16.902z"/>
	</g>
	<g>
		<path fill="#010101" d="M15.398,17.186c-1.551,0-2.813-1.261-2.813-2.811c0-0.749,0.307-1.457,0.848-1.966v-5.13    c0-0.868,0.858-1.877,1.965-1.877c1.09,0,1.936,1.009,1.936,1.877v5.13c0.542,0.51,0.85,1.218,0.85,1.966    C18.184,15.925,16.935,17.186,15.398,17.186z M15.398,6.102c-0.734,0-1.265,0.704-1.265,1.178v5.287    c0,0.104-0.046,0.203-0.126,0.27c-0.458,0.381-0.721,0.942-0.721,1.539c0,1.164,0.948,2.111,2.113,2.111    c1.15,0,2.085-0.947,2.085-2.111c0-0.596-0.264-1.157-0.723-1.539c-0.08-0.066-0.126-0.165-0.126-0.27V7.279    C16.634,6.816,16.104,6.102,15.398,6.102z"/>
	</g>
	<g>
		<path fill="#010101" d="M15.342,13.82c-0.193,0-0.35-0.156-0.35-0.35V7.393c0-0.193,0.157-0.35,0.35-0.35s0.35,0.156,0.35,0.35    v6.078C15.692,13.664,15.535,13.82,15.342,13.82z"/>
	</g>
	<g>
		<path fill="#010101" d="M15.369,15.631c-0.677,0-1.227-0.55-1.227-1.227c0-0.688,0.539-1.227,1.227-1.227    c0.689,0,1.229,0.538,1.229,1.227C16.598,15.081,16.047,15.631,15.369,15.631z M15.369,13.877c-0.3,0-0.527,0.227-0.527,0.527    c0,0.285,0.241,0.527,0.527,0.527c0.287,0,0.529-0.242,0.529-0.527C15.898,14.104,15.671,13.877,15.369,13.877z"/>
	</g>
	<g>
		<path fill="#010101" d="M18.711,11.842h-1.699c-0.193,0-0.35-0.156-0.35-0.35s0.157-0.35,0.35-0.35h1.699    c0.193,0,0.35,0.156,0.35,0.35S18.904,11.842,18.711,11.842z"/>
	</g>
	<g>
		<path fill="#010101" d="M18.711,10.23h-1.699c-0.193,0-0.35-0.156-0.35-0.35s0.157-0.35,0.35-0.35h1.699    c0.193,0,0.35,0.156,0.35,0.35S18.904,10.23,18.711,10.23z"/>
	</g>
	<g>
		<path fill="#010101" d="M18.711,8.561h-1.699c-0.193,0-0.35-0.156-0.35-0.35s0.157-0.35,0.35-0.35h1.699    c0.193,0,0.35,0.156,0.35,0.35S18.904,8.561,18.711,8.561z"/>
	</g>
</g>

	
	
	<metadata>
		<rdf:RDF xmlns:rdf="http://www.w3.org/1999/02/22-rdf-syntax-ns#" xmlns:rdfs="http://www.w3.org/2000/01/rdf-schema#" xmlns:dc="http://purl.org/dc/elements/1.1/">
			<rdf:Description about="https://iconscout.com/legal#licenses" dc:title="Temperature, Weather, Forecast, Measure, Sun, Heat, Shine" dc:description="Temperature, Weather, Forecast, Measure, Sun, Heat, Shine" dc:publisher="Iconscout" dc:date="2016-12-14" dc:format="image/svg+xml" dc:language="en">
				<dc:creator>
					<rdf:Bag>
						<rdf:li>Chamestudio</rdf:li>
					</rdf:Bag>
				</dc:creator>
			</rdf:Description>
		</rdf:RDF>
    </metadata></svg>
