<?xml version="1.0" encoding="utf-8"?>
<!DOCTYPE svg PUBLIC "-//W3C//DTD SVG 1.0//EN" "http://www.w3.org/TR/2001/REC-SVG-20010904/DTD/svg10.dtd">
<svg xmlns="http://www.w3.org/2000/svg" xmlns:xlink="http://www.w3.org/1999/xlink" version="1.0" id="Layer_1" x="0px" y="0px" width="24px" height="24px" viewBox="0 0 24 24" enable-background="new 0 0 24 24" xml:space="preserve">
<g>
	<g>
		<path fill="#010101" d="M11.589,17.906c-1.551,0-2.813-1.26-2.813-2.809c0-0.738,0.308-1.455,0.85-1.989V8    c0-0.882,0.858-1.906,1.963-1.906c1.072,0,1.936,1.043,1.936,1.906v5.108c0.542,0.534,0.85,1.251,0.85,1.989    C14.375,16.646,13.125,17.906,11.589,17.906z M11.589,6.793c-0.721,0-1.263,0.732-1.263,1.207v5.26    c0,0.101-0.043,0.195-0.118,0.262c-0.465,0.412-0.731,0.986-0.731,1.576c0,1.163,0.948,2.109,2.113,2.109    c1.15,0,2.085-0.946,2.085-2.109c0-0.59-0.267-1.164-0.731-1.576c-0.075-0.066-0.118-0.161-0.118-0.262V8    C12.825,7.523,12.271,6.793,11.589,6.793z"/>
	</g>
	<g>
		<path fill="#010101" d="M11.532,14.514c-0.193,0-0.35-0.156-0.35-0.35V8.227c0-0.193,0.157-0.35,0.35-0.35s0.35,0.156,0.35,0.35    v5.938C11.882,14.357,11.726,14.514,11.532,14.514z"/>
	</g>
	<g>
		<path fill="#010101" d="M11.561,16.322c-0.677,0-1.227-0.549-1.227-1.225c0-0.677,0.55-1.227,1.227-1.227    c0.673,0,1.2,0.538,1.2,1.227C12.76,15.784,12.233,16.322,11.561,16.322z M11.561,14.57c-0.291,0-0.527,0.236-0.527,0.527    c0,0.284,0.241,0.525,0.527,0.525c0.28,0,0.5-0.231,0.5-0.525C12.06,14.802,11.841,14.57,11.561,14.57z"/>
	</g>
	<g>
		<path fill="#010101" d="M14.874,12.563h-1.671c-0.193,0-0.35-0.156-0.35-0.35s0.157-0.35,0.35-0.35h1.671    c0.193,0,0.35,0.156,0.35,0.35S15.067,12.563,14.874,12.563z"/>
	</g>
	<g>
		<path fill="#010101" d="M14.874,10.951h-1.671c-0.193,0-0.35-0.156-0.35-0.35s0.157-0.35,0.35-0.35h1.671    c0.193,0,0.35,0.156,0.35,0.35S15.067,10.951,14.874,10.951z"/>
	</g>
	<g>
		<path fill="#010101" d="M14.874,9.281h-1.671c-0.193,0-0.35-0.156-0.35-0.35s0.157-0.35,0.35-0.35h1.671    c0.193,0,0.35,0.156,0.35,0.35S15.067,9.281,14.874,9.281z"/>
	</g>
</g>

	
	
	<metadata>
		<rdf:RDF xmlns:rdf="http://www.w3.org/1999/02/22-rdf-syntax-ns#" xmlns:rdfs="http://www.w3.org/2000/01/rdf-schema#" xmlns:dc="http://purl.org/dc/elements/1.1/">
			<rdf:Description about="https://iconscout.com/legal#licenses" dc:title="Weather, Temperature, Heat, Mercury, Measurement, Hot, Fever" dc:description="Weather, Temperature, Heat, Mercury, Measurement, Hot, Fever" dc:publisher="Iconscout" dc:date="2016-12-14" dc:format="image/svg+xml" dc:language="en">
				<dc:creator>
					<rdf:Bag>
						<rdf:li>Chamestudio</rdf:li>
					</rdf:Bag>
				</dc:creator>
			</rdf:Description>
		</rdf:RDF>
    </metadata></svg>
