<?xml version="1.0" encoding="utf-8"?>
<!DOCTYPE svg PUBLIC "-//W3C//DTD SVG 1.0//EN" "http://www.w3.org/TR/2001/REC-SVG-20010904/DTD/svg10.dtd">
<svg xmlns="http://www.w3.org/2000/svg" xmlns:xlink="http://www.w3.org/1999/xlink" version="1.0" id="Layer_1" x="0px" y="0px" width="24px" height="24px" viewBox="0 0 24 24" enable-background="new 0 0 24 24" xml:space="preserve">
<g>
	<g>
		<path fill="#010101" d="M16.956,15.941H7.157c-0.053,0-0.105-0.014-0.153-0.038c-1.675-0.175-2.972-1.584-2.972-3.252    c0-1.814,1.491-3.291,3.324-3.291c0.075,0,0.146,0,0.218,0.002c0.049-2.474,2.079-4.47,4.567-4.47    c2.504,0,4.541,2.047,4.541,4.563c0,0.046-0.002,0.091-0.006,0.134c0.044-0.002,0.09-0.004,0.137-0.004    c1.739,0,3.154,1.426,3.154,3.178c0,1.714-1.286,3.08-2.992,3.177C16.97,15.94,16.963,15.941,16.956,15.941z M7.268,15.241h9.679    c1.324-0.08,2.322-1.143,2.322-2.477c0-1.366-1.102-2.478-2.455-2.478c-0.176,0-0.328,0.026-0.479,0.052    c-0.102,0.018-0.204-0.011-0.284-0.078c-0.078-0.066-0.123-0.164-0.123-0.267c0-0.1,0.014-0.2,0.03-0.303    c0.013-0.074,0.026-0.151,0.026-0.234c0-2.13-1.724-3.863-3.842-3.863c-2.133,0-3.869,1.733-3.869,3.863    c0,0.039,0.006,0.074,0.011,0.108C8.292,9.628,8.3,9.692,8.3,9.767c0,0.11-0.051,0.213-0.139,0.28    c-0.087,0.066-0.199,0.088-0.308,0.057C7.704,10.06,7.565,10.06,7.356,10.06c-1.447,0-2.625,1.162-2.625,2.59    c0,1.359,1.042,2.461,2.424,2.563C7.195,15.216,7.233,15.226,7.268,15.241z"/>
	</g>
	<g>
		<path fill="#010101" d="M7.923,19.108c-0.193,0-0.35-0.157-0.35-0.35v-1.611c0-0.193,0.156-0.35,0.35-0.35s0.35,0.157,0.35,0.35    v1.611C8.272,18.951,8.116,19.108,7.923,19.108z"/>
	</g>
	<g>
		<path fill="#010101" d="M9.706,19.108c-0.193,0-0.35-0.157-0.35-0.35v-1.611c0-0.193,0.156-0.35,0.35-0.35s0.35,0.157,0.35,0.35    v1.611C10.056,18.951,9.899,19.108,9.706,19.108z"/>
	</g>
	<g>
		<path fill="#010101" d="M11.491,19.108c-0.193,0-0.35-0.157-0.35-0.35v-1.611c0-0.193,0.156-0.35,0.35-0.35s0.35,0.157,0.35,0.35    v1.611C11.841,18.951,11.685,19.108,11.491,19.108z"/>
	</g>
	<g>
		<path fill="#010101" d="M13.274,19.108c-0.193,0-0.35-0.157-0.35-0.35v-1.611c0-0.193,0.156-0.35,0.35-0.35s0.35,0.157,0.35,0.35    v1.611C13.624,18.951,13.468,19.108,13.274,19.108z"/>
	</g>
	<g>
		<path fill="#010101" d="M15.058,19.108c-0.193,0-0.35-0.157-0.35-0.35v-1.611c0-0.193,0.156-0.35,0.35-0.35s0.35,0.157,0.35,0.35    v1.611C15.407,18.951,15.251,19.108,15.058,19.108z"/>
	</g>
	<g>
		<path fill="#010101" d="M16.843,19.108c-0.193,0-0.35-0.157-0.35-0.35v-1.611c0-0.193,0.156-0.35,0.35-0.35s0.35,0.157,0.35,0.35    v1.611C17.192,18.951,17.036,19.108,16.843,19.108z"/>
	</g>
</g>

	
	
	<metadata>
		<rdf:RDF xmlns:rdf="http://www.w3.org/1999/02/22-rdf-syntax-ns#" xmlns:rdfs="http://www.w3.org/2000/01/rdf-schema#" xmlns:dc="http://purl.org/dc/elements/1.1/">
			<rdf:Description about="https://iconscout.com/legal#licenses" dc:title="Weather, Wind, Forecast, Cloud, Clouds, Cloudy, Rain" dc:description="Weather, Wind, Forecast, Cloud, Clouds, Cloudy, Rain" dc:publisher="Iconscout" dc:date="2016-12-14" dc:format="image/svg+xml" dc:language="en">
				<dc:creator>
					<rdf:Bag>
						<rdf:li>Chamestudio</rdf:li>
					</rdf:Bag>
				</dc:creator>
			</rdf:Description>
		</rdf:RDF>
    </metadata></svg>
