<svg xmlns="http://www.w3.org/2000/svg" xmlns:xlink="http://www.w3.org/1999/xlink" id="Layer_1" width="24" height="24" x="0" y="0" enable-background="new 0 0 24 24" version="1.0" viewBox="0 0 24 24" xml:space="preserve"><g><g><path fill="#010101" d="M15.582,15.643c-0.998,0-1.851-0.659-2.122-1.642c-0.051-0.186,0.058-0.379,0.244-0.43 c0.187-0.053,0.379,0.059,0.431,0.244c0.187,0.674,0.768,1.128,1.447,1.128c0.822,0,1.491-0.68,1.491-1.516 c0-0.82-0.668-1.488-1.491-1.488H6.605c-0.193,0-0.35-0.156-0.35-0.35s0.157-0.35,0.35-0.35h8.977 c1.208,0,2.191,0.981,2.191,2.188C17.773,14.649,16.79,15.643,15.582,15.643z"/></g><g><path fill="#010101" d="M10.315,17.256c-0.977,0-1.849-0.662-2.121-1.61c-0.053-0.187,0.054-0.38,0.24-0.434 c0.186-0.054,0.379,0.055,0.433,0.24c0.186,0.65,0.782,1.104,1.448,1.104c0.821,0,1.49-0.668,1.49-1.488 c0-0.837-0.668-1.518-1.49-1.518H6.577c-0.193,0-0.35-0.156-0.35-0.35s0.157-0.35,0.35-0.35h3.738c1.208,0,2.19,0.994,2.19,2.217 C12.505,16.274,11.523,17.256,10.315,17.256z"/></g><g><path fill="#010101" d="M6.577,10.299c-0.158,0-0.301-0.107-0.34-0.268c-0.045-0.188,0.07-0.377,0.258-0.422 c0.333-0.081,0.562-0.384,0.805-0.704c0.305-0.403,0.65-0.86,1.26-0.86c0.605,0,0.969,0.493,1.291,0.929 C10.087,9.296,10.312,9.6,10.542,9.6c0.25,0,0.48-0.31,0.725-0.638c0.321-0.43,0.685-0.917,1.285-0.917 c0.598,0,0.985,0.488,1.327,0.92C14.125,9.276,14.381,9.6,14.619,9.6c0.262,0,0.511-0.344,0.752-0.675 c0.3-0.413,0.64-0.88,1.173-0.88c0.193,0,0.35,0.156,0.35,0.35s-0.157,0.35-0.35,0.35c-0.177,0-0.405,0.314-0.607,0.592 c-0.312,0.43-0.701,0.963-1.319,0.963c-0.576,0-0.955-0.478-1.29-0.899c-0.255-0.322-0.519-0.655-0.778-0.655 c-0.249,0-0.479,0.31-0.724,0.637c-0.321,0.431-0.686,0.918-1.286,0.918c-0.584,0-0.94-0.482-1.255-0.909 C9.042,9.058,8.811,8.744,8.56,8.744c-0.25,0-0.429,0.222-0.702,0.583c-0.292,0.386-0.622,0.822-1.198,0.962 C6.632,10.296,6.604,10.299,6.577,10.299z"/></g><g><path fill="#010101" d="M10.485,7.953c-0.313,0-0.577-0.277-0.577-0.605c0-0.327,0.264-0.604,0.577-0.604 c0.333,0,0.605,0.271,0.605,0.604C11.09,7.682,10.819,7.953,10.485,7.953z"/></g><g><circle cx="17.168" cy="10.232" r=".604" fill="#010101"/></g></g><metadata><rdf:RDF xmlns:dc="http://purl.org/dc/elements/1.1/" xmlns:rdf="http://www.w3.org/1999/02/22-rdf-syntax-ns#" xmlns:rdfs="http://www.w3.org/2000/01/rdf-schema#"><rdf:Description about="https://iconscout.com/legal#licenses" dc:date="2016-12-14" dc:description="Weather, Sun, Mountain, Cloud, Hill, Wind, Windy" dc:format="image/svg+xml" dc:language="en" dc:publisher="Iconscout" dc:title="Weather, Sun, Mountain, Cloud, Hill, Wind, Windy"><dc:creator><rdf:Bag><rdf:li>Chamestudio</rdf:li></rdf:Bag></dc:creator></rdf:Description></rdf:RDF></metadata></svg>