<svg xmlns="http://www.w3.org/2000/svg" xmlns:xlink="http://www.w3.org/1999/xlink" id="Layer_1" width="24" height="24" x="0" y="0" enable-background="new 0 0 24 24" version="1.0" viewBox="0 0 24 24" xml:space="preserve"><g><g><path fill="#010101" d="M16.196,10.32L16.196,10.32c-0.578,0-1.154-0.143-1.668-0.413c-0.481-0.241-0.894-0.579-1.219-1.002 c-0.085-0.111-0.097-0.263-0.028-0.385c0.069-0.123,0.201-0.188,0.343-0.177c1.201,0.136,2.347-0.495,2.908-1.567 c0.53-1.01,0.409-2.26-0.307-3.187c-0.084-0.109-0.097-0.258-0.032-0.379c0.065-0.122,0.195-0.188,0.333-0.184 c0.426,0.03,0.898,0.175,1.331,0.408c1.783,0.921,2.499,3.124,1.59,4.907C18.803,9.563,17.559,10.32,16.196,10.32z M14.426,9.027 c0.131,0.096,0.271,0.182,0.421,0.256c0.426,0.224,0.878,0.336,1.349,0.336l0,0c1.102,0,2.109-0.613,2.63-1.6 c0.732-1.437,0.152-3.218-1.295-3.965c-0.099-0.054-0.2-0.101-0.301-0.143c0.458,1.016,0.443,2.196-0.078,3.189 C16.596,8.162,15.579,8.871,14.426,9.027z"/></g><g><path fill="#010101" d="M13.359,15.234c-0.193,0-0.35-0.157-0.35-0.35s0.157-0.35,0.35-0.35h3.596 c1.288-0.075,2.312-1.163,2.312-2.477c0-0.961-0.532-1.815-1.388-2.23c-0.174-0.084-0.247-0.293-0.163-0.467 c0.084-0.174,0.293-0.249,0.467-0.163c1.1,0.532,1.784,1.628,1.784,2.86c0,1.685-1.314,3.08-2.992,3.177L13.359,15.234z M9.366,15.234H7.157c-0.051,0-0.108-0.015-0.161-0.04c-1.71-0.209-2.963-1.601-2.963-3.279c0-1.856,1.665-3.428,3.541-3.281 c0.061-2.463,2.074-4.449,4.54-4.449c2.099,0,3.916,1.424,4.417,3.462c0.046,0.188-0.068,0.377-0.256,0.423 c-0.187,0.045-0.377-0.068-0.423-0.256c-0.424-1.725-1.961-2.929-3.737-2.929c-2.118,0-3.841,1.733-3.841,3.863 c0,0.028,0.006,0.06,0.011,0.092C8.292,8.907,8.3,8.974,8.3,9.031c0,0.102-0.044,0.198-0.121,0.265 C8.103,9.362,8,9.392,7.901,9.378C7.719,9.352,7.537,9.325,7.355,9.325c-1.421,0-2.623,1.186-2.623,2.59 c0,1.35,1.032,2.464,2.4,2.592c0.032,0.003,0.068,0.013,0.103,0.027h2.13c0.193,0,0.35,0.157,0.35,0.35S9.56,15.234,9.366,15.234z"/></g><g><path fill="#010101" d="M6.761,18.316c-0.09,0-0.179-0.034-0.248-0.103c-0.137-0.137-0.137-0.358,0-0.495l1.161-1.159 c0.137-0.137,0.358-0.137,0.495,0c0.137,0.137,0.137,0.358,0,0.495l-1.161,1.159C6.939,18.282,6.85,18.316,6.761,18.316z"/></g><g><path fill="#010101" d="M8.913,18.316c-0.09,0-0.179-0.034-0.248-0.103c-0.137-0.137-0.137-0.358,0-0.495l1.161-1.159 c0.137-0.137,0.358-0.137,0.495,0c0.137,0.137,0.137,0.358,0,0.495L9.16,18.213C9.092,18.282,9.002,18.316,8.913,18.316z"/></g><g><path fill="#010101" d="M13.218,18.316c-0.09,0-0.179-0.034-0.248-0.103c-0.137-0.137-0.137-0.358,0-0.495l1.161-1.159 c0.137-0.137,0.358-0.137,0.495,0c0.137,0.137,0.137,0.358,0,0.495l-1.161,1.159C13.396,18.282,13.307,18.316,13.218,18.316z"/></g><g><path fill="#010101" d="M15.37,18.316c-0.09,0-0.179-0.034-0.248-0.103c-0.137-0.137-0.137-0.358,0-0.495l1.16-1.159 c0.137-0.137,0.359-0.136,0.495,0c0.137,0.137,0.137,0.358,0,0.495l-1.16,1.159C15.549,18.282,15.459,18.316,15.37,18.316z"/></g><g><path fill="#010101" d="M4.496,20.974c-0.09,0-0.179-0.034-0.248-0.103c-0.137-0.137-0.137-0.358,0-0.495l1.16-1.159 c0.137-0.137,0.359-0.136,0.495,0c0.137,0.137,0.137,0.358,0,0.495l-1.16,1.159C4.675,20.94,4.585,20.974,4.496,20.974z"/></g><g><path fill="#010101" d="M6.647,20.974c-0.09,0-0.179-0.034-0.248-0.103c-0.137-0.137-0.137-0.358,0-0.495l1.161-1.159 c0.137-0.137,0.358-0.137,0.495,0c0.137,0.137,0.137,0.358,0,0.495l-1.161,1.159C6.826,20.94,6.737,20.974,6.647,20.974z"/></g><g><path fill="#010101" d="M8.8,20.974c-0.09,0-0.179-0.034-0.248-0.103c-0.137-0.137-0.137-0.358,0-0.495l1.161-1.159 c0.137-0.137,0.358-0.137,0.495,0c0.137,0.137,0.137,0.358,0,0.495l-1.161,1.159C8.979,20.94,8.889,20.974,8.8,20.974z"/></g><g><path fill="#010101" d="M10.952,20.974c-0.09,0-0.179-0.034-0.248-0.103c-0.137-0.137-0.137-0.358,0-0.495l1.161-1.159 c0.137-0.137,0.358-0.137,0.495,0c0.137,0.137,0.137,0.358,0,0.495l-1.161,1.159C11.131,20.94,11.042,20.974,10.952,20.974z"/></g><g><path fill="#010101" d="M13.104,20.974c-0.09,0-0.179-0.034-0.248-0.103c-0.137-0.137-0.137-0.358,0-0.495l1.161-1.159 c0.137-0.137,0.358-0.137,0.495,0c0.137,0.137,0.137,0.358,0,0.495l-1.161,1.159C13.283,20.94,13.194,20.974,13.104,20.974z"/></g><g><path fill="#010101" d="M10.499,19.108c-0.046,0-0.093-0.009-0.138-0.028c-0.153-0.066-0.239-0.231-0.204-0.395l0.731-3.451H9.395 c-0.109,0-0.212-0.051-0.278-0.138c-0.066-0.087-0.088-0.2-0.059-0.305l1.189-4.298c0.042-0.152,0.18-0.257,0.337-0.257h3.087 c0.13,0,0.249,0.072,0.31,0.187s0.053,0.254-0.021,0.361l-1.408,2.054h1.771c0.13,0,0.249,0.072,0.31,0.187 c0.061,0.115,0.053,0.254-0.021,0.361l-3.823,5.57C10.721,19.053,10.611,19.108,10.499,19.108z M9.854,14.534h1.466 c0.105,0,0.206,0.048,0.272,0.13s0.092,0.189,0.07,0.293l-0.456,2.152l2.451-3.571h-1.771c-0.13,0-0.249-0.072-0.31-0.187 s-0.053-0.254,0.021-0.361l1.408-2.054H10.85L9.854,14.534z"/></g></g><metadata><rdf:RDF xmlns:dc="http://purl.org/dc/elements/1.1/" xmlns:rdf="http://www.w3.org/1999/02/22-rdf-syntax-ns#" xmlns:rdfs="http://www.w3.org/2000/01/rdf-schema#"><rdf:Description about="https://iconscout.com/legal#licenses" dc:date="2016-12-14" dc:description="Weather, Thunder, Forecast, Cloud, Rain, Cloudy, Moon" dc:format="image/svg+xml" dc:language="en" dc:publisher="Iconscout" dc:title="Weather, Thunder, Forecast, Cloud, Rain, Cloudy, Moon"><dc:creator><rdf:Bag><rdf:li>Chamestudio</rdf:li></rdf:Bag></dc:creator></rdf:Description></rdf:RDF></metadata></svg>