<?xml version="1.0" encoding="utf-8"?>
<!DOCTYPE svg PUBLIC "-//W3C//DTD SVG 1.0//EN" "http://www.w3.org/TR/2001/REC-SVG-20010904/DTD/svg10.dtd">
<svg xmlns="http://www.w3.org/2000/svg" xmlns:xlink="http://www.w3.org/1999/xlink" version="1.0" id="Layer_1" x="0px" y="0px" width="24px" height="24px" viewBox="0 0 24 24" enable-background="new 0 0 24 24" xml:space="preserve">
<g>
	<path fill="#010101" d="M10.089,18.034c-0.047,0-0.094-0.009-0.138-0.028c-0.153-0.065-0.238-0.229-0.205-0.392l1.018-4.98H8.503   c-0.109,0-0.213-0.052-0.279-0.139c-0.066-0.088-0.087-0.201-0.058-0.307l1.699-5.967c0.043-0.15,0.181-0.254,0.337-0.254h4.332   c0.13,0,0.25,0.073,0.311,0.188c0.06,0.116,0.051,0.255-0.023,0.362l-2.137,3.069h2.813c0.131,0,0.25,0.073,0.311,0.188   c0.061,0.115,0.051,0.255-0.023,0.362l-5.408,7.748C10.309,17.98,10.2,18.034,10.089,18.034z M8.967,11.933h2.226   c0.105,0,0.205,0.047,0.271,0.129c0.066,0.081,0.093,0.188,0.071,0.291l-0.765,3.742l4.056-5.81h-2.812   c-0.13,0-0.25-0.073-0.311-0.188c-0.06-0.116-0.051-0.255,0.023-0.362l2.137-3.069h-3.397L8.967,11.933z"/>
</g>

	
	
	<metadata>
		<rdf:RDF xmlns:rdf="http://www.w3.org/1999/02/22-rdf-syntax-ns#" xmlns:rdfs="http://www.w3.org/2000/01/rdf-schema#" xmlns:dc="http://purl.org/dc/elements/1.1/">
			<rdf:Description about="https://iconscout.com/legal#licenses" dc:title="Weather, Thunder, Forecast, Storm, Crash, Electricity, Lightning" dc:description="Weather, Thunder, Forecast, Storm, Crash, Electricity, Lightning" dc:publisher="Iconscout" dc:date="2016-12-14" dc:format="image/svg+xml" dc:language="en">
				<dc:creator>
					<rdf:Bag>
						<rdf:li>Chamestudio</rdf:li>
					</rdf:Bag>
				</dc:creator>
			</rdf:Description>
		</rdf:RDF>
    </metadata></svg>
