<svg xmlns="http://www.w3.org/2000/svg" xmlns:xlink="http://www.w3.org/1999/xlink" id="Layer_1" width="24" height="24" x="0" y="0" enable-background="new 0 0 24 24" version="1.0" viewBox="0 0 24 24" xml:space="preserve"><g><g><path fill="#010101" d="M13.303,15.587c-0.193,0-0.35-0.157-0.35-0.35s0.157-0.35,0.35-0.35h3.652 c1.288-0.073,2.312-1.162,2.312-2.477c0-1.39-1.078-2.478-2.454-2.478c-0.176,0-0.326,0.026-0.477,0.051 c-0.099,0.019-0.206-0.011-0.285-0.078c-0.079-0.067-0.125-0.164-0.125-0.267c0-0.122,0.017-0.235,0.034-0.344 c0.011-0.066,0.022-0.129,0.022-0.193c0-2.13-1.736-3.863-3.87-3.863c-2.118,0-3.841,1.733-3.841,3.863 c0,0.028,0.006,0.06,0.011,0.092C8.292,9.261,8.3,9.328,8.3,9.385c0,0.102-0.044,0.198-0.121,0.265 C8.103,9.716,8.001,9.746,7.901,9.731C7.683,9.7,7.54,9.678,7.355,9.678c-1.421,0-2.623,1.186-2.623,2.59 c0,1.35,1.044,2.465,2.428,2.592c0.037,0.003,0.073,0.013,0.106,0.027h2.156c0.193,0,0.35,0.157,0.35,0.35s-0.157,0.35-0.35,0.35 H7.157c-0.054,0-0.108-0.015-0.157-0.04c-1.698-0.203-2.967-1.596-2.967-3.279c0-1.784,1.521-3.291,3.323-3.291 c0.078,0,0.149,0.003,0.218,0.008c0.061-2.463,2.074-4.447,4.54-4.447c2.52,0,4.57,2.047,4.57,4.563 c0,0.044-0.003,0.089-0.008,0.134c0.045-0.002,0.091-0.004,0.138-0.004c1.769,0,3.154,1.396,3.154,3.178 c0,1.687-1.314,3.082-2.992,3.177L13.303,15.587z"/></g><g><path fill="#010101" d="M10.527,19.461c-0.046,0-0.092-0.009-0.137-0.028c-0.153-0.065-0.24-0.229-0.206-0.393l0.707-3.454H9.395 c-0.109,0-0.212-0.051-0.278-0.138c-0.066-0.087-0.088-0.2-0.059-0.305l1.189-4.298c0.042-0.152,0.18-0.257,0.337-0.257h3.087 c0.13,0,0.249,0.072,0.31,0.187s0.053,0.254-0.021,0.361l-1.408,2.054h1.799c0.13,0,0.249,0.072,0.31,0.187 c0.061,0.115,0.053,0.254-0.021,0.361l-3.823,5.57C10.749,19.407,10.64,19.461,10.527,19.461z M9.854,14.887h1.466 c0.105,0,0.205,0.047,0.271,0.129s0.093,0.188,0.072,0.292l-0.446,2.181l2.469-3.597h-1.799c-0.13,0-0.249-0.072-0.31-0.187 s-0.053-0.254,0.021-0.361l1.408-2.054H10.85L9.854,14.887z"/></g></g><metadata><rdf:RDF xmlns:dc="http://purl.org/dc/elements/1.1/" xmlns:rdf="http://www.w3.org/1999/02/22-rdf-syntax-ns#" xmlns:rdfs="http://www.w3.org/2000/01/rdf-schema#"><rdf:Description about="https://iconscout.com/legal#licenses" dc:date="2016-12-14" dc:description="Weather, Thunder, Forecast, Cloud, Light, Cloudy, Lightning" dc:format="image/svg+xml" dc:language="en" dc:publisher="Iconscout" dc:title="Weather, Thunder, Forecast, Cloud, Light, Cloudy, Lightning"><dc:creator><rdf:Bag><rdf:li>Chamestudio</rdf:li></rdf:Bag></dc:creator></rdf:Description></rdf:RDF></metadata></svg>