<svg xmlns="http://www.w3.org/2000/svg" xmlns:xlink="http://www.w3.org/1999/xlink" id="Layer_1" width="24" height="24" x="0" y="0" enable-background="new 0 0 24 24" version="1.0" viewBox="0 0 24 24" xml:space="preserve"><g><g><path fill="#010101" d="M16.956,13.99H7.158c-0.054,0-0.108-0.015-0.157-0.04c-1.699-0.203-2.968-1.584-2.968-3.251 c0-1.83,1.491-3.319,3.324-3.319c0.078,0,0.149,0.003,0.218,0.008c0.062-2.463,2.074-4.447,4.54-4.447 c2.52,0,4.569,2.047,4.569,4.563c0,0.045-0.003,0.09-0.007,0.134c0.046-0.002,0.091-0.004,0.139-0.004 c1.769,0,3.154,1.396,3.154,3.178c0,1.685-1.314,3.08-2.992,3.177C16.969,13.99,16.962,13.99,16.956,13.99z M7.268,13.29h9.678 c1.303-0.08,2.322-1.167,2.322-2.478c0-1.389-1.078-2.478-2.454-2.478c-0.158,0-0.296,0.021-0.45,0.043 c-0.112,0.014-0.255-0.018-0.333-0.097c-0.078-0.08-0.146-0.188-0.128-0.298l0.034-0.177c0.022-0.109,0.046-0.221,0.046-0.303 c0-2.13-1.736-3.863-3.869-3.863c-2.118,0-3.841,1.733-3.841,3.863c0,0.027,0.006,0.059,0.011,0.091 C8.292,7.663,8.301,7.73,8.301,7.787c0,0.102-0.044,0.198-0.121,0.265C8.103,8.118,8.001,8.146,7.901,8.134 C7.684,8.102,7.541,8.081,7.356,8.081c-1.447,0-2.624,1.175-2.624,2.619c0,1.312,1.067,2.438,2.429,2.564 C7.199,13.267,7.234,13.276,7.268,13.29z"/></g><g><path fill="#010101" d="M16.021,19.334c-0.977,0-1.849-0.663-2.12-1.611c-0.053-0.186,0.054-0.379,0.24-0.433 c0.185-0.054,0.379,0.054,0.433,0.24c0.186,0.65,0.781,1.104,1.447,1.104c0.822,0,1.491-0.667,1.491-1.488 s-0.668-1.488-1.491-1.488H7.186c-0.193,0-0.35-0.157-0.35-0.35s0.157-0.35,0.35-0.35h8.835c1.208,0,2.191,0.981,2.191,2.188 S17.229,19.334,16.021,19.334z"/></g><g><path fill="#010101" d="M11.037,21.059c-1.012,0-1.885-0.667-2.123-1.622c-0.047-0.188,0.067-0.377,0.254-0.424 c0.189-0.045,0.378,0.067,0.424,0.254c0.161,0.643,0.755,1.092,1.444,1.092c0.822,0,1.491-0.667,1.491-1.488 s-0.668-1.488-1.491-1.488H7.299c-0.193,0-0.35-0.157-0.35-0.35s0.157-0.35,0.35-0.35h3.738c1.208,0,2.191,0.981,2.191,2.188 S12.245,21.059,11.037,21.059z"/></g></g><metadata><rdf:RDF xmlns:dc="http://purl.org/dc/elements/1.1/" xmlns:rdf="http://www.w3.org/1999/02/22-rdf-syntax-ns#" xmlns:rdfs="http://www.w3.org/2000/01/rdf-schema#"><rdf:Description about="https://iconscout.com/legal#licenses" dc:date="2016-12-14" dc:description="Weather, Storm, Forecast, Cloud, Wind, Cloudy, Lightning" dc:format="image/svg+xml" dc:language="en" dc:publisher="Iconscout" dc:title="Weather, Storm, Forecast, Cloud, Wind, Cloudy, Lightning"><dc:creator><rdf:Bag><rdf:li>Chamestudio</rdf:li></rdf:Bag></dc:creator></rdf:Description></rdf:RDF></metadata></svg>