<svg xmlns="http://www.w3.org/2000/svg" xmlns:xlink="http://www.w3.org/1999/xlink" id="Layer_1" width="24" height="24" x="0" y="0" enable-background="new 0 0 24 24" version="1.0" viewBox="0 0 24 24" xml:space="preserve"><g><g><path fill="#010101" d="M9.961,17.249c-0.823,0-1.651-0.193-2.413-0.59c-0.679-0.354-1.26-0.833-1.727-1.424 c-0.087-0.109-0.1-0.26-0.033-0.383s0.19-0.192,0.339-0.183c1.877,0.167,3.642-0.779,4.47-2.411 c0.843-1.578,0.656-3.514-0.472-4.939c-0.087-0.109-0.1-0.261-0.033-0.384s0.213-0.199,0.339-0.182 c0.662,0.061,1.336,0.27,1.949,0.606c1.373,0.686,2.369,1.968,2.722,3.51c0.044,0.188-0.074,0.376-0.263,0.419 c-0.189,0.053-0.376-0.075-0.419-0.263c-0.307-1.338-1.168-2.448-2.364-3.046c-0.293-0.16-0.596-0.287-0.902-0.377 c0.857,1.54,0.899,3.414,0.064,4.979c-0.83,1.634-2.466,2.675-4.306,2.795c0.288,0.257,0.608,0.479,0.96,0.661 c1.713,0.894,3.816,0.597,5.232-0.737c0.142-0.132,0.361-0.127,0.495,0.015c0.133,0.141,0.126,0.362-0.015,0.495 C12.581,16.756,11.276,17.249,9.961,17.249z"/></g><g><path fill="#010101" d="M16.687,15.849h-4.418c-0.908-0.074-1.596-0.799-1.596-1.65c0-0.867,0.736-1.604,1.627-1.646 c0.118-1.113,1.063-1.982,2.207-1.982c1.197,0,2.18,0.929,2.243,2.096c0.84,0.061,1.504,0.75,1.504,1.59 c0,0.858-0.682,1.559-1.554,1.594C16.696,15.849,16.691,15.849,16.687,15.849z M12.382,13.249c-0.547,0-1.01,0.435-1.01,0.949 c0,0.482,0.415,0.909,0.926,0.952l4.381-0.001c0.491-0.023,0.876-0.415,0.876-0.895c0-0.493-0.415-0.895-0.925-0.895 c-0.06,0-0.111,0-0.141,0.011c-0.124,0.044-0.266,0.011-0.36-0.082c-0.095-0.094-0.128-0.232-0.086-0.358 c0.011-0.033,0.011-0.085,0.011-0.145c0-0.837-0.694-1.518-1.547-1.518c-0.823,0-1.52,0.695-1.52,1.518v0.141 c0,0.111-0.053,0.217-0.143,0.282c-0.091,0.066-0.206,0.084-0.313,0.052C12.497,13.249,12.446,13.249,12.382,13.249z"/></g></g><metadata><rdf:RDF xmlns:dc="http://purl.org/dc/elements/1.1/" xmlns:rdf="http://www.w3.org/1999/02/22-rdf-syntax-ns#" xmlns:rdfs="http://www.w3.org/2000/01/rdf-schema#"><rdf:Description about="https://iconscout.com/legal#licenses" dc:date="2016-12-14" dc:description="Weather, Night, Half, Moon, Moonset, Cloud, Cloudy" dc:format="image/svg+xml" dc:language="en" dc:publisher="Iconscout" dc:title="Weather, Night, Half, Moon, Moonset, Cloud, Cloudy"><dc:creator><rdf:Bag><rdf:li>Chamestudio</rdf:li></rdf:Bag></dc:creator></rdf:Description></rdf:RDF></metadata></svg>