<?xml version="1.0" encoding="utf-8"?>
<!DOCTYPE svg PUBLIC "-//W3C//DTD SVG 1.0//EN" "http://www.w3.org/TR/2001/REC-SVG-20010904/DTD/svg10.dtd">
<svg xmlns="http://www.w3.org/2000/svg" xmlns:xlink="http://www.w3.org/1999/xlink" version="1.0" id="Layer_1" x="0px" y="0px" width="24px" height="24px" viewBox="0 0 24 24" enable-background="new 0 0 24 24" xml:space="preserve">
<g>
	<g>
		<path fill="#010101" d="M12.938,16.457c-0.977,0-1.891-0.375-2.573-1.056c-0.137-0.136-0.137-0.356-0.002-0.494l4.676-4.669    c0.137-0.135,0.357-0.134,0.493,0.001c1.41,1.407,1.412,3.721,0.003,5.159C14.833,16.083,13.913,16.457,12.938,16.457z     M11.121,15.137c1.119,0.876,2.877,0.783,3.919-0.234c1.053-1.074,1.13-2.762,0.229-3.908L11.121,15.137z"/>
	</g>
	<g>
		<path fill="#010101" d="M10.612,15.503C10.612,15.503,10.612,15.503,10.612,15.503c-0.095,0-0.185-0.038-0.25-0.105    c-1.409-1.438-1.407-3.752,0.003-5.159c0.68-0.694,1.595-1.078,2.573-1.078c0.977,0,1.898,0.383,2.594,1.078    c0.066,0.066,0.103,0.155,0.103,0.249c0,0.093-0.038,0.183-0.104,0.248l-4.669,4.663C10.795,15.466,10.706,15.503,10.612,15.503z     M12.938,9.862c-0.789,0-1.526,0.309-2.076,0.871c-1.058,1.055-1.135,2.739-0.234,3.907l4.145-4.14    C14.25,10.086,13.61,9.862,12.938,9.862z"/>
	</g>
	<g>
		<path fill="#010101" d="M12.934,8.152c-0.193,0-0.35-0.157-0.35-0.35V6.501c0-0.193,0.157-0.35,0.35-0.35s0.35,0.157,0.35,0.35    v1.301C13.284,7.995,13.127,8.152,12.934,8.152z"/>
	</g>
	<g>
		<path fill="#010101" d="M7.78,13.296H6.478c-0.193,0-0.35-0.157-0.35-0.35s0.157-0.35,0.35-0.35H7.78    c0.193,0,0.35,0.157,0.35,0.35S7.974,13.296,7.78,13.296z"/>
	</g>
	<g>
		<path fill="#010101" d="M9.31,9.65c-0.088,0-0.175-0.033-0.243-0.099L8.132,8.647C7.993,8.513,7.989,8.291,8.124,8.152    c0.133-0.14,0.356-0.144,0.495-0.008l0.935,0.904c0.139,0.134,0.143,0.356,0.008,0.495C9.493,9.614,9.401,9.65,9.31,9.65z"/>
	</g>
	<g>
		<path fill="#010101" d="M8.375,17.849c-0.091,0-0.183-0.036-0.251-0.107c-0.134-0.139-0.131-0.36,0.008-0.495l0.935-0.904    c0.138-0.135,0.359-0.132,0.495,0.008c0.134,0.139,0.131,0.36-0.008,0.495L8.618,17.75C8.55,17.816,8.463,17.849,8.375,17.849z"/>
	</g>
	<g>
		<path fill="#010101" d="M9.196,17.058c-0.09,0-0.179-0.034-0.248-0.103c-0.137-0.137-0.137-0.358,0-0.495l8.326-8.313    c0.136-0.137,0.358-0.137,0.495,0c0.137,0.137,0.137,0.358,0,0.495l-8.326,8.313C9.375,17.024,9.286,17.058,9.196,17.058z"/>
	</g>
</g>

	
	
	<metadata>
		<rdf:RDF xmlns:rdf="http://www.w3.org/1999/02/22-rdf-syntax-ns#" xmlns:rdfs="http://www.w3.org/2000/01/rdf-schema#" xmlns:dc="http://purl.org/dc/elements/1.1/">
			<rdf:Description about="https://iconscout.com/legal#licenses" dc:title="Weather, Sun, Sunrise, Sunset, Day, Night, Daynight" dc:description="Weather, Sun, Sunrise, Sunset, Day, Night, Daynight" dc:publisher="Iconscout" dc:date="2016-12-14" dc:format="image/svg+xml" dc:language="en">
				<dc:creator>
					<rdf:Bag>
						<rdf:li>Chamestudio</rdf:li>
					</rdf:Bag>
				</dc:creator>
			</rdf:Description>
		</rdf:RDF>
    </metadata></svg>
