<svg xmlns="http://www.w3.org/2000/svg" xmlns:xlink="http://www.w3.org/1999/xlink" id="Layer_1" width="24" height="24" x="0" y="0" enable-background="new 0 0 24 24" version="1.0" viewBox="0 0 24 24" xml:space="preserve"><g><g><path fill="#010101" d="M6.591,10.795c-0.091,0-0.182-0.035-0.25-0.105C4.933,9.253,4.934,6.939,6.344,5.532 c1.416-1.416,3.658-1.444,5.104-0.062c0.14,0.133,0.145,0.355,0.011,0.495c-0.132,0.141-0.354,0.146-0.495,0.011 c-1.169-1.117-2.98-1.094-4.126,0.051C5.699,7.164,5.7,9.036,6.841,10.2c0.135,0.138,0.133,0.36-0.005,0.495 C6.768,10.762,6.68,10.795,6.591,10.795z"/></g><g><path fill="#010101" d="M6.902,3.868c-0.136,0-0.265-0.08-0.322-0.212L6.07,2.468c-0.076-0.178,0.006-0.384,0.184-0.46 c0.175-0.076,0.383,0.005,0.46,0.184l0.51,1.188C7.3,3.557,7.218,3.763,7.04,3.839C6.995,3.858,6.948,3.868,6.902,3.868z"/></g><g><path fill="#010101" d="M2.995,11.134c-0.136,0-0.265-0.08-0.322-0.212c-0.076-0.178,0.006-0.383,0.184-0.459l1.189-0.509 c0.178-0.076,0.384,0.006,0.459,0.184c0.076,0.178-0.006,0.383-0.184,0.459l-1.189,0.509C3.087,11.125,3.041,11.134,2.995,11.134z"/></g><g><path fill="#010101" d="M4.156,6.667c-0.043,0-0.086-0.008-0.128-0.024L2.81,6.162C2.63,6.09,2.542,5.887,2.612,5.708 C2.683,5.527,2.888,5.44,3.066,5.51l1.218,0.48c0.18,0.071,0.268,0.274,0.197,0.454C4.427,6.583,4.295,6.667,4.156,6.667z"/></g><g><path fill="#010101" d="M10.838,3.811c-0.043,0-0.086-0.008-0.129-0.025c-0.18-0.071-0.268-0.274-0.196-0.454l0.481-1.216 c0.071-0.179,0.274-0.267,0.454-0.196c0.18,0.071,0.268,0.274,0.196,0.454L11.164,3.59C11.109,3.727,10.978,3.811,10.838,3.811z"/></g><g><path fill="#010101" d="M18.371,15.772H8.574c-0.053,0-0.105-0.014-0.154-0.038c-1.659-0.175-2.944-1.586-2.944-3.253 c0-1.814,1.492-3.291,3.325-3.291c0.07,0,0.142,0,0.217,0.003c0.049-2.474,2.066-4.471,4.539-4.471 c2.504,0,4.542,2.047,4.542,4.563c0,0.047-0.001,0.092-0.004,0.136c0.047-0.003,0.092-0.005,0.136-0.005 c1.754,0,3.182,1.425,3.182,3.177c0,1.718-1.33,3.114-3.028,3.178C18.379,15.772,18.375,15.772,18.371,15.772z M8.8,9.89 c-1.447,0-2.625,1.162-2.625,2.59c0,1.336,1.052,2.463,2.395,2.564c0.04,0.003,0.077,0.013,0.112,0.027h9.681 c1.317-0.053,2.348-1.14,2.348-2.478c0-1.366-1.113-2.477-2.482-2.477c-0.152,0-0.33,0.026-0.481,0.052 c-0.112,0.019-0.226-0.018-0.306-0.099c-0.08-0.08-0.116-0.194-0.097-0.306c0.026-0.151,0.051-0.302,0.051-0.479 c0-2.13-1.723-3.863-3.841-3.863c-2.117,0-3.839,1.733-3.839,3.863c0,0.108,0,0.16,0.018,0.229 C9.764,9.636,9.726,9.763,9.636,9.85c-0.09,0.086-0.22,0.118-0.339,0.083C9.147,9.89,8.979,9.89,8.8,9.89z"/></g><g><path fill="#010101" d="M9.337,18.966c-0.193,0-0.35-0.157-0.35-0.35v-1.64c0-0.193,0.157-0.35,0.35-0.35s0.35,0.157,0.35,0.35 v1.64C9.688,18.81,9.531,18.966,9.337,18.966z"/></g><g><path fill="#010101" d="M11.122,22.105c-0.193,0-0.35-0.157-0.35-0.35v-1.64c0-0.193,0.157-0.35,0.35-0.35s0.35,0.157,0.35,0.35 v1.64C11.472,21.948,11.315,22.105,11.122,22.105z"/></g><g><path fill="#010101" d="M12.906,18.966c-0.193,0-0.35-0.157-0.35-0.35v-1.64c0-0.193,0.157-0.35,0.35-0.35s0.35,0.157,0.35,0.35 v1.64C13.256,18.81,13.099,18.966,12.906,18.966z"/></g><g><path fill="#010101" d="M14.689,22.105c-0.193,0-0.35-0.157-0.35-0.35v-1.64c0-0.193,0.157-0.35,0.35-0.35s0.35,0.157,0.35,0.35 v1.64C15.039,21.948,14.882,22.105,14.689,22.105z"/></g><g><path fill="#010101" d="M16.474,18.966c-0.193,0-0.35-0.157-0.35-0.35v-1.64c0-0.193,0.157-0.35,0.35-0.35s0.35,0.157,0.35,0.35 v1.64C16.824,18.81,16.667,18.966,16.474,18.966z"/></g><g><path fill="#010101" d="M18.257,22.105c-0.193,0-0.35-0.157-0.35-0.35v-1.64c0-0.193,0.157-0.35,0.35-0.35s0.35,0.157,0.35,0.35 v1.64C18.607,21.948,18.451,22.105,18.257,22.105z"/></g></g><metadata><rdf:RDF xmlns:dc="http://purl.org/dc/elements/1.1/" xmlns:rdf="http://www.w3.org/1999/02/22-rdf-syntax-ns#" xmlns:rdfs="http://www.w3.org/2000/01/rdf-schema#"><rdf:Description about="https://iconscout.com/legal#licenses" dc:date="2016-12-14" dc:description="Weather, Thunder, Forecast, Cloud, Partlysun, Cloudy, Rain" dc:format="image/svg+xml" dc:language="en" dc:publisher="Iconscout" dc:title="Weather, Thunder, Forecast, Cloud, Partlysun, Cloudy, Rain"><dc:creator><rdf:Bag><rdf:li>Chamestudio</rdf:li></rdf:Bag></dc:creator></rdf:Description></rdf:RDF></metadata></svg>