<?xml version="1.0" encoding="utf-8"?>
<!DOCTYPE svg PUBLIC "-//W3C//DTD SVG 1.0//EN" "http://www.w3.org/TR/2001/REC-SVG-20010904/DTD/svg10.dtd">
<svg xmlns="http://www.w3.org/2000/svg" xmlns:xlink="http://www.w3.org/1999/xlink" version="1.0" id="Layer_1" x="0px" y="0px" width="24px" height="24px" viewBox="0 0 24 24" enable-background="new 0 0 24 24" xml:space="preserve">
<g>
	<path fill="#010101" d="M12,16.139c-1.849,0-3.352-1.514-3.352-3.375c0-0.808,0.283-1.57,0.818-2.205l2.272-2.582   C11.806,7.903,11.9,7.861,12,7.861c0.065,0.017,0.198,0.044,0.265,0.122l2.092,2.371c0.023,0.025,0.042,0.054,0.057,0.085   c0.598,0.62,0.938,1.463,0.938,2.325C15.352,14.625,13.849,16.139,12,16.139z M11.995,8.741l-1.997,2.273   c-0.424,0.503-0.65,1.109-0.65,1.75c0,1.475,1.19,2.675,2.652,2.675s2.652-1.2,2.652-2.675c0-0.699-0.283-1.381-0.776-1.873   c-0.026-0.026-0.052-0.065-0.074-0.108L11.995,8.741z"/>
</g>

	
	
	<metadata>
		<rdf:RDF xmlns:rdf="http://www.w3.org/1999/02/22-rdf-syntax-ns#" xmlns:rdfs="http://www.w3.org/2000/01/rdf-schema#" xmlns:dc="http://purl.org/dc/elements/1.1/">
			<rdf:Description about="https://iconscout.com/legal#licenses" dc:title="Weather, Thunder, Forecast, Drop, Drib, Nature, Blood" dc:description="Weather, Thunder, Forecast, Drop, Drib, Nature, Blood" dc:publisher="Iconscout" dc:date="2016-12-14" dc:format="image/svg+xml" dc:language="en">
				<dc:creator>
					<rdf:Bag>
						<rdf:li>Chamestudio</rdf:li>
					</rdf:Bag>
				</dc:creator>
			</rdf:Description>
		</rdf:RDF>
    </metadata></svg>
