<?xml version="1.0" encoding="utf-8"?>
<!DOCTYPE svg PUBLIC "-//W3C//DTD SVG 1.0//EN" "http://www.w3.org/TR/2001/REC-SVG-20010904/DTD/svg10.dtd">
<svg xmlns="http://www.w3.org/2000/svg" xmlns:xlink="http://www.w3.org/1999/xlink" version="1.0" id="Layer_1" x="0px" y="0px" width="24px" height="24px" viewBox="0 0 24 24" enable-background="new 0 0 24 24" xml:space="preserve">
<g>
	<g>
		<path fill="#010101" d="M7.38,17.638H7.097c-0.578,0-1.03-0.602-1.03-1.37V8.38c0-0.767,0.452-1.368,1.03-1.368H7.38    c0.587,0,1.03,0.588,1.03,1.368v7.889C8.41,17.049,7.967,17.638,7.38,17.638z M7.097,7.712c-0.131,0-0.33,0.266-0.33,0.667v7.889    c0,0.402,0.198,0.669,0.33,0.669H7.38c0.156,0,0.33-0.275,0.33-0.669V8.38c0-0.394-0.174-0.667-0.33-0.667H7.097z"/>
	</g>
	<g>
		<path fill="#010101" d="M10.41,14.753c-0.109,0-0.217-0.051-0.285-0.146l-2.35-3.281c-0.087-0.122-0.087-0.286,0-0.408l2.35-3.279    c0.113-0.156,0.331-0.192,0.489-0.081c0.157,0.113,0.193,0.332,0.081,0.489L8.49,11.122l2.204,3.078    c0.112,0.157,0.076,0.375-0.081,0.488C10.552,14.732,10.48,14.753,10.41,14.753z"/>
	</g>
	<g>
		<path fill="#010101" d="M10.636,14.781c-0.992,0-1.256-2.317-1.256-3.686c0-1.359,0.265-3.659,1.256-3.659    c1.014,0,1.285,2.3,1.285,3.659C11.921,12.464,11.65,14.781,10.636,14.781z M10.61,8.131c-0.109,0.096-0.53,1.09-0.53,2.963    c0,1.781,0.373,2.774,0.563,2.967c0.194-0.179,0.578-1.158,0.578-2.967C11.221,9.196,10.79,8.219,10.61,8.131z"/>
	</g>
	<g>
		<path fill="#010101" d="M10.636,14.781c-0.136,0-0.262-0.079-0.319-0.206c-0.064-0.142-0.026-0.31,0.093-0.411    c0.811-0.686,0.811-2.137,0.811-3.096c0-1.422-0.445-2.849-0.714-2.956c-0.165-0.066-0.254-0.246-0.208-0.417    c0.047-0.171,0.214-0.279,0.391-0.254l6.683,1.018c0.095,0.015,0.181,0.068,0.235,0.147c0.682,0.987,0.801,3.806,0.005,5.028    c-0.055,0.084-0.143,0.141-0.242,0.155l-6.683,0.988C10.67,14.779,10.653,14.781,10.636,14.781z M11.42,8.259    c0.364,0.851,0.501,2.133,0.501,2.808c0,0.833,0,1.99-0.473,2.89l5.654-0.836c0.536-1.023,0.408-3.198,0.001-3.996L11.42,8.259z"/>
	</g>
	<g>
		<path fill="#010101" d="M7.182,9.097c-0.74,0-1.341-0.614-1.341-1.368s0.602-1.368,1.341-1.368c0.755,0,1.369,0.614,1.369,1.368    S7.937,9.097,7.182,9.097z M7.182,7.062c-0.354,0-0.641,0.299-0.641,0.667s0.288,0.667,0.641,0.667    c0.375,0,0.669-0.293,0.669-0.667S7.557,7.062,7.182,7.062z"/>
	</g>
	<g>
		<path fill="#010101" d="M15.677,13.933c-0.193,0-0.35-0.157-0.35-0.35s0.157-0.35,0.35-0.35c0.053-0.087,0.301-0.833,0.301-2.138    c0-1.271-0.252-2.028-0.38-2.133c-0.193,0-0.311-0.146-0.311-0.339c0-0.193,0.196-0.339,0.39-0.339    c0.953,0,1.001,2.342,1.001,2.811C16.678,11.761,16.606,13.933,15.677,13.933z"/>
	</g>
	<g>
		<path fill="#010101" d="M14.006,14.273c-0.193,0-0.35-0.157-0.35-0.35s0.157-0.35,0.35-0.35c0.113-0.077,0.471-0.912,0.471-2.478    c0-1.546-0.358-2.372-0.507-2.456c-0.193,0-0.332-0.153-0.332-0.346c0-0.193,0.175-0.347,0.368-0.347    c0.925,0,1.171,1.979,1.171,3.149C15.177,12.561,14.871,14.273,14.006,14.273z"/>
	</g>
	<g>
		<path fill="#010101" d="M12.364,14.5c-0.193,0-0.35-0.157-0.35-0.35s0.157-0.35,0.35-0.35c0.151-0.071,0.556-0.955,0.556-2.705    c0-1.729-0.405-2.605-0.574-2.678c-0.193,0-0.341-0.155-0.341-0.349s0.166-0.349,0.359-0.349c0.992,0,1.256,2.122,1.256,3.375    C13.62,12.666,13.291,14.5,12.364,14.5z"/>
	</g>
</g>

	
	
	<metadata>
		<rdf:RDF xmlns:rdf="http://www.w3.org/1999/02/22-rdf-syntax-ns#" xmlns:rdfs="http://www.w3.org/2000/01/rdf-schema#" xmlns:dc="http://purl.org/dc/elements/1.1/">
			<rdf:Description about="https://iconscout.com/legal#licenses" dc:title="Weather, Wind, Forecast, Windy, Device, Storm, Technology" dc:description="Weather, Wind, Forecast, Windy, Device, Storm, Technology" dc:publisher="Iconscout" dc:date="2016-12-14" dc:format="image/svg+xml" dc:language="en">
				<dc:creator>
					<rdf:Bag>
						<rdf:li>Chamestudio</rdf:li>
					</rdf:Bag>
				</dc:creator>
			</rdf:Description>
		</rdf:RDF>
    </metadata></svg>
