<?xml version="1.0" encoding="utf-8"?>
<!DOCTYPE svg PUBLIC "-//W3C//DTD SVG 1.0//EN" "http://www.w3.org/TR/2001/REC-SVG-20010904/DTD/svg10.dtd">
<svg xmlns="http://www.w3.org/2000/svg" xmlns:xlink="http://www.w3.org/1999/xlink" version="1.0" id="Layer_1" x="0px" y="0px" width="24px" height="24px" viewBox="0 0 24 24" enable-background="new 0 0 24 24" xml:space="preserve">
<g>
	<g>
		<path fill="#010101" d="M15.965,13.848H6.167c-0.054,0-0.107-0.014-0.156-0.039c-1.684-0.202-2.941-1.596-2.941-3.28    c0-1.814,1.479-3.291,3.295-3.291c0.078,0,0.149,0.003,0.217,0.008c0.062-2.462,2.087-4.447,4.568-4.447    c2.504,0,4.542,2.047,4.542,4.563c0,0.045-0.002,0.09-0.005,0.135c0.044-0.002,0.089-0.004,0.136-0.004    c1.768,0,3.153,1.396,3.153,3.177c0,1.688-1.314,3.083-2.992,3.177C15.978,13.848,15.971,13.848,15.965,13.848z M6.274,13.148    h9.68c1.303-0.078,2.321-1.164,2.321-2.477c0-1.389-1.077-2.477-2.453-2.477c-0.177,0-0.329,0.025-0.48,0.051    c-0.109,0.02-0.222-0.017-0.302-0.095s-0.118-0.19-0.102-0.3c0.033-0.222,0.053-0.354,0.053-0.487c0-2.13-1.723-3.863-3.841-3.863    c-2.134,0-3.87,1.733-3.87,3.863c0,0.028,0.006,0.06,0.011,0.092c0.009,0.067,0.018,0.134,0.018,0.191    c0,0.102-0.044,0.198-0.121,0.265C7.111,7.977,7.007,8.005,6.91,7.992C6.691,7.96,6.549,7.939,6.365,7.939    c-1.431,0-2.595,1.162-2.595,2.59c0,1.352,1.032,2.466,2.401,2.593C6.208,13.125,6.242,13.134,6.274,13.148z"/>
	</g>
	<g>
		<path fill="#010101" d="M18.711,19.475c-0.986,0-1.858-0.664-2.121-1.613c-0.051-0.187,0.058-0.379,0.244-0.431    c0.187-0.052,0.379,0.058,0.431,0.244c0.182,0.658,0.763,1.1,1.446,1.1c0.852,0,1.519-0.653,1.519-1.488s-0.667-1.488-1.519-1.488    h-6.428c-0.193,0-0.35-0.157-0.35-0.35s0.157-0.35,0.35-0.35h6.428c1.244,0,2.219,0.961,2.219,2.188S19.955,19.475,18.711,19.475z    "/>
	</g>
	<g>
		<path fill="#010101" d="M13.728,21.201c-0.977,0-1.849-0.663-2.121-1.611c-0.053-0.186,0.054-0.379,0.24-0.433    c0.187-0.054,0.379,0.054,0.433,0.24c0.186,0.65,0.781,1.104,1.448,1.104c0.822,0,1.491-0.667,1.491-1.488    s-0.668-1.488-1.491-1.488h-1.331c-0.193,0-0.35-0.157-0.35-0.35s0.157-0.35,0.35-0.35h1.331c1.208,0,2.191,0.981,2.191,2.188    S14.936,21.201,13.728,21.201z"/>
	</g>
	<g>
		<path fill="#010101" d="M5.063,16.958c-0.09,0-0.179-0.034-0.248-0.103c-0.137-0.137-0.137-0.358,0-0.495l1.161-1.159    c0.137-0.137,0.358-0.137,0.495,0c0.137,0.137,0.137,0.358,0,0.495L5.31,16.856C5.241,16.924,5.152,16.958,5.063,16.958z"/>
	</g>
	<g>
		<path fill="#010101" d="M7.214,16.958c-0.09,0-0.179-0.034-0.248-0.103c-0.137-0.137-0.137-0.358,0-0.495l1.161-1.159    c0.137-0.137,0.358-0.137,0.495,0c0.137,0.137,0.137,0.358,0,0.495l-1.161,1.159C7.393,16.924,7.303,16.958,7.214,16.958z"/>
	</g>
	<g>
		<path fill="#010101" d="M9.366,16.958c-0.09,0-0.179-0.034-0.248-0.103c-0.137-0.137-0.137-0.358,0-0.495l1.161-1.159    c0.137-0.137,0.358-0.137,0.495,0c0.137,0.137,0.137,0.358,0,0.495l-1.161,1.159C9.545,16.924,9.456,16.958,9.366,16.958z"/>
	</g>
	<g>
		<path fill="#010101" d="M4.213,19.843c-0.088,0-0.177-0.033-0.245-0.1c-0.138-0.135-0.141-0.357-0.006-0.495l1.133-1.159    c0.135-0.139,0.357-0.141,0.495-0.006c0.138,0.135,0.141,0.357,0.006,0.495l-1.133,1.159C4.395,19.808,4.304,19.843,4.213,19.843z    "/>
	</g>
	<g>
		<path fill="#010101" d="M6.365,19.843c-0.088,0-0.176-0.033-0.245-0.1c-0.138-0.135-0.141-0.357-0.006-0.495l1.132-1.159    c0.136-0.139,0.356-0.141,0.495-0.006c0.138,0.135,0.141,0.357,0.006,0.495l-1.132,1.159C6.547,19.808,6.456,19.843,6.365,19.843z    "/>
	</g>
</g>

	
	
	<metadata>
		<rdf:RDF xmlns:rdf="http://www.w3.org/1999/02/22-rdf-syntax-ns#" xmlns:rdfs="http://www.w3.org/2000/01/rdf-schema#" xmlns:dc="http://purl.org/dc/elements/1.1/">
			<rdf:Description about="https://iconscout.com/legal#licenses" dc:title="Weather, Rain, Forecast, Cloud, Wind, Cloudy, Lightning" dc:description="Weather, Rain, Forecast, Cloud, Wind, Cloudy, Lightning" dc:publisher="Iconscout" dc:date="2016-12-14" dc:format="image/svg+xml" dc:language="en">
				<dc:creator>
					<rdf:Bag>
						<rdf:li>Chamestudio</rdf:li>
					</rdf:Bag>
				</dc:creator>
			</rdf:Description>
		</rdf:RDF>
    </metadata></svg>
