<svg xmlns="http://www.w3.org/2000/svg" xmlns:xlink="http://www.w3.org/1999/xlink" id="Layer_1" width="24" height="24" x="0" y="0" enable-background="new 0 0 24 24" version="1.0" viewBox="0 0 24 24" xml:space="preserve"><g><g><path fill="#010101" d="M10.329,19.702H8.913c-0.193,0-0.35-0.157-0.35-0.35s0.157-0.35,0.35-0.35h1.416 c0.193,0,0.35,0.157,0.35,0.35S10.522,19.702,10.329,19.702z"/></g><g><path fill="#010101" d="M14.634,19.928h-1.388c-0.193,0-0.35-0.157-0.35-0.35s0.157-0.35,0.35-0.35h1.388 c0.193,0,0.35,0.157,0.35,0.35S14.827,19.928,14.634,19.928z"/></g><g><g><path fill="#010101" d="M13.331,14.415c-0.193,0-0.35-0.157-0.35-0.35s0.157-0.35,0.35-0.35h3.625 c1.309-0.075,2.311-1.14,2.311-2.478c0-1.366-1.1-2.477-2.453-2.477c-0.177,0-0.329,0.026-0.48,0.052 c-0.101,0.019-0.205-0.012-0.284-0.078c-0.079-0.066-0.124-0.164-0.124-0.267c0-0.1,0.015-0.2,0.031-0.304 c0.012-0.074,0.025-0.151,0.025-0.233c0-2.13-1.723-3.864-3.841-3.864c-2.133,0-3.869,1.733-3.869,3.864 c0,0.038,0.006,0.071,0.01,0.105c0.01,0.065,0.018,0.131,0.018,0.206c0,0.11-0.052,0.213-0.139,0.279 C8.075,8.585,7.961,8.608,7.855,8.576C7.704,8.533,7.566,8.533,7.356,8.533c-1.447,0-2.624,1.163-2.624,2.591 c0,1.359,1.042,2.461,2.423,2.563c0.04,0.003,0.078,0.013,0.112,0.027h2.466c0.193,0,0.35,0.157,0.35,0.35s-0.157,0.35-0.35,0.35 H7.158c-0.053,0-0.105-0.014-0.153-0.038c-1.675-0.174-2.972-1.584-2.972-3.252c0-1.815,1.491-3.292,3.324-3.292 c0.075,0,0.146,0,0.217,0.002c0.05-2.474,2.08-4.47,4.568-4.47c2.504,0,4.542,2.047,4.542,4.564c0,0.046-0.002,0.091-0.006,0.134 c0.044-0.002,0.09-0.004,0.138-0.004c1.738,0,3.153,1.425,3.153,3.177c0,1.715-1.286,3.081-2.992,3.178L13.331,14.415z"/></g><g><path fill="#010101" d="M7.64,17.383c-0.193,0-0.35-0.157-0.35-0.35v-1.386c0-0.193,0.157-0.35,0.35-0.35s0.35,0.157,0.35,0.35 v1.386C7.99,17.227,7.833,17.383,7.64,17.383z"/></g><g><path fill="#010101" d="M8.347,16.705H6.932c-0.193,0-0.35-0.157-0.35-0.35s0.157-0.35,0.35-0.35h1.415 c0.193,0,0.35,0.157,0.35,0.35S8.54,16.705,8.347,16.705z"/></g><g><path fill="#010101" d="M16.05,17.667c-0.193,0-0.35-0.157-0.35-0.35v-1.386c0-0.193,0.157-0.35,0.35-0.35s0.35,0.157,0.35,0.35 v1.386C16.4,17.51,16.243,17.667,16.05,17.667z"/></g><g><path fill="#010101" d="M16.758,16.988h-1.416c-0.193,0-0.35-0.157-0.35-0.35s0.157-0.35,0.35-0.35h1.416 c0.193,0,0.35,0.157,0.35,0.35S16.951,16.988,16.758,16.988z"/></g><g><path fill="#010101" d="M9.621,20.38c-0.193,0-0.35-0.157-0.35-0.35v-1.386c0-0.193,0.157-0.35,0.35-0.35s0.35,0.157,0.35,0.35 v1.386C9.971,20.224,9.814,20.38,9.621,20.38z"/></g><g><path fill="#010101" d="M13.954,20.635c-0.193,0-0.35-0.157-0.35-0.35v-1.414c0-0.193,0.157-0.35,0.35-0.35s0.35,0.157,0.35,0.35 v1.414C14.304,20.479,14.147,20.635,13.954,20.635z"/></g><g><path fill="#010101" d="M10.669,18.289c-0.046,0-0.092-0.009-0.137-0.028c-0.153-0.065-0.24-0.229-0.206-0.393l0.707-3.454H9.536 c-0.109,0-0.212-0.051-0.278-0.138c-0.066-0.087-0.088-0.2-0.059-0.305l1.189-4.298c0.042-0.152,0.18-0.257,0.337-0.257h3.087 c0.13,0,0.249,0.072,0.31,0.187s0.053,0.254-0.021,0.361l-1.408,2.054h1.799c0.13,0,0.249,0.072,0.31,0.187 c0.061,0.115,0.053,0.254-0.021,0.361l-3.823,5.57C10.891,18.234,10.781,18.289,10.669,18.289z M9.996,13.714h1.466 c0.105,0,0.205,0.047,0.271,0.129s0.093,0.188,0.072,0.292l-0.446,2.181l2.469-3.597h-1.799c-0.13,0-0.249-0.072-0.31-0.187 s-0.053-0.254,0.021-0.361l1.408-2.054h-2.156L9.996,13.714z"/></g></g></g><metadata><rdf:RDF xmlns:dc="http://purl.org/dc/elements/1.1/" xmlns:rdf="http://www.w3.org/1999/02/22-rdf-syntax-ns#" xmlns:rdfs="http://www.w3.org/2000/01/rdf-schema#"><rdf:Description about="https://iconscout.com/legal#licenses" dc:date="2016-12-14" dc:description="Weather, Thunder, Forecast, Snow, Wind, Cloudy, Lightning" dc:format="image/svg+xml" dc:language="en" dc:publisher="Iconscout" dc:title="Weather, Thunder, Forecast, Snow, Wind, Cloudy, Lightning"><dc:creator><rdf:Bag><rdf:li>Chamestudio</rdf:li></rdf:Bag></dc:creator></rdf:Description></rdf:RDF></metadata></svg>