<?xml version="1.0" encoding="utf-8"?>
<!DOCTYPE svg PUBLIC "-//W3C//DTD SVG 1.0//EN" "http://www.w3.org/TR/2001/REC-SVG-20010904/DTD/svg10.dtd">
<svg xmlns="http://www.w3.org/2000/svg" xmlns:xlink="http://www.w3.org/1999/xlink" version="1.0" id="Layer_1" x="0px" y="0px" width="24px" height="24px" viewBox="0 0 24 24" enable-background="new 0 0 24 24" xml:space="preserve">
<g>
	<path fill="#010101" d="M11.638,15.641C11.638,15.641,11.638,15.641,11.638,15.641c-0.574,0-1.148-0.138-1.662-0.399   c-0.364-0.194-0.863-0.525-1.205-1.017c-0.078-0.111-0.084-0.258-0.016-0.375c0.067-0.117,0.185-0.189,0.334-0.173   c1.188,0.104,2.337-0.515,2.887-1.566c0.53-1.01,0.41-2.261-0.306-3.187c-0.085-0.109-0.098-0.258-0.032-0.38   c0.065-0.121,0.178-0.198,0.334-0.184c0.414,0.03,0.881,0.169,1.35,0.404c0.864,0.439,1.502,1.195,1.798,2.13   c0.294,0.929,0.214,1.917-0.227,2.781C14.253,14.89,13.006,15.641,11.638,15.641z M9.872,14.353   c0.13,0.097,0.273,0.187,0.427,0.269c0.415,0.211,0.868,0.319,1.339,0.319c1.108,0,2.117-0.608,2.634-1.587   c0.354-0.695,0.419-1.495,0.181-2.248c-0.238-0.754-0.752-1.364-1.445-1.716c-0.113-0.056-0.225-0.106-0.335-0.149   c0.461,1.017,0.446,2.199-0.076,3.195C12.047,13.486,11.031,14.189,9.872,14.353z"/>
</g>

	
	
	<metadata>
		<rdf:RDF xmlns:rdf="http://www.w3.org/1999/02/22-rdf-syntax-ns#" xmlns:rdfs="http://www.w3.org/2000/01/rdf-schema#" xmlns:dc="http://purl.org/dc/elements/1.1/">
			<rdf:Description about="https://iconscout.com/legal#licenses" dc:title="Weather, Thunder, Forecast, Half, Moon, Night, Light" dc:description="Weather, Thunder, Forecast, Half, Moon, Night, Light" dc:publisher="Iconscout" dc:date="2016-12-14" dc:format="image/svg+xml" dc:language="en">
				<dc:creator>
					<rdf:Bag>
						<rdf:li>Chamestudio</rdf:li>
					</rdf:Bag>
				</dc:creator>
			</rdf:Description>
		</rdf:RDF>
    </metadata></svg>
