<svg xmlns="http://www.w3.org/2000/svg" xmlns:xlink="http://www.w3.org/1999/xlink" id="Layer_1" width="24" height="24" x="0" y="0" enable-background="new 0 0 24 24" version="1.0" viewBox="0 0 24 24" xml:space="preserve"><g><g><path fill="#010101" d="M11.957,11.036L11.957,11.036c-0.095,0-0.185-0.038-0.251-0.106L9.724,8.895 C9.589,8.756,9.592,8.535,9.73,8.4c0.14-0.135,0.359-0.133,0.495,0.006l1.731,1.778l1.788-1.834 c0.137-0.138,0.356-0.141,0.495-0.006c0.139,0.135,0.142,0.356,0.007,0.495l-2.039,2.092 C12.142,10.998,12.052,11.036,11.957,11.036z"/></g><g><path fill="#010101" d="M13.996,15.729c-0.09,0-0.181-0.035-0.249-0.104l-1.788-1.811l-1.733,1.781 c-0.134,0.139-0.355,0.142-0.495,0.007c-0.139-0.135-0.142-0.356-0.007-0.495l1.982-2.037c0.065-0.067,0.155-0.105,0.25-0.106 h0.001c0.094,0,0.184,0.038,0.249,0.104l2.039,2.064c0.136,0.138,0.135,0.359-0.003,0.495 C14.174,15.695,14.085,15.729,13.996,15.729z"/></g><g><path fill="#010101" d="M15.412,14.372c-0.088,0-0.176-0.033-0.244-0.099l-2.096-2.035c-0.067-0.066-0.105-0.156-0.105-0.251 s0.038-0.185,0.105-0.251l2.039-1.979c0.14-0.135,0.361-0.131,0.495,0.007c0.135,0.139,0.132,0.36-0.007,0.495l-1.78,1.728 l1.837,1.784c0.139,0.135,0.142,0.356,0.007,0.495C15.595,14.336,15.503,14.372,15.412,14.372z"/></g><g><path fill="#010101" d="M8.615,14.372c-0.091,0-0.181-0.035-0.249-0.104c-0.136-0.138-0.134-0.359,0.004-0.495l1.813-1.784 L8.4,10.259c-0.139-0.134-0.142-0.356-0.007-0.495c0.134-0.139,0.355-0.143,0.495-0.007l2.039,1.979 c0.067,0.065,0.105,0.156,0.105,0.25c0.001,0.095-0.037,0.185-0.104,0.251L8.86,14.271C8.793,14.338,8.704,14.372,8.615,14.372z"/></g><g><path fill="#010101" d="M11.984,16.579c-0.193,0-0.35-0.157-0.35-0.35V7.773c0-0.193,0.156-0.35,0.35-0.35s0.35,0.157,0.35,0.35 v8.455C12.334,16.422,12.178,16.579,11.984,16.579z"/></g><g><path fill="#010101" d="M11.984,8.915L11.984,8.915c-0.095,0-0.186-0.039-0.251-0.106L9.979,7 c-0.135-0.139-0.132-0.36,0.007-0.495c0.14-0.135,0.361-0.131,0.495,0.008l1.503,1.55l1.534-1.579 c0.136-0.139,0.356-0.141,0.495-0.007c0.139,0.135,0.142,0.356,0.007,0.495l-1.785,1.838C12.17,8.876,12.079,8.915,11.984,8.915z"/></g><g><path fill="#010101" d="M13.77,17.624c-0.091,0-0.183-0.036-0.251-0.106l-1.536-1.581l-1.503,1.526 c-0.135,0.138-0.357,0.139-0.494,0.004c-0.138-0.136-0.14-0.357-0.004-0.495l1.754-1.781c0.065-0.067,0.155-0.104,0.249-0.104 h0.001c0.095,0,0.185,0.039,0.25,0.106l1.785,1.838c0.135,0.139,0.132,0.36-0.007,0.495C13.945,17.59,13.857,17.624,13.77,17.624z"/></g><g><path fill="#010101" d="M16.232,12.366H7.766c-0.193,0-0.35-0.157-0.35-0.35s0.156-0.35,0.35-0.35h8.467 c0.193,0,0.35,0.157,0.35,0.35S16.426,12.366,16.232,12.366z"/></g><g><path fill="#010101" d="M17.281,14.118c-0.088,0-0.176-0.033-0.243-0.099l-1.842-1.781c-0.068-0.066-0.106-0.157-0.106-0.251 s0.038-0.186,0.106-0.251l1.813-1.754c0.138-0.135,0.359-0.131,0.495,0.008c0.134,0.139,0.13,0.36-0.009,0.495l-1.553,1.502 l1.582,1.53c0.139,0.134,0.143,0.356,0.009,0.495C17.464,14.082,17.373,14.118,17.281,14.118z"/></g><g><path fill="#010101" d="M6.719,14.118c-0.092,0-0.183-0.036-0.251-0.106c-0.135-0.139-0.132-0.361,0.008-0.495l1.582-1.532 L6.53,10.482c-0.138-0.136-0.14-0.357-0.005-0.495c0.138-0.136,0.359-0.139,0.495-0.004l1.783,1.754 c0.067,0.066,0.105,0.157,0.104,0.251c0,0.094-0.038,0.185-0.106,0.25l-1.84,1.781C6.895,14.085,6.807,14.118,6.719,14.118z"/></g></g><metadata><rdf:RDF xmlns:dc="http://purl.org/dc/elements/1.1/" xmlns:rdf="http://www.w3.org/1999/02/22-rdf-syntax-ns#" xmlns:rdfs="http://www.w3.org/2000/01/rdf-schema#"><rdf:Description about="https://iconscout.com/legal#licenses" dc:date="2016-12-14" dc:description="Weather, Snow, Flake, Snowflake, Sky, Winter, Forecast" dc:format="image/svg+xml" dc:language="en" dc:publisher="Iconscout" dc:title="Weather, Snow, Flake, Snowflake, Sky, Winter, Forecast"><dc:creator><rdf:Bag><rdf:li>Chamestudio</rdf:li></rdf:Bag></dc:creator></rdf:Description></rdf:RDF></metadata></svg>