<?xml version="1.0" encoding="utf-8"?>
<!DOCTYPE svg PUBLIC "-//W3C//DTD SVG 1.0//EN" "http://www.w3.org/TR/2001/REC-SVG-20010904/DTD/svg10.dtd">
<svg xmlns="http://www.w3.org/2000/svg" xmlns:xlink="http://www.w3.org/1999/xlink" version="1.0" id="Layer_1" x="0px" y="0px" width="24px" height="24px" viewBox="0 0 24 24" enable-background="new 0 0 24 24" xml:space="preserve">
<g>
	<g>
		<path fill="#010101" d="M12.389,15.789c-0.878,0-1.762-0.296-2.507-0.902c-1.653-1.401-1.876-3.88-0.501-5.529    c1.366-1.645,3.836-1.883,5.501-0.528c0.217,0.188,0.457,0.415,0.666,0.727c0.107,0.161,0.064,0.378-0.097,0.486    c-0.159,0.107-0.378,0.065-0.485-0.096c-0.13-0.194-0.29-0.368-0.534-0.581c-1.36-1.106-3.391-0.911-4.513,0.44    c-1.131,1.355-0.946,3.393,0.41,4.542c1.392,1.132,3.393,0.944,4.546-0.438c0.124-0.148,0.346-0.167,0.493-0.044    c0.148,0.124,0.168,0.345,0.044,0.493C14.625,15.302,13.513,15.789,12.389,15.789z"/>
	</g>
	<g>
		<path fill="#010101" d="M12.396,6.793c-0.193,0-0.35-0.157-0.35-0.35V5.029c0-0.193,0.156-0.35,0.35-0.35s0.35,0.157,0.35,0.35    v1.414C12.745,6.637,12.589,6.793,12.396,6.793z"/>
	</g>
	<g>
		<path fill="#010101" d="M12.396,19.321c-0.193,0-0.35-0.157-0.35-0.35v-1.387c0-0.193,0.156-0.35,0.35-0.35s0.35,0.157,0.35,0.35    v1.387C12.745,19.164,12.589,19.321,12.396,19.321z"/>
	</g>
	<g>
		<path fill="#010101" d="M6.817,12.364H5.401c-0.193,0-0.35-0.157-0.35-0.35s0.156-0.35,0.35-0.35h1.416    c0.193,0,0.35,0.157,0.35,0.35S7.011,12.364,6.817,12.364z"/>
	</g>
	<g>
		<path fill="#010101" d="M17.323,17.284c-0.09,0-0.179-0.034-0.247-0.103l-0.99-0.988c-0.137-0.136-0.138-0.358-0.001-0.495    c0.137-0.138,0.358-0.137,0.495,0l0.99,0.988c0.137,0.136,0.138,0.358,0.001,0.495C17.503,17.25,17.413,17.284,17.323,17.284z"/>
	</g>
	<g>
		<path fill="#010101" d="M8.433,8.405c-0.089,0-0.179-0.034-0.247-0.102L7.193,7.314C7.057,7.178,7.056,6.957,7.192,6.819    C7.329,6.684,7.55,6.682,7.688,6.818L8.68,7.807c0.137,0.137,0.138,0.358,0.001,0.495C8.612,8.37,8.522,8.405,8.433,8.405z"/>
	</g>
	<g>
		<path fill="#010101" d="M16.333,8.405c-0.09,0-0.18-0.034-0.248-0.103c-0.137-0.137-0.136-0.358,0.001-0.495l0.99-0.988    c0.137-0.137,0.358-0.137,0.495,0c0.137,0.137,0.136,0.358-0.001,0.495l-0.99,0.988C16.512,8.371,16.423,8.405,16.333,8.405z"/>
	</g>
	<g>
		<path fill="#010101" d="M18.173,14.512h-4.418c-0.063,0-0.124-0.017-0.175-0.047c-0.804-0.135-1.392-0.813-1.392-1.631    c0-0.884,0.711-1.609,1.602-1.649c0.133-1.099,1.082-1.953,2.23-1.953c1.174,0,2.138,0.915,2.214,2.069    c0.842,0.06,1.507,0.75,1.507,1.59c0,0.853-0.662,1.55-1.54,1.621C18.191,14.512,18.183,14.512,18.173,14.512z M13.891,13.812    h4.268c0.504-0.047,0.884-0.44,0.884-0.921c0-0.493-0.415-0.894-0.926-0.894c-0.133,0.019-0.193,0.027-0.254,0.027    c-0.112,0-0.218-0.054-0.283-0.145s-0.084-0.208-0.05-0.314c0.01-0.029,0.011-0.041,0.011-0.116c0-0.836-0.682-1.517-1.52-1.517    c-0.867,0-1.547,0.667-1.547,1.517v0.113c0,0.256-0.282,0.373-0.537,0.33c-0.007,0-0.014,0-0.02,0    c-0.599,0-1.029,0.423-1.029,0.941c0,0.508,0.377,0.909,0.896,0.952C13.821,13.789,13.857,13.798,13.891,13.812z"/>
	</g>
	<g>
		<path fill="#010101" d="M10.272,18.67H5.854c-0.065,0-0.126-0.018-0.178-0.049c-0.818-0.133-1.418-0.798-1.418-1.602    c0-0.883,0.709-1.606,1.598-1.649c0.119-1.112,1.077-1.982,2.236-1.982c1.188,0,2.164,0.916,2.241,2.069    c0.825,0.062,1.478,0.765,1.478,1.619c0,0.857-0.669,1.557-1.524,1.594C10.282,18.67,10.277,18.67,10.272,18.67z M5.995,17.97    h4.27c0.476-0.024,0.848-0.416,0.848-0.894c0-0.509-0.402-0.923-0.896-0.923c-0.13,0.02-0.192,0.029-0.255,0.029    c-0.193,0-0.35-0.157-0.35-0.35c0-0.069,0.01-0.126,0.021-0.183c0.008-0.894-0.672-1.561-1.539-1.561    c-0.868,0-1.549,0.667-1.549,1.517c0.012-0.014,0.029,0.037,0.029,0.113c0,0.193-0.156,0.35-0.35,0.35H5.94    c-0.541,0-0.982,0.426-0.982,0.951c0,0.492,0.389,0.88,0.925,0.923C5.922,17.945,5.96,17.955,5.995,17.97z"/>
	</g>
</g>

	
	
	<metadata>
		<rdf:RDF xmlns:rdf="http://www.w3.org/1999/02/22-rdf-syntax-ns#" xmlns:rdfs="http://www.w3.org/2000/01/rdf-schema#" xmlns:dc="http://purl.org/dc/elements/1.1/">
			<rdf:Description about="https://iconscout.com/legal#licenses" dc:title="Weather, Cloud, Clouds, Sunny, Sun, Cloudy, Forecast" dc:description="Weather, Cloud, Clouds, Sunny, Sun, Cloudy, Forecast" dc:publisher="Iconscout" dc:date="2016-12-14" dc:format="image/svg+xml" dc:language="en">
				<dc:creator>
					<rdf:Bag>
						<rdf:li>Chamestudio</rdf:li>
					</rdf:Bag>
				</dc:creator>
			</rdf:Description>
		</rdf:RDF>
    </metadata></svg>
