<svg xmlns="http://www.w3.org/2000/svg" xmlns:xlink="http://www.w3.org/1999/xlink" id="Layer_1" width="24" height="24" x="0" y="0" enable-background="new 0 0 24 24" version="1.0" viewBox="0 0 24 24" xml:space="preserve"><g><g><path fill="#010101" d="M7.002,13.581c-0.088,0-0.177-0.033-0.244-0.1c-0.698-0.682-1.083-1.594-1.083-2.569 S6.06,9.024,6.758,8.342c0.676-0.691,1.589-1.075,2.564-1.075h0.001c0.977,0,1.89,0.384,2.573,1.081 c0.135,0.138,0.133,0.36-0.005,0.495c-0.139,0.135-0.361,0.133-0.495-0.005c-0.551-0.562-1.286-0.871-2.073-0.871H9.322 c-0.786,0-1.521,0.309-2.07,0.87c-0.567,0.555-0.877,1.29-0.877,2.074s0.31,1.52,0.871,2.068c0.139,0.135,0.142,0.357,0.006,0.495 C7.184,13.545,7.093,13.581,7.002,13.581z"/></g><g><path fill="#010101" d="M7.398,6.625c-0.14,0-0.271-0.084-0.325-0.222l-0.48-1.216c-0.071-0.18,0.017-0.383,0.196-0.454 C6.97,4.662,7.173,4.75,7.243,4.93l0.48,1.216C7.795,6.326,7.707,6.529,7.527,6.6C7.484,6.617,7.441,6.625,7.398,6.625z"/></g><g><path fill="#010101" d="M3.35,13.806c-0.139,0-0.27-0.083-0.324-0.219c-0.072-0.179,0.014-0.383,0.193-0.456l1.189-0.48 c0.178-0.072,0.384,0.014,0.455,0.194C4.936,13.024,4.85,13.228,4.67,13.3l-1.189,0.48C3.438,13.798,3.394,13.806,3.35,13.806z"/></g><g><path fill="#010101" d="M4.566,9.367c-0.044,0-0.088-0.008-0.131-0.025l-1.189-0.48C3.066,8.788,2.98,8.584,3.053,8.405 c0.072-0.18,0.275-0.266,0.455-0.194l1.189,0.48c0.18,0.073,0.266,0.276,0.193,0.456C4.836,9.284,4.705,9.367,4.566,9.367z"/></g><g><path fill="#010101" d="M11.334,6.653c-0.046,0-0.093-0.009-0.138-0.028c-0.178-0.076-0.26-0.282-0.184-0.46l0.51-1.188 c0.076-0.177,0.282-0.259,0.459-0.184c0.178,0.076,0.26,0.282,0.184,0.46l-0.51,1.188C11.599,6.573,11.47,6.653,11.334,6.653z"/></g><g><path fill="#010101" d="M17.961,19.292H8.162c-0.058,0-0.114-0.015-0.165-0.042c-1.678-0.208-2.931-1.6-2.931-3.277 c0-1.814,1.49-3.291,3.322-3.291c0.073,0,0.146,0.003,0.218,0.009c0.061-2.463,2.074-4.449,4.54-4.449 c2.504,0,4.541,2.047,4.541,4.563c0,0.045-0.001,0.09-0.004,0.135c0.044-0.002,0.09-0.004,0.137-0.004 c1.754,0,3.18,1.425,3.18,3.177c0,1.687-1.326,3.082-3.02,3.177C17.974,19.291,17.968,19.292,17.961,19.292z M8.272,18.591h9.679 c1.318-0.079,2.35-1.165,2.35-2.477c0-1.366-1.113-2.477-2.48-2.477c-0.178,0-0.33,0.025-0.481,0.051 c-0.11,0.019-0.223-0.017-0.303-0.096c-0.08-0.078-0.117-0.19-0.102-0.301c0.031-0.204,0.054-0.345,0.054-0.486 c0-2.13-1.724-3.863-3.842-3.863s-3.842,1.733-3.842,3.863c0,0.044,0,0.137,0.011,0.169c0.037,0.115,0.013,0.244-0.064,0.336 c-0.077,0.092-0.197,0.139-0.315,0.125c-0.188-0.027-0.366-0.053-0.547-0.053c-1.446,0-2.623,1.162-2.623,2.59 c0,1.327,1.056,2.466,2.401,2.592C8.204,18.568,8.239,18.577,8.272,18.591z"/></g></g><metadata><rdf:RDF xmlns:dc="http://purl.org/dc/elements/1.1/" xmlns:rdf="http://www.w3.org/1999/02/22-rdf-syntax-ns#" xmlns:rdfs="http://www.w3.org/2000/01/rdf-schema#"><rdf:Description about="https://iconscout.com/legal#licenses" dc:date="2016-12-14" dc:description="Weather, Forecast, Cloud, Clouds, Cloudy, Sun, Partly, Sunny" dc:format="image/svg+xml" dc:language="en" dc:publisher="Iconscout" dc:title="Weather, Forecast, Cloud, Clouds, Cloudy, Sun, Partly, Sunny"><dc:creator><rdf:Bag><rdf:li>Chamestudio</rdf:li></rdf:Bag></dc:creator></rdf:Description></rdf:RDF></metadata></svg>