<svg xmlns="http://www.w3.org/2000/svg" xmlns:xlink="http://www.w3.org/1999/xlink" id="Layer_1" width="24" height="24" x="0" y="0" enable-background="new 0 0 24 24" version="1.0" viewBox="0 0 24 24" xml:space="preserve"><g><g><path fill="#010101" d="M11.589,17.892c-1.551,0-2.813-1.26-2.813-2.809c0-0.738,0.308-1.455,0.85-1.99V7.985 c0-0.868,0.858-1.877,1.963-1.877c1.09,0,1.936,1.009,1.936,1.877v5.108c0.542,0.535,0.85,1.251,0.85,1.99 C14.375,16.632,13.125,17.892,11.589,17.892z M11.589,6.808c-0.733,0-1.263,0.703-1.263,1.177v5.26c0,0.1-0.043,0.196-0.118,0.262 c-0.465,0.411-0.731,0.986-0.731,1.576c0,1.163,0.948,2.109,2.113,2.109c1.15,0,2.085-0.946,2.085-2.109 c0-0.59-0.267-1.165-0.731-1.576c-0.075-0.066-0.118-0.162-0.118-0.262v-5.26C12.825,7.522,12.294,6.808,11.589,6.808z"/></g><g><path fill="#010101" d="M11.532,14.47c-0.193,0-0.35-0.157-0.35-0.35V10.7c0-0.193,0.157-0.35,0.35-0.35s0.35,0.157,0.35,0.35 v3.42C11.882,14.313,11.726,14.47,11.532,14.47z"/></g><g><path fill="#010101" d="M11.561,16.308c-0.677,0-1.227-0.55-1.227-1.225c0-0.677,0.55-1.227,1.227-1.227 c0.673,0,1.2,0.539,1.2,1.227C12.76,15.77,12.233,16.308,11.561,16.308z M11.561,14.556c-0.291,0-0.527,0.236-0.527,0.527 c0,0.285,0.241,0.525,0.527,0.525c0.28,0,0.5-0.23,0.5-0.525C12.06,14.788,11.841,14.556,11.561,14.556z"/></g><g><path fill="#010101" d="M14.874,12.548h-1.671c-0.193,0-0.35-0.157-0.35-0.35s0.157-0.35,0.35-0.35h1.671 c0.193,0,0.35,0.157,0.35,0.35S15.067,12.548,14.874,12.548z"/></g><g><path fill="#010101" d="M14.874,10.937h-1.671c-0.193,0-0.35-0.157-0.35-0.35s0.157-0.35,0.35-0.35h1.671 c0.193,0,0.35,0.157,0.35,0.35S15.067,10.937,14.874,10.937z"/></g><g><path fill="#010101" d="M14.874,9.269h-1.671c-0.193,0-0.35-0.157-0.35-0.35s0.157-0.35,0.35-0.35h1.671 c0.193,0,0.35,0.157,0.35,0.35S15.067,9.269,14.874,9.269z"/></g></g><metadata><rdf:RDF xmlns:dc="http://purl.org/dc/elements/1.1/" xmlns:rdf="http://www.w3.org/1999/02/22-rdf-syntax-ns#" xmlns:rdfs="http://www.w3.org/2000/01/rdf-schema#"><rdf:Description about="https://iconscout.com/legal#licenses" dc:date="2016-12-14" dc:description="Weather, Temperature, Heat, Gauge, Measurement, Low, Device" dc:format="image/svg+xml" dc:language="en" dc:publisher="Iconscout" dc:title="Weather, Temperature, Heat, Gauge, Measurement, Low, Device"><dc:creator><rdf:Bag><rdf:li>Chamestudio</rdf:li></rdf:Bag></dc:creator></rdf:Description></rdf:RDF></metadata></svg>