<svg xmlns="http://www.w3.org/2000/svg" xmlns:xlink="http://www.w3.org/1999/xlink" id="Layer_1" width="24" height="24" x="0" y="0" enable-background="new 0 0 24 24" version="1.0" viewBox="0 0 24 24" xml:space="preserve"><g><g><path fill="#010101" d="M11.999,17.85c-0.193,0-0.35-0.156-0.35-0.35v-11c0-0.193,0.157-0.35,0.35-0.35s0.35,0.156,0.35,0.35v11 C12.349,17.693,12.192,17.85,11.999,17.85z"/></g><g><path fill="#010101" d="M11.999,9.168c-0.094,0-0.184-0.037-0.25-0.104l-1.641-1.668C9.973,7.258,9.975,7.036,10.113,6.9 c0.138-0.135,0.359-0.135,0.495,0.005l1.389,1.412l1.393-1.439c0.135-0.14,0.355-0.143,0.495-0.009 c0.139,0.135,0.143,0.356,0.008,0.495L12.25,9.062C12.185,9.13,12.095,9.168,12,9.168C12,9.168,12,9.168,11.999,9.168z"/></g><g><path fill="#010101" d="M13.642,17.227c-0.092,0-0.185-0.036-0.253-0.108l-1.391-1.46l-1.387,1.435 c-0.134,0.139-0.357,0.142-0.495,0.009c-0.139-0.135-0.143-0.356-0.008-0.495l1.641-1.697c0.066-0.069,0.169-0.072,0.253-0.106 c0.095,0,0.186,0.039,0.252,0.108l1.643,1.725c0.133,0.14,0.128,0.361-0.012,0.495C13.815,17.195,13.729,17.227,13.642,17.227z"/></g><g><path fill="#010101" d="M17.493,12.363H6.507c-0.193,0-0.35-0.156-0.35-0.35s0.157-0.35,0.35-0.35h10.986 c0.193,0,0.35,0.156,0.35,0.35S17.687,12.363,17.493,12.363z"/></g><g><path fill="#010101" d="M16.899,13.975c-0.087,0-0.175-0.032-0.243-0.098l-1.699-1.641c-0.068-0.066-0.107-0.157-0.107-0.252 s0.039-0.186,0.107-0.252l1.67-1.611c0.139-0.134,0.361-0.13,0.495,0.009c0.134,0.14,0.13,0.36-0.009,0.495l-1.409,1.359 l1.438,1.389c0.139,0.135,0.143,0.356,0.009,0.495C17.083,13.939,16.991,13.975,16.899,13.975z"/></g><g><path fill="#010101" d="M7.13,13.975c-0.092,0-0.183-0.035-0.252-0.106c-0.134-0.139-0.13-0.36,0.009-0.495l1.438-1.389 l-1.411-1.359c-0.139-0.134-0.144-0.355-0.009-0.495C7.04,9.991,7.26,9.987,7.4,10.121l1.672,1.611 c0.069,0.065,0.107,0.157,0.107,0.252s-0.039,0.186-0.107,0.252l-1.699,1.641C7.305,13.942,7.217,13.975,7.13,13.975z"/></g><g><path fill="#010101" d="M8.12,16.236c-0.09,0-0.179-0.034-0.248-0.103c-0.137-0.137-0.137-0.358,0-0.495l7.787-7.775 c0.136-0.135,0.358-0.136,0.495,0.001c0.137,0.137,0.137,0.358,0,0.495l-7.787,7.775C8.299,16.202,8.209,16.236,8.12,16.236z"/></g><g><path fill="#010101" d="M14.237,10.102c-0.093,0-0.182-0.036-0.248-0.103c-0.068-0.067-0.104-0.16-0.103-0.256l0.057-2.348 c0.005-0.192,0.141-0.345,0.358-0.341c0.193,0.004,0.346,0.165,0.342,0.358l-0.048,1.98l2.012-0.048c0.003,0,0.006,0,0.008,0 c0.189,0,0.345,0.15,0.35,0.341c0.004,0.193-0.148,0.354-0.342,0.358l-2.379,0.057C14.243,10.102,14.24,10.102,14.237,10.102z"/></g><g><path fill="#010101" d="M9.706,16.943c-0.002,0-0.005,0-0.008,0c-0.193-0.004-0.346-0.165-0.342-0.358l0.048-2.008l-1.982,0.048 c-0.177,0.013-0.353-0.147-0.358-0.341c-0.004-0.193,0.148-0.354,0.342-0.358l2.35-0.057c0.07,0.003,0.188,0.034,0.256,0.103 c0.067,0.067,0.104,0.16,0.103,0.256l-0.057,2.375C10.051,16.793,9.896,16.943,9.706,16.943z"/></g><g><path fill="#010101" d="M15.907,16.236c-0.089,0-0.179-0.034-0.247-0.102L7.873,8.359c-0.137-0.137-0.137-0.358,0-0.495 C8.01,7.729,8.232,7.729,8.367,7.863l7.787,7.775c0.137,0.137,0.137,0.358,0,0.495C16.086,16.202,15.997,16.236,15.907,16.236z"/></g><g><path fill="#010101" d="M14.321,16.973c-0.189,0-0.345-0.15-0.35-0.341l-0.057-2.375c-0.002-0.096,0.034-0.188,0.101-0.255 c0.066-0.067,0.168-0.105,0.253-0.104l2.352,0.027c0.193,0.002,0.348,0.16,0.346,0.354c-0.002,0.194-0.201,0.359-0.354,0.346 l-1.989-0.022l0.048,2.012c0.004,0.193-0.148,0.354-0.342,0.358C14.327,16.973,14.324,16.973,14.321,16.973z"/></g><g><path fill="#010101" d="M9.792,10.102c-0.001,0-0.003,0-0.004,0l-2.379-0.029c-0.193-0.002-0.348-0.16-0.346-0.354 S7.25,9.367,7.417,9.373l2.016,0.024L9.385,7.442C9.381,7.249,9.534,7.089,9.727,7.084c0.179,0.019,0.354,0.147,0.358,0.341 l0.057,2.318c0.002,0.096-0.034,0.188-0.101,0.255C9.975,10.064,9.886,10.102,9.792,10.102z"/></g></g><metadata><rdf:RDF xmlns:dc="http://purl.org/dc/elements/1.1/" xmlns:rdf="http://www.w3.org/1999/02/22-rdf-syntax-ns#" xmlns:rdfs="http://www.w3.org/2000/01/rdf-schema#"><rdf:Description about="https://iconscout.com/legal#licenses" dc:date="2016-12-14" dc:description="Weather, Snow, Snowflake, Flake, Winter, Fall, Atmosphere" dc:format="image/svg+xml" dc:language="en" dc:publisher="Iconscout" dc:title="Weather, Snow, Snowflake, Flake, Winter, Fall, Atmosphere"><dc:creator><rdf:Bag><rdf:li>Chamestudio</rdf:li></rdf:Bag></dc:creator></rdf:Description></rdf:RDF></metadata></svg>