<svg xmlns="http://www.w3.org/2000/svg" xmlns:xlink="http://www.w3.org/1999/xlink" id="Layer_1" width="24" height="24" x="0" y="0" enable-background="new 0 0 24 24" version="1.0" viewBox="0 0 24 24" xml:space="preserve"><g><g><path fill="#010101" d="M10.826,18.344c-0.016,0-0.032-0.001-0.048-0.003c-0.126-0.018-0.233-0.102-0.279-0.221l-0.805-2.086 L7.506,16.36c-0.128,0.015-0.252-0.033-0.33-0.134c-0.077-0.102-0.093-0.237-0.042-0.354l0.879-2.005l-1.813-1.332 c-0.103-0.076-0.157-0.201-0.14-0.328c0.017-0.126,0.101-0.234,0.22-0.28l2.065-0.804L8.043,8.908 C8.026,8.783,8.078,8.659,8.178,8.583C8.279,8.506,8.413,8.488,8.529,8.54l2.04,0.879l1.336-1.787 c0.076-0.102,0.201-0.151,0.327-0.137c0.126,0.017,0.233,0.101,0.279,0.22l0.707,1.811c0.07,0.18-0.019,0.383-0.199,0.453 c-0.182,0.069-0.383-0.019-0.454-0.199l-0.478-1.224l-1.125,1.504c-0.097,0.129-0.271,0.177-0.419,0.111L8.821,9.428l0.256,1.875 c0.022,0.16-0.069,0.314-0.22,0.373l-1.729,0.673l1.525,1.121c0.132,0.097,0.179,0.272,0.113,0.423L8.03,15.574l1.838-0.273 c0.167-0.025,0.32,0.066,0.378,0.22l0.678,1.757l1.121-1.5c0.116-0.156,0.334-0.188,0.49-0.071 c0.155,0.115,0.187,0.335,0.071,0.49l-1.5,2.008C11.04,18.293,10.935,18.344,10.826,18.344z"/></g><g><path fill="#010101" d="M6.208,14.695c-0.154,0-0.295-0.103-0.338-0.258c-0.05-0.187,0.06-0.379,0.247-0.43l6.684-1.809 c0.183-0.048,0.378,0.06,0.429,0.246c0.05,0.187-0.06,0.379-0.247,0.43L6.3,14.684C6.27,14.691,6.239,14.695,6.208,14.695z"/></g><g><path fill="#010101" d="M12.921,18.57c-0.155,0-0.296-0.103-0.338-0.26L9.751,7.707c-0.05-0.187,0.062-0.378,0.248-0.428 c0.187-0.055,0.378,0.061,0.429,0.248l2.832,10.604c0.05,0.187-0.062,0.378-0.248,0.428C12.981,18.567,12.951,18.57,12.921,18.57z"/></g><g><path fill="#010101" d="M12.298,13.734c-0.06,0-0.12-0.015-0.175-0.047l-5.551-3.223c-0.167-0.097-0.224-0.312-0.127-0.479 C6.542,9.82,6.757,9.763,6.923,9.859l5.551,3.223c0.167,0.097,0.224,0.312,0.127,0.479C12.536,13.672,12.418,13.734,12.298,13.734 z"/></g><g><path fill="#010101" d="M8.757,18.033c-0.059,0-0.118-0.015-0.173-0.046c-0.168-0.096-0.227-0.31-0.131-0.478l4.051-7.098 c0.096-0.168,0.309-0.226,0.478-0.13c0.168,0.096,0.227,0.31,0.131,0.478l-4.051,7.098C8.997,17.971,8.878,18.033,8.757,18.033z"/></g><g><path fill="#010101" d="M14.478,17.24c-1.536,0-2.786-1.26-2.786-2.809c0-0.738,0.308-1.455,0.85-1.989V7.334 c0-0.862,0.864-1.904,1.936-1.904c1.105,0,1.963,1.023,1.963,1.904v5.108c0.542,0.534,0.85,1.251,0.85,1.989 C17.291,15.98,16.029,17.24,14.478,17.24z M14.478,6.129c-0.682,0-1.236,0.729-1.236,1.205v5.26c0,0.101-0.043,0.195-0.118,0.262 c-0.465,0.412-0.731,0.986-0.731,1.576c0,1.163,0.936,2.109,2.085,2.109c1.165,0,2.113-0.946,2.113-2.109 c0-0.59-0.267-1.164-0.731-1.576c-0.075-0.066-0.118-0.161-0.118-0.262v-5.26C15.741,6.86,15.199,6.129,14.478,6.129z"/></g><g><path fill="#010101" d="M14.449,13.791c-0.193,0-0.35-0.156-0.35-0.35V11.83c0-0.193,0.157-0.35,0.35-0.35s0.35,0.156,0.35,0.35 v1.611C14.799,13.635,14.642,13.791,14.449,13.791z"/></g><g><path fill="#010101" d="M14.449,15.656c-0.671,0-1.198-0.538-1.198-1.225c0-0.677,0.538-1.227,1.198-1.227 c0.678,0,1.229,0.55,1.229,1.227C15.678,15.107,15.126,15.656,14.449,15.656z M14.449,13.904c-0.279,0-0.498,0.231-0.498,0.527 c0,0.294,0.219,0.525,0.498,0.525c0.292,0,0.529-0.236,0.529-0.525C14.978,14.146,14.735,13.904,14.449,13.904z"/></g><g><path fill="#010101" d="M17.791,11.896h-1.699c-0.193,0-0.35-0.156-0.35-0.35s0.157-0.35,0.35-0.35h1.699 c0.193,0,0.35,0.156,0.35,0.35S17.984,11.896,17.791,11.896z"/></g><g><path fill="#010101" d="M17.791,10.285h-1.699c-0.193,0-0.35-0.156-0.35-0.35s0.157-0.35,0.35-0.35h1.699 c0.193,0,0.35,0.156,0.35,0.35S17.984,10.285,17.791,10.285z"/></g><g><path fill="#010101" d="M17.791,8.617h-1.699c-0.193,0-0.35-0.156-0.35-0.35s0.157-0.35,0.35-0.35h1.699 c0.193,0,0.35,0.156,0.35,0.35S17.984,8.617,17.791,8.617z"/></g></g><metadata><rdf:RDF xmlns:dc="http://purl.org/dc/elements/1.1/" xmlns:rdf="http://www.w3.org/1999/02/22-rdf-syntax-ns#" xmlns:rdfs="http://www.w3.org/2000/01/rdf-schema#"><rdf:Description about="https://iconscout.com/legal#licenses" dc:date="2016-12-14" dc:description="Weather, Forecst, Temperature, Measure, Snow, Snowfall, Flake" dc:format="image/svg+xml" dc:language="en" dc:publisher="Iconscout" dc:title="Weather, Forecst, Temperature, Measure, Snow, Snowfall, Flake"><dc:creator><rdf:Bag><rdf:li>Chamestudio</rdf:li></rdf:Bag></dc:creator></rdf:Description></rdf:RDF></metadata></svg>