<svg xmlns="http://www.w3.org/2000/svg" xmlns:xlink="http://www.w3.org/1999/xlink" id="Layer_1" width="24" height="24" x="0" y="0" enable-background="new 0 0 24 24" version="1.0" viewBox="0 0 24 24" xml:space="preserve"><g><g><path fill="#010101" d="M12,15.517c-2.004,0-3.635-1.641-3.635-3.659c0-2.001,1.631-3.629,3.635-3.629 c2.02,0,3.663,1.628,3.663,3.629C15.663,13.876,14.02,15.517,12,15.517z M12,8.929c-1.619,0-2.935,1.314-2.935,2.929 c0,1.631,1.316,2.958,2.935,2.958c1.633,0,2.962-1.327,2.962-2.958C14.962,10.243,13.633,8.929,12,8.929z"/></g><g><path fill="#010101" d="M12,7.204c-0.193,0-0.35-0.157-0.35-0.35V5.553c0-0.193,0.157-0.35,0.35-0.35s0.35,0.157,0.35,0.35v1.301 C12.35,7.047,12.193,7.204,12,7.204z"/></g><g><path fill="#010101" d="M12,18.797c-0.193,0-0.35-0.157-0.35-0.35v-1.301c0-0.193,0.157-0.35,0.35-0.35s0.35,0.157,0.35,0.35 v1.301C12.35,18.641,12.193,18.797,12,18.797z"/></g><g><path fill="#010101" d="M18.457,12.35h-1.275c-0.193,0-0.35-0.157-0.35-0.35s0.157-0.35,0.35-0.35h1.275 c0.193,0,0.35,0.157,0.35,0.35S18.65,12.35,18.457,12.35z"/></g><g><path fill="#010101" d="M6.846,12.35H5.543c-0.193,0-0.35-0.157-0.35-0.35s0.157-0.35,0.35-0.35h1.303 c0.193,0,0.35,0.157,0.35,0.35S7.039,12.35,6.846,12.35z"/></g><g><path fill="#010101" d="M16.588,16.903c-0.088,0-0.175-0.033-0.243-0.099l-0.936-0.905c-0.139-0.134-0.143-0.356-0.008-0.495 c0.134-0.14,0.355-0.144,0.495-0.008l0.936,0.905c0.139,0.134,0.143,0.356,0.008,0.495C16.771,16.867,16.679,16.903,16.588,16.903 z"/></g><g><path fill="#010101" d="M8.375,8.703c-0.088,0-0.176-0.033-0.244-0.099L7.198,7.699C7.059,7.564,7.056,7.342,7.19,7.204 s0.356-0.143,0.495-0.008l0.934,0.905c0.139,0.135,0.142,0.356,0.008,0.495C8.558,8.667,8.466,8.703,8.375,8.703z"/></g><g><path fill="#010101" d="M7.441,16.903c-0.091,0-0.183-0.036-0.251-0.106c-0.134-0.139-0.131-0.36,0.008-0.495l0.934-0.905 c0.137-0.135,0.36-0.132,0.495,0.008c0.134,0.139,0.131,0.36-0.008,0.495l-0.934,0.905C7.617,16.87,7.529,16.903,7.441,16.903z"/></g><g><path fill="#010101" d="M15.652,8.703c-0.091,0-0.183-0.036-0.251-0.107c-0.134-0.139-0.131-0.36,0.008-0.495l0.936-0.905 c0.138-0.135,0.36-0.132,0.495,0.008c0.134,0.139,0.131,0.36-0.008,0.495l-0.936,0.905C15.828,8.67,15.74,8.703,15.652,8.703z"/></g></g><metadata><rdf:RDF xmlns:dc="http://purl.org/dc/elements/1.1/" xmlns:rdf="http://www.w3.org/1999/02/22-rdf-syntax-ns#" xmlns:rdfs="http://www.w3.org/2000/01/rdf-schema#"><rdf:Description about="https://iconscout.com/legal#licenses" dc:date="2016-12-14" dc:description="Weather, Forecast, Sun, Nature, Light, Lightning, Shine" dc:format="image/svg+xml" dc:language="en" dc:publisher="Iconscout" dc:title="Weather, Forecast, Sun, Nature, Light, Lightning, Shine"><dc:creator><rdf:Bag><rdf:li>Chamestudio</rdf:li></rdf:Bag></dc:creator></rdf:Description></rdf:RDF></metadata></svg>