<svg xmlns="http://www.w3.org/2000/svg" xmlns:xlink="http://www.w3.org/1999/xlink" id="Layer_1" width="24" height="24" x="0" y="0" enable-background="new 0 0 24 24" version="1.0" viewBox="0 0 24 24" xml:space="preserve"><g><g><path fill="#010101" d="M16.404,19.829h-1.219c-0.193,0-0.35-0.157-0.35-0.35s0.157-0.35,0.35-0.35h5.777 c1.288-0.075,2.312-1.164,2.312-2.478c0-1.366-1.113-2.478-2.482-2.478c-0.133,0-0.266,0.021-0.415,0.042 c-0.11,0.015-0.255-0.015-0.333-0.093s-0.151-0.182-0.136-0.291l0.014-0.1c0.02-0.14,0.039-0.265,0.039-0.39 c0-2.13-1.723-3.863-3.841-3.863c-1.757,0-3.282,1.193-3.71,2.902c-0.047,0.188-0.24,0.302-0.424,0.254 c-0.188-0.047-0.301-0.237-0.254-0.424c0.506-2.021,2.311-3.432,4.389-3.432c2.504,0,4.542,2.047,4.542,4.563 c0,0.045-0.002,0.09-0.005,0.135c0.046-0.003,0.091-0.005,0.135-0.005c1.754,0,3.182,1.426,3.182,3.178 c0,1.685-1.314,3.08-2.992,3.177L16.404,19.829z"/></g><g><path fill="#010101" d="M8.503,10.837c-0.149,0-0.287-0.096-0.334-0.246C7.879,9.662,7.97,8.672,8.427,7.806 c0.456-0.864,1.221-1.497,2.153-1.782c1.909-0.595,3.944,0.487,4.542,2.408c0.097,0.287,0.127,0.547,0.156,0.799 c0.022,0.192-0.116,0.366-0.308,0.388c-0.195,0.022-0.365-0.116-0.388-0.308c-0.026-0.226-0.051-0.438-0.126-0.664 c-0.486-1.561-2.133-2.434-3.67-1.955c-0.755,0.231-1.373,0.742-1.741,1.44c-0.369,0.7-0.443,1.499-0.209,2.25 c0.058,0.185-0.045,0.381-0.229,0.438C8.573,10.832,8.538,10.837,8.503,10.837z"/></g><g><path fill="#010101" d="M11.646,4.843c-0.193,0-0.35-0.157-0.35-0.35V3.192c0-0.193,0.157-0.35,0.35-0.35s0.35,0.157,0.35,0.35 v1.301C11.996,4.686,11.839,4.843,11.646,4.843z"/></g><g><path fill="#010101" d="M6.492,9.989H5.189c-0.193,0-0.35-0.157-0.35-0.35s0.157-0.35,0.35-0.35h1.303 c0.193,0,0.35,0.157,0.35,0.35S6.685,9.989,6.492,9.989z"/></g><g><path fill="#010101" d="M7.994,6.341c-0.089,0-0.179-0.034-0.247-0.103L6.84,5.334c-0.137-0.136-0.137-0.358,0-0.495 s0.359-0.137,0.495,0l0.906,0.905c0.137,0.136,0.137,0.358,0,0.495C8.173,6.307,8.083,6.341,7.994,6.341z"/></g><g><path fill="#010101" d="M15.298,6.341c-0.09,0-0.179-0.034-0.248-0.103c-0.137-0.137-0.137-0.358,0-0.495l0.906-0.905 c0.137-0.137,0.359-0.137,0.495,0c0.137,0.137,0.137,0.358,0,0.495l-0.906,0.905C15.478,6.307,15.388,6.341,15.298,6.341z"/></g><g><path fill="#010101" d="M12.949,21.158H3.123c-0.057,0-0.111-0.014-0.161-0.039c-1.655-0.179-2.937-1.587-2.937-3.252 c0-1.814,1.491-3.291,3.324-3.291c0.07,0,0.142,0,0.217,0.003c0.049-2.474,2.067-4.471,4.541-4.471 c2.503,0,4.541,2.047,4.541,4.563c0,0.046-0.001,0.091-0.004,0.135c0.046-0.003,0.091-0.005,0.135-0.005 c1.754,0,3.182,1.426,3.182,3.178c0,1.685-1.314,3.08-2.992,3.177C12.962,21.158,12.956,21.158,12.949,21.158z M3.232,20.458 h9.707c1.303-0.08,2.322-1.167,2.322-2.478c0-1.366-1.113-2.478-2.482-2.478c-0.132,0-0.265,0.021-0.414,0.042 c-0.108,0.018-0.259-0.017-0.337-0.097c-0.078-0.08-0.15-0.188-0.132-0.297c0.025-0.151,0.052-0.302,0.052-0.479 c0-2.13-1.723-3.863-3.84-3.863c-2.118,0-3.841,1.733-3.841,3.863c0,0.039,0.006,0.072,0.011,0.105 c0.009,0.065,0.018,0.131,0.018,0.206c0,0.11-0.052,0.213-0.139,0.279c-0.088,0.066-0.2,0.088-0.307,0.057 c-0.151-0.043-0.32-0.043-0.499-0.043c-1.447,0-2.624,1.162-2.624,2.59c0,1.336,1.052,2.462,2.395,2.563 C3.159,20.434,3.197,20.443,3.232,20.458z"/></g></g><metadata><rdf:RDF xmlns:dc="http://purl.org/dc/elements/1.1/" xmlns:rdf="http://www.w3.org/1999/02/22-rdf-syntax-ns#" xmlns:rdfs="http://www.w3.org/2000/01/rdf-schema#"><rdf:Description about="https://iconscout.com/legal#licenses" dc:date="2016-12-14" dc:description="Weather, Thunder, Forecast, Cloud, Clouds, Sunny, Sun" dc:format="image/svg+xml" dc:language="en" dc:publisher="Iconscout" dc:title="Weather, Thunder, Forecast, Cloud, Clouds, Sunny, Sun"><dc:creator><rdf:Bag><rdf:li>Chamestudio</rdf:li></rdf:Bag></dc:creator></rdf:Description></rdf:RDF></metadata></svg>