<svg xmlns="http://www.w3.org/2000/svg" xmlns:xlink="http://www.w3.org/1999/xlink" id="Layer_1" width="24" height="24" x="0" y="0" enable-background="new 0 0 24 24" version="1.0" viewBox="0 0 24 24" xml:space="preserve"><g><g><path fill="#010101" d="M13.388,14.655c-0.193,0-0.35-0.157-0.35-0.35s0.157-0.35,0.35-0.35h3.568 c1.287-0.075,2.311-1.164,2.311-2.478C19.267,10.087,18.19,9,16.814,9c-0.177,0-0.329,0.026-0.48,0.052 c-0.101,0.018-0.205-0.012-0.284-0.078s-0.124-0.164-0.124-0.267c0-0.123,0.017-0.236,0.035-0.346 c0.01-0.065,0.022-0.128,0.022-0.191c0-2.13-1.736-3.864-3.87-3.864c-2.118,0-3.84,1.733-3.84,3.864 c0,0.027,0.006,0.059,0.01,0.091c0.01,0.067,0.018,0.134,0.018,0.191c0,0.102-0.044,0.198-0.121,0.265 C8.104,8.782,8,8.81,7.902,8.798C7.684,8.766,7.541,8.745,7.356,8.745c-1.422,0-2.624,1.187-2.624,2.591 c0,1.35,1.044,2.464,2.429,2.592c0.038,0.003,0.073,0.013,0.106,0.027h2.155c0.193,0,0.35,0.157,0.35,0.35s-0.157,0.35-0.35,0.35 H7.158c-0.055,0-0.108-0.015-0.157-0.04c-1.699-0.204-2.968-1.597-2.968-3.279c0-1.784,1.522-3.292,3.324-3.292 c0.078,0,0.149,0.003,0.218,0.008c0.062-2.463,2.074-4.447,4.539-4.447c2.52,0,4.57,2.047,4.57,4.564 c0,0.044-0.003,0.089-0.008,0.134c0.045-0.002,0.091-0.004,0.139-0.004c1.768,0,3.153,1.396,3.153,3.177 c0,1.685-1.314,3.081-2.991,3.178L13.388,14.655z"/></g><g><path fill="#010101" d="M6.762,17.737c-0.09,0-0.179-0.034-0.248-0.103c-0.137-0.137-0.137-0.358,0-0.495l1.161-1.159 c0.137-0.137,0.358-0.137,0.495,0c0.137,0.137,0.137,0.358,0,0.495l-1.161,1.159C6.94,17.703,6.851,17.737,6.762,17.737z"/></g><g><path fill="#010101" d="M8.913,17.737c-0.09,0-0.179-0.034-0.248-0.103c-0.137-0.137-0.137-0.358,0-0.495l1.161-1.159 c0.137-0.137,0.358-0.137,0.495,0c0.137,0.137,0.137,0.358,0,0.495L9.16,17.634C9.092,17.703,9.002,17.737,8.913,17.737z"/></g><g><path fill="#010101" d="M13.218,17.737c-0.09,0-0.179-0.034-0.248-0.103c-0.137-0.137-0.137-0.358,0-0.495l1.161-1.159 c0.137-0.137,0.358-0.137,0.495,0c0.137,0.137,0.137,0.358,0,0.495l-1.161,1.159C13.396,17.703,13.307,17.737,13.218,17.737z"/></g><g><path fill="#010101" d="M15.37,17.737c-0.09,0-0.179-0.034-0.248-0.103c-0.137-0.137-0.137-0.358,0-0.495l1.161-1.159 c0.137-0.137,0.358-0.137,0.495,0c0.137,0.137,0.137,0.358,0,0.495l-1.161,1.159C15.549,17.703,15.459,17.737,15.37,17.737z"/></g><g><path fill="#010101" d="M4.496,20.395c-0.09,0-0.179-0.034-0.248-0.103c-0.137-0.137-0.137-0.358,0-0.495l1.161-1.16 c0.137-0.137,0.359-0.136,0.495,0c0.137,0.137,0.137,0.358,0,0.495l-1.161,1.16C4.675,20.361,4.585,20.395,4.496,20.395z"/></g><g><path fill="#010101" d="M6.648,20.395c-0.09,0-0.179-0.034-0.248-0.103c-0.137-0.137-0.137-0.358,0-0.495l1.161-1.16 c0.137-0.137,0.359-0.136,0.495,0c0.137,0.137,0.137,0.358,0,0.495l-1.161,1.16C6.828,20.361,6.738,20.395,6.648,20.395z"/></g><g><path fill="#010101" d="M8.8,20.395c-0.09,0-0.179-0.034-0.248-0.103c-0.137-0.137-0.137-0.358,0-0.495l1.161-1.16 c0.137-0.137,0.359-0.136,0.495,0c0.137,0.137,0.137,0.358,0,0.495l-1.161,1.16C8.979,20.361,8.889,20.395,8.8,20.395z"/></g><g><path fill="#010101" d="M10.952,20.395c-0.09,0-0.179-0.034-0.248-0.103c-0.137-0.137-0.137-0.358,0-0.495l1.161-1.16 c0.137-0.137,0.359-0.136,0.495,0c0.137,0.137,0.137,0.358,0,0.495l-1.161,1.16C11.131,20.361,11.042,20.395,10.952,20.395z"/></g><g><path fill="#010101" d="M13.104,20.395c-0.09,0-0.179-0.034-0.248-0.103c-0.137-0.137-0.137-0.358,0-0.495l1.161-1.16 c0.137-0.137,0.359-0.136,0.495,0c0.137,0.137,0.137,0.358,0,0.495l-1.161,1.16C13.284,20.361,13.194,20.395,13.104,20.395z"/></g><g><path fill="#010101" d="M10.527,18.529c-0.046,0-0.092-0.009-0.137-0.028c-0.153-0.065-0.24-0.229-0.206-0.393l0.707-3.454H9.395 c-0.109,0-0.212-0.051-0.278-0.138c-0.066-0.087-0.088-0.2-0.059-0.305l1.189-4.298c0.042-0.152,0.18-0.257,0.337-0.257h3.087 c0.13,0,0.249,0.072,0.31,0.187s0.053,0.254-0.021,0.361l-1.408,2.053h1.799c0.13,0,0.249,0.072,0.31,0.187 s0.053,0.254-0.021,0.361l-3.823,5.571C10.749,18.474,10.64,18.529,10.527,18.529z M9.854,13.955h1.466 c0.105,0,0.205,0.047,0.271,0.129s0.093,0.188,0.072,0.292l-0.446,2.18l2.469-3.598h-1.799c-0.13,0-0.249-0.072-0.31-0.187 s-0.053-0.254,0.021-0.361l1.408-2.052H10.85L9.854,13.955z"/></g></g><metadata><rdf:RDF xmlns:dc="http://purl.org/dc/elements/1.1/" xmlns:rdf="http://www.w3.org/1999/02/22-rdf-syntax-ns#" xmlns:rdfs="http://www.w3.org/2000/01/rdf-schema#"><rdf:Description about="https://iconscout.com/legal#licenses" dc:date="2016-12-14" dc:description="Weather, Thunder, Forecast, Cloud, Rain, Cloudy, Lightning" dc:format="image/svg+xml" dc:language="en" dc:publisher="Iconscout" dc:title="Weather, Thunder, Forecast, Cloud, Rain, Cloudy, Lightning"><dc:creator><rdf:Bag><rdf:li>Chamestudio</rdf:li></rdf:Bag></dc:creator></rdf:Description></rdf:RDF></metadata></svg>