<?xml version="1.0" encoding="utf-8"?>
<!DOCTYPE svg PUBLIC "-//W3C//DTD SVG 1.0//EN" "http://www.w3.org/TR/2001/REC-SVG-20010904/DTD/svg10.dtd">
<svg xmlns="http://www.w3.org/2000/svg" xmlns:xlink="http://www.w3.org/1999/xlink" version="1.0" id="Layer_1" x="0px" y="0px" width="24px" height="24px" viewBox="0 0 24 24" enable-background="new 0 0 24 24" xml:space="preserve">
<g>
	<g>
		<path fill="#010101" d="M7.173,12.548c-0.086,0-0.172-0.031-0.239-0.094c-0.717-0.67-1.13-1.58-1.163-2.56    C5.738,8.923,6.086,7.999,6.748,7.293c0.648-0.709,1.543-1.122,2.517-1.16c0.979-0.031,1.908,0.309,2.62,0.975    c0.026,0.01,0.081,0.064,0.125,0.108c0.16,0.108,0.231,0.353,0.123,0.513c-0.108,0.159-0.297,0.229-0.456,0.121    c-0.06-0.04-0.111-0.088-0.161-0.139c-0.018-0.011-0.094-0.079-0.109-0.093c-0.575-0.538-1.332-0.815-2.115-0.786    c-0.784,0.031-1.505,0.363-2.03,0.936c-0.536,0.573-0.816,1.318-0.79,2.103c0.026,0.793,0.36,1.529,0.941,2.071    c0.141,0.132,0.148,0.354,0.017,0.495C7.359,12.511,7.267,12.548,7.173,12.548z"/>
	</g>
	<g>
		<path fill="#010101" d="M7.853,5.337c-0.151,0-0.29-0.099-0.336-0.25L7.147,3.843c-0.055-0.186,0.051-0.38,0.236-0.435    c0.185-0.054,0.38,0.051,0.436,0.236l0.369,1.244c0.055,0.186-0.051,0.38-0.236,0.435C7.919,5.333,7.886,5.337,7.853,5.337z"/>
	</g>
	<g>
		<path fill="#010101" d="M3.265,12.18c-0.147,0-0.285-0.094-0.333-0.242c-0.06-0.184,0.041-0.381,0.225-0.441l1.217-0.396    c0.183-0.06,0.382,0.041,0.441,0.225s-0.041,0.381-0.225,0.441l-1.217,0.396C3.337,12.175,3.301,12.18,3.265,12.18z"/>
	</g>
	<g>
		<path fill="#010101" d="M4.851,7.882c-0.056,0-0.112-0.013-0.165-0.042L3.523,7.219C3.353,7.127,3.289,6.916,3.38,6.745    c0.091-0.171,0.302-0.236,0.474-0.144l1.162,0.622C5.187,7.315,5.25,7.527,5.159,7.697C5.096,7.815,4.976,7.882,4.851,7.882z"/>
	</g>
	<g>
		<path fill="#010101" d="M11.788,5.677c-0.055,0-0.11-0.013-0.163-0.04c-0.171-0.09-0.236-0.302-0.146-0.473l0.594-1.131    c0.09-0.17,0.299-0.235,0.473-0.147c0.171,0.09,0.236,0.302,0.146,0.473L12.098,5.49C12.035,5.609,11.914,5.677,11.788,5.677z"/>
	</g>
	<g>
		<path fill="#010101" d="M14.847,18.147h-6.6c-0.059,0-0.114-0.015-0.165-0.042c-1.679-0.209-2.931-1.601-2.931-3.277    c0-1.815,1.49-3.292,3.322-3.292c0.073,0,0.146,0.003,0.218,0.009c0.062-2.464,2.074-4.449,4.54-4.449    c2.504,0,4.541,2.047,4.541,4.564c0,0.044-0.001,0.089-0.004,0.134c0.044-0.002,0.09-0.004,0.137-0.004    c1.754,0,3.18,1.425,3.18,3.177c0,1.062-0.545,2.059-1.458,2.667c-0.16,0.106-0.378,0.064-0.485-0.098    c-0.107-0.161-0.063-0.378,0.097-0.485c0.719-0.478,1.147-1.257,1.147-2.084c0-1.366-1.113-2.477-2.48-2.477    c-0.178,0-0.33,0.026-0.481,0.052c-0.11,0.02-0.223-0.017-0.303-0.095s-0.117-0.19-0.102-0.301    c0.031-0.206,0.054-0.346,0.054-0.486c0-2.13-1.724-3.864-3.842-3.864S9.39,9.531,9.39,11.661c0,0.044,0,0.137,0.011,0.168    c0.037,0.115,0.014,0.244-0.064,0.336s-0.197,0.137-0.315,0.125c-0.188-0.027-0.366-0.053-0.547-0.053    c-1.446,0-2.623,1.163-2.623,2.591c0,1.326,1.056,2.465,2.402,2.592c0.036,0.003,0.071,0.013,0.104,0.027h6.489    c0.193,0,0.35,0.157,0.35,0.35S15.04,18.147,14.847,18.147z"/>
	</g>
	<g>
		<path fill="#010101" d="M17.196,20.607c-1.457,0-2.643-1.197-2.643-2.668c0-0.613,0.199-1.186,0.564-1.629    c0.013-0.036,0.032-0.07,0.059-0.1l1.728-1.978c0.133-0.154,0.424-0.154,0.557,0l1.58,1.803c0.01,0.008,0.019,0.016,0.026,0.025    c0.49,0.525,0.771,1.21,0.771,1.879C19.839,19.41,18.653,20.607,17.196,20.607z M15.791,16.571    c-0.014,0.039-0.035,0.076-0.065,0.107c-0.305,0.326-0.473,0.774-0.473,1.26c0,1.085,0.872,1.968,1.943,1.968    c1.053,0,1.943-0.901,1.943-1.968c0-0.491-0.211-1-0.579-1.396c-0.015-0.013-0.027-0.027-0.04-0.042l-0.001,0.001l-1.337-1.522    L15.791,16.571z"/>
	</g>
</g>

	
	
	<metadata>
		<rdf:RDF xmlns:rdf="http://www.w3.org/1999/02/22-rdf-syntax-ns#" xmlns:rdfs="http://www.w3.org/2000/01/rdf-schema#" xmlns:dc="http://purl.org/dc/elements/1.1/">
			<rdf:Description about="https://iconscout.com/legal#licenses" dc:title="Weather, Rain, Forecast, Cloud, Clouds, Cloudy, Sun" dc:description="Weather, Rain, Forecast, Cloud, Clouds, Cloudy, Sun" dc:publisher="Iconscout" dc:date="2016-12-14" dc:format="image/svg+xml" dc:language="en">
				<dc:creator>
					<rdf:Bag>
						<rdf:li>Chamestudio</rdf:li>
					</rdf:Bag>
				</dc:creator>
			</rdf:Description>
		</rdf:RDF>
    </metadata></svg>
