<?xml version="1.0" encoding="utf-8"?>
<!DOCTYPE svg PUBLIC "-//W3C//DTD SVG 1.0//EN" "http://www.w3.org/TR/2001/REC-SVG-20010904/DTD/svg10.dtd">
<svg xmlns="http://www.w3.org/2000/svg" xmlns:xlink="http://www.w3.org/1999/xlink" version="1.0" id="Layer_1" x="0px" y="0px" width="24px" height="24px" viewBox="0 0 24 24" enable-background="new 0 0 24 24" xml:space="preserve">
<g>
	<g>
		<path fill="#010101" d="M11.887,16.916c-1.302,0-2.361-1.069-2.361-2.385c0-0.54,0.192-1.073,0.554-1.544l1.512-1.737    c0.136-0.158,0.438-0.154,0.568,0.008l0.453,0.566l0.922,1.03c0.024,0.027,0.044,0.058,0.058,0.09    c0.41,0.442,0.626,0.989,0.626,1.587C14.219,15.847,13.173,16.916,11.887,16.916z M11.865,12.009l-1.245,1.424    c-0.172,0.224-0.394,0.614-0.394,1.099c0,0.93,0.745,1.686,1.661,1.686s1.632-0.74,1.632-1.686c0-0.442-0.17-0.846-0.492-1.166    c-0.033-0.033-0.059-0.071-0.076-0.113L11.865,12.009z"/>
	</g>
	<g>
		<path fill="#010101" d="M11.887,16.916c-1.302,0-2.361-1.069-2.361-2.385c0-0.54,0.192-1.073,0.554-1.544l1.512-1.737    c0.136-0.158,0.438-0.154,0.568,0.008l0.453,0.566l0.922,1.03c0.024,0.027,0.044,0.058,0.058,0.09    c0.41,0.442,0.626,0.989,0.626,1.587C14.219,15.847,13.173,16.916,11.887,16.916z M11.865,12.009l-1.245,1.424    c-0.172,0.224-0.394,0.614-0.394,1.099c0,0.93,0.745,1.686,1.661,1.686s1.632-0.74,1.632-1.686c0-0.442-0.17-0.846-0.492-1.166    c-0.033-0.033-0.059-0.071-0.076-0.113L11.865,12.009z"/>
	</g>
	<g>
		<path fill="#010101" d="M7.469,12.873c-1.286,0-2.332-1.07-2.332-2.387c0-0.582,0.195-1.119,0.564-1.555l1.501-1.726    c0.133-0.154,0.399-0.154,0.532,0l1.411,1.605c0.024,0.027,0.043,0.058,0.058,0.09C9.614,9.344,9.83,9.89,9.83,10.486    C9.83,11.803,8.771,12.873,7.469,12.873z M7.469,7.973L6.232,9.389c-0.261,0.308-0.395,0.678-0.395,1.098    c0,0.946,0.716,1.688,1.631,1.688c0.916,0,1.661-0.757,1.661-1.688c0-0.44-0.17-0.844-0.492-1.164    C8.604,9.289,8.579,9.25,8.562,9.208L7.469,7.973z"/>
	</g>
	<g>
		<path fill="#010101" d="M16.531,13.014c-1.302,0-2.361-1.058-2.361-2.357c0-0.558,0.205-1.123,0.563-1.552l1.509-1.734    c0.133-0.148,0.417-0.148,0.55,0l1.392,1.586c0,0.001,0,0.001,0,0.001c0.007,0.007,0.014,0.014,0.021,0.021    c0.424,0.46,0.658,1.056,0.658,1.679C18.863,11.956,17.817,13.014,16.531,13.014z M16.517,8.112l-1.25,1.443    c-0.248,0.297-0.397,0.71-0.397,1.101c0,0.914,0.745,1.658,1.661,1.658c0.899,0,1.631-0.744,1.631-1.658    c0-0.446-0.168-0.874-0.473-1.204l0,0c-0.012-0.012-0.024-0.024-0.035-0.038l0,0.001L16.517,8.112z"/>
	</g>
</g>

	
	
	<metadata>
		<rdf:RDF xmlns:rdf="http://www.w3.org/1999/02/22-rdf-syntax-ns#" xmlns:rdfs="http://www.w3.org/2000/01/rdf-schema#" xmlns:dc="http://purl.org/dc/elements/1.1/">
			<rdf:Description about="https://iconscout.com/legal#licenses" dc:title="Weather, Rain, Drib, Drop, Sky, Waterdrop, Heavy" dc:description="Weather, Rain, Drib, Drop, Sky, Waterdrop, Heavy" dc:publisher="Iconscout" dc:date="2016-12-14" dc:format="image/svg+xml" dc:language="en">
				<dc:creator>
					<rdf:Bag>
						<rdf:li>Chamestudio</rdf:li>
					</rdf:Bag>
				</dc:creator>
			</rdf:Description>
		</rdf:RDF>
    </metadata></svg>
