<svg xmlns="http://www.w3.org/2000/svg" xmlns:xlink="http://www.w3.org/1999/xlink" id="Layer_1" width="24" height="24" x="0" y="0" enable-background="new 0 0 24 24" version="1.0" viewBox="0 0 24 24" xml:space="preserve"><g><g><path fill="#010101" d="M16.617,10.738c-0.129,0-0.252-0.071-0.313-0.194c-0.086-0.173-0.016-0.383,0.157-0.469 c0.398-0.199,0.755-0.504,1.034-0.884c0.464-0.634,0.65-1.41,0.524-2.187c-0.125-0.774-0.544-1.449-1.18-1.901 c-1.315-0.958-3.166-0.663-4.131,0.656c-0.114,0.156-0.334,0.191-0.489,0.076c-0.156-0.114-0.19-0.333-0.076-0.489 c1.192-1.63,3.483-1.994,5.105-0.811c0.786,0.559,1.307,1.397,1.462,2.357c0.156,0.963-0.075,1.926-0.651,2.712 c-0.344,0.469-0.789,0.848-1.286,1.096C16.722,10.727,16.669,10.738,16.617,10.738z"/></g><g><path fill="#010101" d="M15.115,2.821c-0.193,0-0.35-0.157-0.35-0.35v-1.3c0-0.193,0.157-0.35,0.35-0.35s0.35,0.157,0.35,0.35v1.3 C15.465,2.664,15.309,2.821,15.115,2.821z"/></g><g><path fill="#010101" d="M21.571,7.967h-1.303c-0.193,0-0.35-0.157-0.35-0.35s0.157-0.35,0.35-0.35h1.303 c0.193,0,0.35,0.157,0.35,0.35S21.765,7.967,21.571,7.967z"/></g><g><path fill="#010101" d="M19.674,12.52c-0.089,0-0.179-0.034-0.247-0.103l-0.935-0.933c-0.137-0.136-0.137-0.358,0-0.495 s0.359-0.137,0.495,0l0.935,0.933c0.137,0.136,0.137,0.358,0,0.495C19.853,12.485,19.764,12.52,19.674,12.52z"/></g><g><path fill="#010101" d="M11.462,4.32c-0.091,0-0.183-0.036-0.251-0.106L10.305,3.28c-0.135-0.139-0.131-0.36,0.007-0.495 c0.138-0.134,0.359-0.133,0.495,0.007l0.906,0.933c0.135,0.139,0.131,0.36-0.007,0.495C11.638,4.287,11.55,4.32,11.462,4.32z"/></g><g><path fill="#010101" d="M18.739,4.32c-0.09,0-0.179-0.034-0.248-0.103c-0.137-0.137-0.137-0.358,0-0.495l0.935-0.933 c0.136-0.137,0.358-0.137,0.495,0c0.137,0.137,0.137,0.358,0,0.495l-0.935,0.933C18.918,4.286,18.829,4.32,18.739,4.32z"/></g><g><path fill="#010101" d="M10.811,15.8c-0.193,0-0.35-0.157-0.35-0.35s0.157-0.35,0.35-0.35h4.191 c1.29-0.05,2.311-1.138,2.311-2.478c0-1.366-1.113-2.478-2.481-2.478c-0.133,0-0.269,0.022-0.442,0.071 c-0.115,0.034-0.237,0.006-0.326-0.073c-0.089-0.078-0.133-0.196-0.117-0.313C13.979,9.609,14,9.472,14,9.313 c0-2.088-1.656-3.795-3.717-3.861c-0.039,0.017-0.081,0.026-0.124,0.026c-2.118,0-3.84,1.72-3.84,3.834 c0,0.039,0.006,0.072,0.011,0.106c0.009,0.065,0.018,0.13,0.018,0.205c0,0.102-0.044,0.198-0.121,0.265 C6.15,9.955,6.045,9.985,5.948,9.971C5.766,9.945,5.584,9.918,5.402,9.918c-1.447,0-2.624,1.162-2.624,2.59 c0,1.336,1.052,2.462,2.395,2.563c0.039,0.003,0.076,0.012,0.111,0.027h2.977c0.193,0,0.35,0.157,0.35,0.35s-0.157,0.35-0.35,0.35 H5.204c-0.042,0-0.096-0.014-0.148-0.035c-1.674-0.16-2.977-1.578-2.977-3.256c0-1.886,1.642-3.426,3.541-3.282 c0.045-2.417,1.993-4.377,4.407-4.446c0.041-0.019,0.086-0.03,0.133-0.03c2.504,0,4.542,2.047,4.542,4.563 c0,0.046-0.001,0.092-0.004,0.136c0.045-0.003,0.09-0.005,0.135-0.005c1.754,0,3.181,1.426,3.181,3.178 c0,1.717-1.317,3.113-2.998,3.177L10.811,15.8z"/></g><g><path fill="#010101" d="M17.748,21.455c-0.977,0-1.848-0.663-2.12-1.611c-0.053-0.186,0.054-0.379,0.24-0.433 c0.186-0.055,0.379,0.054,0.433,0.24c0.186,0.65,0.781,1.104,1.447,1.104c0.822,0,1.491-0.667,1.491-1.488 c0-0.82-0.668-1.488-1.491-1.488h-5.89c-0.193,0-0.35-0.157-0.35-0.35s0.157-0.35,0.35-0.35h5.89c1.208,0,2.191,0.981,2.191,2.188 S18.956,21.455,17.748,21.455z"/></g><g><path fill="#010101" d="M12.765,23.18c-1.011,0-1.885-0.667-2.124-1.623c-0.047-0.188,0.067-0.377,0.254-0.424 c0.187-0.046,0.377,0.067,0.424,0.254c0.161,0.643,0.755,1.092,1.445,1.092c0.822,0,1.491-0.667,1.491-1.488 s-0.668-1.488-1.491-1.488h-2.067c-0.193,0-0.35-0.157-0.35-0.35s0.157-0.35,0.35-0.35h2.067c1.208,0,2.191,0.981,2.191,2.188 S13.973,23.18,12.765,23.18z"/></g><g><path fill="#010101" d="M4.1,18.938c-0.088,0-0.176-0.033-0.245-0.1c-0.138-0.135-0.141-0.357-0.006-0.495l1.133-1.16 c0.136-0.139,0.356-0.141,0.495-0.006c0.138,0.135,0.141,0.357,0.006,0.495l-1.133,1.16C4.281,18.903,4.19,18.938,4.1,18.938z"/></g><g><path fill="#010101" d="M3.222,21.822c-0.09,0-0.179-0.034-0.248-0.103c-0.137-0.137-0.137-0.358,0-0.495l1.161-1.159 c0.137-0.137,0.358-0.137,0.495,0c0.137,0.137,0.137,0.358,0,0.495L3.469,21.72C3.4,21.788,3.311,21.822,3.222,21.822z"/></g><g><path fill="#010101" d="M5.374,21.822c-0.09,0-0.179-0.034-0.248-0.103c-0.137-0.137-0.137-0.358,0-0.495l1.16-1.159 c0.137-0.137,0.358-0.136,0.495,0c0.137,0.137,0.137,0.358,0,0.495l-1.16,1.159C5.553,21.788,5.463,21.822,5.374,21.822z"/></g><g><path fill="#010101" d="M8.602,22.444c-0.046,0-0.092-0.009-0.136-0.028c-0.153-0.065-0.24-0.229-0.207-0.392l0.708-3.482H7.469 c-0.11,0-0.213-0.052-0.279-0.139c-0.066-0.088-0.087-0.201-0.057-0.307l1.218-4.27c0.043-0.15,0.18-0.254,0.336-0.254h3.059 c0.13,0,0.25,0.072,0.31,0.188c0.061,0.115,0.052,0.254-0.022,0.361l-1.403,2.023h1.795c0.13,0,0.249,0.072,0.31,0.187 s0.053,0.254-0.021,0.361l-3.823,5.599C8.824,22.39,8.714,22.444,8.602,22.444z M7.933,17.842h1.462 c0.105,0,0.205,0.047,0.271,0.128c0.066,0.082,0.093,0.188,0.072,0.292L9.29,20.466l2.473-3.62H9.961 c-0.13,0-0.25-0.072-0.31-0.188c-0.061-0.115-0.052-0.254,0.022-0.361l1.403-2.023H8.951L7.933,17.842z"/></g></g><metadata><rdf:RDF xmlns:dc="http://purl.org/dc/elements/1.1/" xmlns:rdf="http://www.w3.org/1999/02/22-rdf-syntax-ns#" xmlns:rdfs="http://www.w3.org/2000/01/rdf-schema#"><rdf:Description about="https://iconscout.com/legal#licenses" dc:date="2016-12-14" dc:description="Weather, Thunder, Forecast, Sun, Wind, Cloudy, Lightning" dc:format="image/svg+xml" dc:language="en" dc:publisher="Iconscout" dc:title="Weather, Thunder, Forecast, Sun, Wind, Cloudy, Lightning"><dc:creator><rdf:Bag><rdf:li>Chamestudio</rdf:li></rdf:Bag></dc:creator></rdf:Description></rdf:RDF></metadata></svg>