<?xml version="1.0" encoding="utf-8"?>
<!DOCTYPE svg PUBLIC "-//W3C//DTD SVG 1.0//EN" "http://www.w3.org/TR/2001/REC-SVG-20010904/DTD/svg10.dtd">
<svg xmlns="http://www.w3.org/2000/svg" xmlns:xlink="http://www.w3.org/1999/xlink" version="1.0" id="Layer_1" x="0px" y="0px" width="24px" height="24px" viewBox="0 0 24 24" enable-background="new 0 0 24 24" xml:space="preserve">
<g>
	<g>
		<path fill="#010101" d="M11.235,18.56c-0.137,0-0.313-0.049-0.527-0.212c-0.667-0.508-1.615-2.086-1.497-4.349    c0.039-0.717-0.524-1.642-1.121-2.621c-0.592-0.97-1.262-2.069-1.532-3.25C6.514,7.941,6.632,7.753,6.82,7.709    c0.195-0.041,0.377,0.076,0.419,0.263c0.246,1.07,0.857,2.072,1.448,3.042c0.654,1.074,1.273,2.089,1.223,3.022    c-0.101,1.92,0.66,3.212,1.105,3.657c0.526-2.965,1.907-4.377,3.132-5.631c1.126-1.152,2.099-2.147,2.2-4.17    c0.01-0.193,0.174-0.346,0.367-0.332c0.193,0.01,0.342,0.174,0.332,0.367c-0.114,2.288-1.225,3.423-2.398,4.625    c-1.271,1.3-2.585,2.645-3.013,5.699c-0.019,0.132-0.11,0.242-0.236,0.284C11.354,18.549,11.299,18.56,11.235,18.56z"/>
	</g>
	<g>
		<path fill="#010101" d="M11.742,8.882c-2.237,0-6.467-0.357-6.467-1.708c0-1.37,4.064-1.735,6.467-1.735    c2.401,0,6.465,0.366,6.465,1.735C18.207,8.525,13.979,8.882,11.742,8.882z M11.742,6.139c-3.596,0-5.666,0.678-5.768,1.041    c0.127,0.337,2.222,1.001,5.768,1.001c3.545,0,5.639-0.664,5.767-1.02C17.406,6.817,15.337,6.139,11.742,6.139z"/>
	</g>
	<g>
		<path fill="#010101" d="M11.745,10.313c-0.443,0-0.883-0.016-1.305-0.047c-0.192-0.015-0.337-0.183-0.322-0.375    c0.015-0.192,0.18-0.332,0.375-0.323c2.738,0.207,5.262-0.285,5.81-0.854c0.133-0.139,0.355-0.144,0.494-0.01    c0.14,0.134,0.145,0.356,0.01,0.495C16.088,9.946,13.874,10.313,11.745,10.313z"/>
	</g>
	<g>
		<path fill="#010101" d="M11.742,11.794c-0.193,0-0.35-0.157-0.35-0.35s0.156-0.35,0.35-0.35c1.296,0,2.51-0.136,3.418-0.384    c0.184-0.053,0.378,0.059,0.43,0.246c0.051,0.187-0.06,0.378-0.246,0.43C14.378,11.649,13.099,11.794,11.742,11.794z"/>
	</g>
	<g>
		<path fill="#010101" d="M11.742,13.265c-2.569,0-5.334-0.534-5.334-1.708c0-0.355,0.244-0.854,1.407-1.211    c0.185-0.058,0.38,0.047,0.438,0.232c0.057,0.185-0.048,0.38-0.232,0.437c-0.745,0.229-0.913,0.474-0.913,0.542    c0,0.292,1.624,1.007,4.635,1.007c0.193,0,0.35,0.157,0.35,0.35S11.936,13.265,11.742,13.265z"/>
	</g>
	<g>
		<path fill="#010101" d="M11.682,14.546c-0.407,0-0.821-0.012-1.236-0.038c-0.193-0.012-0.34-0.178-0.328-0.371    c0.012-0.192,0.177-0.343,0.371-0.328c1.908,0.116,3.802-0.049,4.934-0.435c0.8-0.253,0.954-0.5,0.952-0.552    c-0.004-0.076-0.265-0.418-1.483-0.698c-0.188-0.043-0.307-0.231-0.263-0.419c0.043-0.188,0.228-0.304,0.419-0.263    c1.32,0.303,2.002,0.758,2.026,1.352c0.021,0.519-0.461,0.938-1.433,1.245C14.686,14.365,13.235,14.546,11.682,14.546z"/>
	</g>
	<g>
		<path fill="#010101" d="M10.893,16.036c-0.008,0-0.016,0-0.023-0.001c-0.435-0.029-0.867-0.058-1.272-0.116    c-0.191-0.027-0.324-0.205-0.297-0.396c0.027-0.191,0.184-0.325,0.396-0.297c0.388,0.056,0.803,0.083,1.22,0.111    c0.192,0.013,0.339,0.18,0.326,0.373C11.229,15.894,11.075,16.036,10.893,16.036z"/>
	</g>
	<g>
		<path fill="#010101" d="M17.461,10.663c-0.127,0-0.25-0.07-0.312-0.191c-0.088-0.172-0.02-0.383,0.152-0.471    c0.453-0.231,0.724-0.49,0.724-0.692c0-0.202-0.271-0.461-0.724-0.692c-0.172-0.088-0.24-0.298-0.152-0.471s0.3-0.241,0.471-0.152    c0.733,0.374,1.104,0.816,1.104,1.315c0,0.499-0.371,0.941-1.104,1.315C17.569,10.651,17.515,10.663,17.461,10.663z"/>
	</g>
</g>

	
	
	<metadata>
		<rdf:RDF xmlns:rdf="http://www.w3.org/1999/02/22-rdf-syntax-ns#" xmlns:rdfs="http://www.w3.org/2000/01/rdf-schema#" xmlns:dc="http://purl.org/dc/elements/1.1/">
			<rdf:Description about="https://iconscout.com/legal#licenses" dc:title="Weather, Forecast, Wind, Storm, High, Disaster, Tornedo" dc:description="Weather, Forecast, Wind, Storm, High, Disaster, Tornedo" dc:publisher="Iconscout" dc:date="2016-12-14" dc:format="image/svg+xml" dc:language="en">
				<dc:creator>
					<rdf:Bag>
						<rdf:li>Chamestudio</rdf:li>
					</rdf:Bag>
				</dc:creator>
			</rdf:Description>
		</rdf:RDF>
    </metadata></svg>
