<?xml version="1.0" encoding="utf-8"?>
<!DOCTYPE svg PUBLIC "-//W3C//DTD SVG 1.0//EN" "http://www.w3.org/TR/2001/REC-SVG-20010904/DTD/svg10.dtd">
<svg xmlns="http://www.w3.org/2000/svg" xmlns:xlink="http://www.w3.org/1999/xlink" version="1.0" id="Layer_1" x="0px" y="0px" width="24px" height="24px" viewBox="0 0 24 24" enable-background="new 0 0 24 24" xml:space="preserve">
<g>
	<path fill="#010101" d="M15.072,17.27c-0.058,0-0.116-0.014-0.168-0.043l-2.98-1.635L8.89,17.147   c-0.117,0.061-0.262,0.049-0.369-0.032c-0.107-0.08-0.159-0.214-0.134-0.346l0.645-3.353l-2.417-2.414   C6.52,10.91,6.487,10.77,6.529,10.644c0.043-0.126,0.153-0.217,0.285-0.235L10.2,9.953l1.53-3.031   c0.06-0.119,0.181-0.21,0.316-0.192c0.133,0.001,0.254,0.079,0.312,0.199l1.478,3.086l3.36,0.537   c0.131,0.021,0.239,0.115,0.278,0.243c0.04,0.127,0.003,0.266-0.094,0.357l-2.473,2.334l0.494,3.276   c0.024,0.047,0.037,0.101,0.037,0.157c0,0.196-0.176,0.346-0.358,0.35C15.078,17.27,15.075,17.27,15.072,17.27z M11.93,14.845   c0.058,0,0.116,0.015,0.168,0.043l2.523,1.384l-0.432-2.863c-0.018-0.113,0.022-0.228,0.105-0.307l2.089-1.972l-2.84-0.453   c-0.113-0.018-0.21-0.091-0.26-0.195l-1.25-2.61l-1.292,2.56c-0.052,0.103-0.151,0.174-0.266,0.189l-2.867,0.386l2.048,2.045   c0.082,0.082,0.118,0.2,0.097,0.313l-0.544,2.83l2.56-1.313C11.82,14.858,11.875,14.845,11.93,14.845z"/>
</g>

	
	
	<metadata>
		<rdf:RDF xmlns:rdf="http://www.w3.org/1999/02/22-rdf-syntax-ns#" xmlns:rdfs="http://www.w3.org/2000/01/rdf-schema#" xmlns:dc="http://purl.org/dc/elements/1.1/">
			<rdf:Description about="https://iconscout.com/legal#licenses" dc:title="Weather, Star, Galaxy, Night, Sheriff, Rating, Favourite" dc:description="Weather, Star, Galaxy, Night, Sheriff, Rating, Favourite" dc:publisher="Iconscout" dc:date="2016-12-14" dc:format="image/svg+xml" dc:language="en">
				<dc:creator>
					<rdf:Bag>
						<rdf:li>Chamestudio</rdf:li>
					</rdf:Bag>
				</dc:creator>
			</rdf:Description>
		</rdf:RDF>
    </metadata></svg>
