<svg xmlns="http://www.w3.org/2000/svg" xmlns:xlink="http://www.w3.org/1999/xlink" id="Layer_1" width="24" height="24" x="0" y="0" enable-background="new 0 0 24 24" version="1.0" viewBox="0 0 24 24" xml:space="preserve"><g><g><path fill="#010101" d="M13.621,16.114c-0.588,0-1.155-0.139-1.685-0.412c-0.47-0.251-0.881-0.597-1.193-1.003 c-0.086-0.111-0.097-0.262-0.028-0.385c0.068-0.122,0.203-0.187,0.344-0.177c1.192,0.134,2.349-0.496,2.91-1.567 c0.516-1.033,0.387-2.284-0.333-3.181c-0.087-0.108-0.101-0.257-0.037-0.38c0.064-0.123,0.214-0.195,0.333-0.188 c0.447,0.029,0.918,0.17,1.361,0.408c0.862,0.454,1.502,1.212,1.799,2.135c0.299,0.93,0.214,1.916-0.24,2.776 C16.232,15.356,14.994,16.114,13.621,16.114z M11.855,14.822c0.128,0.097,0.264,0.184,0.406,0.26 c0.425,0.219,0.884,0.332,1.359,0.332c1.108,0,2.108-0.612,2.609-1.596c0.367-0.697,0.436-1.491,0.195-2.24 c-0.241-0.747-0.76-1.362-1.461-1.731c-0.106-0.057-0.214-0.106-0.321-0.149c0.461,0.998,0.455,2.177-0.052,3.192 C14.031,13.957,13.012,14.667,11.855,14.822z"/></g><g><path fill="#010101" d="M8.132,13.083c-0.065,0-0.132-0.019-0.189-0.056c-0.111-0.071-0.173-0.2-0.158-0.331l0.15-1.429 L6.856,10.34c-0.101-0.087-0.144-0.223-0.11-0.352C6.778,9.859,6.882,9.76,7.012,9.732l1.406-0.301l0.553-1.33 C9.022,7.979,9.14,7.895,9.273,7.887c0.132,0,0.261,0.061,0.326,0.178l0.702,1.253l1.429,0.125 c0.132,0.012,0.246,0.096,0.295,0.219c0.049,0.123,0.024,0.262-0.063,0.361l-0.955,1.08l0.303,1.277 c0.032,0.053,0.051,0.115,0.051,0.182c0,0.196-0.162,0.344-0.358,0.35c-0.053,0-0.102-0.008-0.15-0.03l-1.308-0.578L8.31,13.034 C8.255,13.066,8.193,13.083,8.132,13.083z M7.849,10.27l0.682,0.585c0.087,0.075,0.132,0.188,0.119,0.302l-0.097,0.92l0.79-0.466 c0.098-0.058,0.217-0.064,0.319-0.019l0.828,0.366l-0.207-0.869c-0.026-0.111,0.003-0.228,0.079-0.313l0.615-0.696l-0.921-0.081 c-0.115-0.01-0.219-0.077-0.275-0.177l-0.44-0.786L8.994,9.87c-0.044,0.106-0.138,0.184-0.25,0.208L7.849,10.27z"/></g></g><metadata><rdf:RDF xmlns:dc="http://purl.org/dc/elements/1.1/" xmlns:rdf="http://www.w3.org/1999/02/22-rdf-syntax-ns#" xmlns:rdfs="http://www.w3.org/2000/01/rdf-schema#"><rdf:Description about="https://iconscout.com/legal#licenses" dc:date="2016-12-14" dc:description="Weather, Thunder, Forecast, Half, Moon, Star, Night" dc:format="image/svg+xml" dc:language="en" dc:publisher="Iconscout" dc:title="Weather, Thunder, Forecast, Half, Moon, Star, Night"><dc:creator><rdf:Bag><rdf:li>Chamestudio</rdf:li></rdf:Bag></dc:creator></rdf:Description></rdf:RDF></metadata></svg>