<svg xmlns="http://www.w3.org/2000/svg" xmlns:svg="http://www.w3.org/2000/svg" id="Layer_1" width="36" height="36" x="0" y="0" enable-background="new 0 0 24 24" version="1.0" viewBox="0 0 36 36" xml:space="preserve"><g id="g3" transform="matrix(1.5967267,0,0,1.5967267,-1.1607204,-1.1615188)"><g id="g5"><path id="path7" d="m 17.082,11.432 c -0.089,0 -0.175,-0.029 -0.236,-0.093 -0.133,-0.137 -0.159,-0.327 -0.024,-0.462 0.003,-0.003 0.063,-0.062 0.065,-0.065 C 17.468,10.27 17.802,9.533 17.828,8.74 17.854,7.956 17.574,7.211 17.04,6.642 15.941,5.471 14.079,5.402 12.887,6.492 12.745,6.622 12.523,6.613 12.393,6.47 12.263,6.327 12.272,6.106 12.415,5.976 c 1.474,-1.344 3.777,-1.261 5.135,0.188 0.662,0.706 1.008,1.629 0.977,2.6 -0.032,0.981 -0.445,1.89 -1.163,2.561 -0.074,0.068 -0.18,0.107 -0.282,0.107 z" style="fill:#010101"/></g><g id="g9"><path id="path11" d="m 14.888,3.98 c -0.193,0 -0.35,-0.157 -0.35,-0.35 v -1.3 c 0,-0.193 0.157,-0.35 0.35,-0.35 0.193,0 0.35,0.157 0.35,0.35 v 1.3 c 0,0.194 -0.156,0.35 -0.35,0.35 z" style="fill:#010101"/></g><g id="g13"><path id="path15" d="m 21.345,9.127 h -1.303 c -0.193,0 -0.35,-0.157 -0.35,-0.35 0,-0.193 0.157,-0.35 0.35,-0.35 h 1.303 c 0.193,0 0.35,0.157 0.35,0.35 0,0.193 -0.157,0.35 -0.35,0.35 z" style="fill:#010101"/></g><g id="g17"><path id="path19" d="m 19.448,13.679 c -0.089,0 -0.179,-0.034 -0.247,-0.103 l -0.906,-0.905 c -0.137,-0.136 -0.137,-0.358 0,-0.495 0.137,-0.137 0.359,-0.137 0.495,0 l 0.906,0.905 c 0.137,0.136 0.137,0.358 0,0.495 -0.069,0.069 -0.158,0.103 -0.248,0.103 z" style="fill:#010101"/></g><g id="g21"><path id="path23" d="m 11.235,5.507 c -0.091,0 -0.183,-0.036 -0.251,-0.106 L 10.078,4.468 C 9.943,4.329 9.947,4.108 10.085,3.973 10.223,3.838 10.445,3.841 10.58,3.98 l 0.906,0.933 c 0.135,0.139 0.131,0.36 -0.007,0.495 -0.068,0.066 -0.156,0.099 -0.244,0.099 z" style="fill:#010101"/></g><g id="g25"><path id="path27" d="M 18.542,5.507 C 18.454,5.507 18.366,5.474 18.298,5.408 18.159,5.273 18.156,5.052 18.291,4.913 L 19.197,3.98 c 0.134,-0.14 0.355,-0.142 0.495,-0.007 0.139,0.135 0.142,0.356 0.007,0.495 l -0.906,0.933 c -0.069,0.071 -0.16,0.106 -0.251,0.106 z" style="fill:#010101"/></g><g id="g29"><path id="path31" d="m 11.519,16.281 c -0.193,0 -0.35,-0.157 -0.35,-0.35 0,-0.193 0.157,-0.35 0.35,-0.35 h 3.709 c 1.288,-0.075 2.312,-1.164 2.312,-2.478 0,-1.366 -1.113,-2.478 -2.482,-2.478 -0.132,0 -0.264,0.021 -0.414,0.042 -0.108,0.019 -0.259,-0.016 -0.337,-0.096 -0.078,-0.08 -0.151,-0.187 -0.132,-0.297 l 0.034,-0.177 c 0.022,-0.109 0.046,-0.221 0.046,-0.303 0,-2.13 -1.736,-3.863 -3.869,-3.863 -2.118,0 -3.841,1.733 -3.841,3.863 0,0.039 0.006,0.072 0.011,0.105 0.009,0.065 0.018,0.131 0.018,0.206 0,0.11 -0.052,0.213 -0.139,0.279 C 6.348,10.451 6.234,10.473 6.128,10.441 5.962,10.394 5.794,10.37 5.629,10.37 c -1.446,0 -2.623,1.175 -2.623,2.619 0,1.311 1.055,2.437 2.401,2.564 0.032,0.003 0.068,0.013 0.103,0.027 h 2.158 c 0.193,0 0.35,0.157 0.35,0.35 0,0.193 -0.157,0.35 -0.35,0.35 H 5.43 C 5.379,16.28 5.321,16.265 5.268,16.24 3.584,16.032 2.305,14.623 2.305,12.989 2.305,11.087 3.926,9.511 5.846,9.68 5.907,7.216 7.92,5.231 10.386,5.231 c 2.52,0 4.569,2.047 4.569,4.563 0,0.044 -0.003,0.089 -0.007,0.134 0.038,-0.002 0.074,-0.003 0.11,-0.003 1.754,0 3.182,1.426 3.182,3.178 0,1.685 -1.314,3.08 -2.992,3.177 l -3.729,10e-4 z" style="fill:#010101"/></g><g id="g33"><path id="path35" d="m 5.034,19.363 c -0.09,0 -0.179,-0.034 -0.248,-0.103 -0.137,-0.137 -0.137,-0.358 0,-0.495 l 1.161,-1.159 c 0.137,-0.137 0.358,-0.137 0.495,0 0.137,0.137 0.137,0.358 0,0.495 L 5.281,19.26 c -0.069,0.069 -0.158,0.103 -0.247,0.103 z" style="fill:#010101"/></g><g id="g37"><path id="path39" d="m 7.186,19.363 c -0.09,0 -0.179,-0.034 -0.248,-0.103 -0.137,-0.137 -0.137,-0.358 0,-0.495 L 8.1,17.606 c 0.137,-0.137 0.358,-0.137 0.495,0 0.137,0.137 0.137,0.358 0,0.495 L 7.433,19.26 c -0.068,0.069 -0.158,0.103 -0.247,0.103 z" style="fill:#010101"/></g><g id="g41"><path id="path43" d="m 11.49,19.363 c -0.09,0 -0.179,-0.034 -0.248,-0.103 -0.137,-0.137 -0.137,-0.358 0,-0.495 l 1.161,-1.159 c 0.137,-0.137 0.358,-0.137 0.495,0 0.137,0.137 0.137,0.358 0,0.495 l -1.161,1.159 c -0.068,0.069 -0.157,0.103 -0.247,0.103 z" style="fill:#010101"/></g><g id="g45"><path id="path47" d="m 13.643,19.363 c -0.09,0 -0.179,-0.034 -0.248,-0.103 -0.137,-0.137 -0.137,-0.358 0,-0.495 l 1.161,-1.159 c 0.137,-0.137 0.359,-0.136 0.495,0 0.137,0.137 0.137,0.358 0,0.495 L 13.89,19.26 c -0.068,0.069 -0.158,0.103 -0.247,0.103 z" style="fill:#010101"/></g><g id="g49"><path id="path51" d="m 2.769,22.021 c -0.09,0 -0.179,-0.034 -0.248,-0.103 -0.137,-0.137 -0.137,-0.358 0,-0.495 l 1.161,-1.159 c 0.137,-0.137 0.359,-0.136 0.495,0 0.137,0.137 0.137,0.358 0,0.495 l -1.161,1.159 c -0.068,0.068 -0.158,0.103 -0.247,0.103 z" style="fill:#010101"/></g><g id="g53"><path id="path55" d="m 4.92,22.021 c -0.09,0 -0.179,-0.034 -0.248,-0.103 -0.137,-0.137 -0.137,-0.358 0,-0.495 l 1.161,-1.159 c 0.137,-0.137 0.358,-0.137 0.495,0 0.137,0.137 0.137,0.358 0,0.495 L 5.167,21.918 C 5.099,21.986 5.01,22.021 4.92,22.021 z" style="fill:#010101"/></g><g id="g57"><path id="path59" d="m 7.073,22.021 c -0.09,0 -0.179,-0.034 -0.248,-0.103 -0.137,-0.137 -0.137,-0.358 0,-0.495 l 1.161,-1.159 c 0.137,-0.137 0.358,-0.137 0.495,0 0.137,0.137 0.137,0.358 0,0.495 L 7.32,21.918 c -0.069,0.068 -0.158,0.103 -0.247,0.103 z" style="fill:#010101"/></g><g id="g61"><path id="path63" d="m 9.225,22.021 c -0.09,0 -0.179,-0.034 -0.248,-0.103 -0.137,-0.137 -0.137,-0.358 0,-0.495 l 1.161,-1.159 c 0.137,-0.137 0.358,-0.137 0.495,0 0.137,0.137 0.137,0.358 0,0.495 l -1.161,1.159 c -0.069,0.068 -0.158,0.103 -0.247,0.103 z" style="fill:#010101"/></g><g id="g65"><path id="path67" d="m 11.377,22.021 c -0.09,0 -0.179,-0.034 -0.248,-0.103 -0.137,-0.137 -0.137,-0.358 0,-0.495 l 1.161,-1.159 c 0.137,-0.137 0.358,-0.137 0.495,0 0.137,0.137 0.137,0.358 0,0.495 l -1.161,1.159 c -0.068,0.068 -0.158,0.103 -0.247,0.103 z" style="fill:#010101"/></g><g id="g69"><path id="path71" d="M 8.771,20.154 C 8.725,20.154 8.678,20.145 8.633,20.126 8.48,20.06 8.394,19.895 8.429,19.731 L 9.16,16.28 H 7.667 C 7.558,16.28 7.455,16.229 7.389,16.142 7.323,16.055 7.301,15.942 7.33,15.837 l 1.189,-4.298 c 0.042,-0.152 0.18,-0.257 0.337,-0.257 h 3.087 c 0.13,0 0.249,0.072 0.31,0.187 0.061,0.115 0.053,0.254 -0.021,0.361 l -1.408,2.053 h 1.771 c 0.13,0 0.249,0.072 0.31,0.187 0.061,0.115 0.053,0.254 -0.021,0.361 l -3.823,5.57 C 8.993,20.1 8.884,20.154 8.771,20.154 z M 8.127,15.581 h 1.465 c 0.105,0 0.206,0.048 0.272,0.13 0.066,0.082 0.092,0.189 0.07,0.293 l -0.456,2.151 2.451,-3.571 h -1.771 c -0.13,0 -0.249,-0.072 -0.31,-0.187 -0.061,-0.115 -0.053,-0.254 0.021,-0.361 l 1.408,-2.053 H 9.123 l -0.996,3.598 z" style="fill:#010101"/></g></g><metadata/></svg>