<svg xmlns="http://www.w3.org/2000/svg" xmlns:xlink="http://www.w3.org/1999/xlink" id="Layer_1" width="24" height="24" x="0" y="0" enable-background="new 0 0 24 24" version="1.0" viewBox="0 0 24 24" xml:space="preserve"><g><g><path fill="#010101" d="M16.956,14.641H7.157c-0.053,0-0.105-0.014-0.153-0.038c-1.675-0.175-2.972-1.585-2.972-3.253 c0-1.814,1.491-3.291,3.324-3.291c0.075,0,0.146,0,0.218,0.002c0.05-2.474,2.079-4.47,4.567-4.47c2.504,0,4.541,2.047,4.541,4.563 c0,0.046-0.002,0.091-0.006,0.134c0.044-0.002,0.09-0.004,0.137-0.004c1.739,0,3.154,1.426,3.154,3.178 c0,1.715-1.286,3.081-2.992,3.177C16.97,14.64,16.963,14.641,16.956,14.641z M7.268,13.94h9.679 c1.324-0.08,2.322-1.143,2.322-2.478c0-1.366-1.102-2.478-2.455-2.478c-0.176,0-0.328,0.026-0.479,0.052 c-0.102,0.018-0.204-0.011-0.284-0.078c-0.078-0.066-0.123-0.164-0.123-0.267c0-0.1,0.014-0.2,0.03-0.304 c0.013-0.074,0.026-0.15,0.026-0.233c0-2.13-1.724-3.863-3.842-3.863c-2.133,0-3.869,1.733-3.869,3.863 c0,0.039,0.006,0.073,0.011,0.107C8.292,8.327,8.3,8.392,8.3,8.466c0,0.11-0.051,0.213-0.139,0.28 C8.074,8.812,7.962,8.833,7.854,8.802C7.704,8.759,7.565,8.759,7.356,8.759c-1.447,0-2.625,1.162-2.625,2.59 c0,1.359,1.042,2.461,2.424,2.563C7.195,13.916,7.233,13.926,7.268,13.94z"/></g><g><path fill="#010101" d="M6.761,17.723c-0.09,0-0.18-0.034-0.248-0.103c-0.137-0.137-0.136-0.358,0.001-0.495l1.162-1.159 c0.137-0.137,0.358-0.137,0.495,0c0.137,0.137,0.136,0.358-0.001,0.495L7.008,17.62C6.939,17.688,6.851,17.723,6.761,17.723z"/></g><g><path fill="#010101" d="M8.913,17.723c-0.09,0-0.18-0.034-0.248-0.103c-0.137-0.137-0.136-0.358,0.001-0.495l1.162-1.159 c0.137-0.137,0.358-0.137,0.495,0c0.137,0.137,0.136,0.358-0.001,0.495L9.16,17.62C9.092,17.688,9.003,17.723,8.913,17.723z"/></g><g><path fill="#010101" d="M11.065,17.723c-0.09,0-0.18-0.034-0.248-0.103c-0.137-0.137-0.136-0.358,0.001-0.495l1.162-1.159 c0.137-0.137,0.358-0.137,0.495,0c0.137,0.137,0.136,0.358-0.001,0.495l-1.162,1.159C11.244,17.688,11.155,17.723,11.065,17.723z"/></g><g><path fill="#010101" d="M13.218,17.723c-0.09,0-0.18-0.034-0.248-0.103c-0.137-0.137-0.136-0.358,0.001-0.495l1.162-1.159 c0.137-0.137,0.358-0.137,0.495,0c0.137,0.137,0.136,0.358-0.001,0.495l-1.162,1.159C13.396,17.688,13.308,17.723,13.218,17.723z"/></g><g><path fill="#010101" d="M15.37,17.723c-0.09,0-0.18-0.034-0.248-0.103c-0.136-0.137-0.136-0.358,0.001-0.495l1.16-1.159 c0.137-0.137,0.358-0.137,0.495,0c0.136,0.137,0.136,0.358-0.001,0.495l-1.16,1.159C15.549,17.688,15.46,17.723,15.37,17.723z"/></g><g><path fill="#010101" d="M6.251,20.409c-0.09,0-0.18-0.034-0.248-0.103c-0.137-0.137-0.136-0.358,0.001-0.495l1.162-1.159 c0.137-0.137,0.358-0.137,0.495,0c0.137,0.137,0.136,0.358-0.001,0.495l-1.162,1.159C6.43,20.375,6.341,20.409,6.251,20.409z"/></g><g><path fill="#010101" d="M8.403,20.409c-0.09,0-0.18-0.034-0.248-0.103c-0.137-0.137-0.136-0.358,0.001-0.495l1.162-1.159 c0.137-0.137,0.358-0.137,0.495,0c0.137,0.137,0.136,0.358-0.001,0.495L8.65,20.306C8.582,20.375,8.493,20.409,8.403,20.409z"/></g><g><path fill="#010101" d="M10.556,20.409c-0.09,0-0.18-0.034-0.248-0.103c-0.137-0.137-0.136-0.358,0.001-0.495l1.162-1.159 c0.137-0.137,0.358-0.137,0.495,0c0.137,0.137,0.136,0.358-0.001,0.495l-1.162,1.159C10.734,20.375,10.646,20.409,10.556,20.409z"/></g><g><path fill="#010101" d="M12.708,20.409c-0.09,0-0.18-0.034-0.248-0.103c-0.137-0.137-0.136-0.358,0.001-0.495l1.162-1.159 c0.137-0.137,0.358-0.137,0.495,0c0.137,0.137,0.136,0.358-0.001,0.495l-1.162,1.159C12.887,20.375,12.798,20.409,12.708,20.409z"/></g><g><path fill="#010101" d="M14.86,20.409c-0.09,0-0.18-0.034-0.248-0.103c-0.136-0.137-0.136-0.358,0.001-0.495l1.16-1.159 c0.137-0.137,0.358-0.137,0.495,0c0.136,0.137,0.136,0.358-0.001,0.495l-1.16,1.159C15.039,20.375,14.95,20.409,14.86,20.409z"/></g></g><metadata><rdf:RDF xmlns:dc="http://purl.org/dc/elements/1.1/" xmlns:rdf="http://www.w3.org/1999/02/22-rdf-syntax-ns#" xmlns:rdfs="http://www.w3.org/2000/01/rdf-schema#"><rdf:Description about="https://iconscout.com/legal#licenses" dc:date="2016-12-14" dc:description="Weather, Rain, Forecast, Cloud, Clouds, Cloudy, Dark" dc:format="image/svg+xml" dc:language="en" dc:publisher="Iconscout" dc:title="Weather, Rain, Forecast, Cloud, Clouds, Cloudy, Dark"><dc:creator><rdf:Bag><rdf:li>Chamestudio</rdf:li></rdf:Bag></dc:creator></rdf:Description></rdf:RDF></metadata></svg>