<?xml version="1.0" encoding="utf-8"?>
<!DOCTYPE svg PUBLIC "-//W3C//DTD SVG 1.0//EN" "http://www.w3.org/TR/2001/REC-SVG-20010904/DTD/svg10.dtd">
<svg xmlns="http://www.w3.org/2000/svg" xmlns:xlink="http://www.w3.org/1999/xlink" version="1.0" id="Layer_1" x="0px" y="0px" width="24px" height="24px" viewBox="0 0 24 24" enable-background="new 0 0 24 24" xml:space="preserve">
<g>
	<g>
		<path fill="#010101" d="M14.039,13.439c-0.193,0-0.35-0.157-0.35-0.35s0.157-0.35,0.35-0.35h5.578    c1.304-0.074,2.34-1.163,2.34-2.478c0-1.366-1.113-2.477-2.482-2.477c-0.152,0-0.329,0.026-0.48,0.052    c-0.113,0.021-0.225-0.018-0.305-0.098c-0.08-0.08-0.116-0.193-0.098-0.305c0.025-0.152,0.052-0.303,0.052-0.479    c0-2.13-1.723-3.864-3.84-3.864c-0.876,0-1.732,0.313-2.409,0.88c-0.148,0.124-0.369,0.105-0.493-0.043    c-0.125-0.148-0.105-0.369,0.043-0.493c0.803-0.673,1.818-1.044,2.859-1.044c2.503,0,4.541,2.047,4.541,4.564    c0,0.046-0.001,0.091-0.004,0.135c0.046-0.002,0.092-0.004,0.135-0.004c1.754,0,3.182,1.425,3.182,3.177    c0,1.686-1.327,3.082-3.021,3.178L14.039,13.439z"/>
	</g>
	<g>
		<path fill="#010101" d="M10.414,21.611c-0.046,0-0.092-0.009-0.137-0.028c-0.153-0.065-0.239-0.229-0.206-0.392l0.708-3.482H9.281    c-0.109,0-0.212-0.051-0.279-0.138c-0.066-0.087-0.088-0.2-0.059-0.306l1.19-4.27c0.042-0.151,0.18-0.256,0.337-0.256h3.087    c0.13,0,0.249,0.072,0.31,0.187s0.053,0.254-0.021,0.361l-1.408,2.054h1.799c0.13,0,0.249,0.072,0.31,0.187    c0.061,0.115,0.053,0.254-0.021,0.361l-3.823,5.57C10.636,21.556,10.526,21.611,10.414,21.611z M9.742,17.008h1.465    c0.105,0,0.205,0.047,0.271,0.128c0.066,0.082,0.093,0.188,0.072,0.292l-0.45,2.215l2.473-3.603h-1.799    c-0.13,0-0.249-0.072-0.31-0.187s-0.053-0.254,0.021-0.361l1.408-2.054h-2.157L9.742,17.008z"/>
	</g>
	<g>
		<path fill="#010101" d="M14.237,13.439H4.439c-0.053,0-0.105-0.014-0.153-0.038c-1.685-0.174-2.944-1.555-2.944-3.253    c0-1.814,1.479-3.291,3.295-3.291c0.075,0,0.146,0,0.217,0.002c0.05-2.474,2.08-4.47,4.568-4.47c2.504,0,4.542,2.047,4.542,4.564    c0,0.046-0.001,0.091-0.004,0.134c0.044-0.002,0.089-0.004,0.135-0.004c1.739,0,3.154,1.425,3.154,3.177    c0,1.715-1.287,3.081-2.992,3.178C14.25,13.438,14.244,13.439,14.237,13.439z M4.549,12.739h9.678    c1.325-0.08,2.322-1.144,2.322-2.478c0-1.366-1.101-2.477-2.454-2.477c-0.177,0-0.329,0.026-0.48,0.052    c-0.111,0.021-0.225-0.018-0.305-0.098s-0.116-0.193-0.098-0.305c0.025-0.152,0.052-0.303,0.052-0.479    c0-2.13-1.723-3.864-3.841-3.864c-2.133,0-3.869,1.733-3.869,3.864c0,0.038,0.006,0.071,0.01,0.105    c0.01,0.065,0.018,0.131,0.018,0.206c0,0.11-0.052,0.213-0.139,0.279C5.355,7.609,5.243,7.631,5.136,7.6    C4.985,7.557,4.847,7.557,4.638,7.557c-1.431,0-2.595,1.162-2.595,2.59c0,1.361,1.029,2.463,2.395,2.564    C4.477,12.714,4.515,12.724,4.549,12.739z"/>
	</g>
</g>

	
	
	<metadata>
		<rdf:RDF xmlns:rdf="http://www.w3.org/1999/02/22-rdf-syntax-ns#" xmlns:rdfs="http://www.w3.org/2000/01/rdf-schema#" xmlns:dc="http://purl.org/dc/elements/1.1/">
			<rdf:Description about="https://iconscout.com/legal#licenses" dc:title="Weather, Thunder, Forecast, Cloud, Clouds, Cloudy, Lightning" dc:description="Weather, Thunder, Forecast, Cloud, Clouds, Cloudy, Lightning" dc:publisher="Iconscout" dc:date="2016-12-14" dc:format="image/svg+xml" dc:language="en">
				<dc:creator>
					<rdf:Bag>
						<rdf:li>Chamestudio</rdf:li>
					</rdf:Bag>
				</dc:creator>
			</rdf:Description>
		</rdf:RDF>
    </metadata></svg>
