<?xml version="1.0" encoding="utf-8"?>
<!DOCTYPE svg PUBLIC "-//W3C//DTD SVG 1.0//EN" "http://www.w3.org/TR/2001/REC-SVG-20010904/DTD/svg10.dtd">
<svg xmlns="http://www.w3.org/2000/svg" xmlns:xlink="http://www.w3.org/1999/xlink" version="1.0" id="Layer_1" x="0px" y="0px" width="24px" height="24px" viewBox="0 0 24 24" enable-background="new 0 0 24 24" xml:space="preserve">
<g>
	<g>
		<path fill="#010101" d="M16.956,14.415H7.157c-0.053,0-0.105-0.014-0.154-0.039c-1.674-0.174-2.971-1.584-2.971-3.252    c0-1.815,1.491-3.292,3.323-3.292c0.075,0,0.146,0,0.217,0.002c0.05-2.474,2.081-4.47,4.569-4.47c2.504,0,4.542,2.047,4.542,4.564    c0,0.046-0.002,0.091-0.006,0.134c0.044-0.002,0.09-0.004,0.138-0.004c1.738,0,3.153,1.425,3.153,3.177    c0,1.715-1.286,3.081-2.991,3.178C16.969,14.414,16.963,14.415,16.956,14.415z M7.268,13.714h9.678    c1.324-0.08,2.321-1.144,2.321-2.478c0-1.366-1.1-2.477-2.453-2.477c-0.177,0-0.329,0.026-0.48,0.052    c-0.1,0.019-0.205-0.012-0.284-0.078c-0.079-0.066-0.124-0.164-0.124-0.267c0-0.1,0.015-0.2,0.031-0.304    c0.012-0.074,0.025-0.151,0.025-0.233c0-2.13-1.723-3.864-3.841-3.864c-2.134,0-3.87,1.733-3.87,3.864    c0,0.038,0.006,0.071,0.01,0.105C8.292,8.099,8.3,8.165,8.3,8.239c0,0.11-0.052,0.213-0.139,0.279    C8.073,8.585,7.96,8.608,7.854,8.576C7.703,8.533,7.565,8.533,7.355,8.533c-1.446,0-2.623,1.163-2.623,2.591    c0,1.359,1.042,2.461,2.423,2.563C7.195,13.69,7.233,13.7,7.268,13.714z"/>
	</g>
	<g>
		<path fill="#010101" d="M7.837,17.383c-0.193,0-0.35-0.157-0.35-0.35v-1.386c0-0.193,0.157-0.35,0.35-0.35s0.35,0.157,0.35,0.35    v1.386C8.187,17.227,8.03,17.383,7.837,17.383z"/>
	</g>
	<g>
		<path fill="#010101" d="M8.545,16.705H7.157c-0.193,0-0.35-0.157-0.35-0.35s0.157-0.35,0.35-0.35h1.388    c0.193,0,0.35,0.157,0.35,0.35S8.738,16.705,8.545,16.705z"/>
	</g>
	<g>
		<path fill="#010101" d="M11.943,17.383c-0.193,0-0.35-0.157-0.35-0.35v-1.386c0-0.193,0.157-0.35,0.35-0.35s0.35,0.157,0.35,0.35    v1.386C12.293,17.227,12.137,17.383,11.943,17.383z"/>
	</g>
	<g>
		<path fill="#010101" d="M12.651,16.705h-1.416c-0.193,0-0.35-0.157-0.35-0.35s0.157-0.35,0.35-0.35h1.416    c0.193,0,0.35,0.157,0.35,0.35S12.845,16.705,12.651,16.705z"/>
	</g>
	<g>
		<path fill="#010101" d="M16.248,17.667c-0.193,0-0.35-0.157-0.35-0.35v-1.386c0-0.193,0.157-0.35,0.35-0.35s0.35,0.157,0.35,0.35    v1.386C16.598,17.51,16.441,17.667,16.248,17.667z"/>
	</g>
	<g>
		<path fill="#010101" d="M16.956,16.988h-1.388c-0.193,0-0.35-0.157-0.35-0.35s0.157-0.35,0.35-0.35h1.388    c0.193,0,0.35,0.157,0.35,0.35S17.149,16.988,16.956,16.988z"/>
	</g>
	<g>
		<path fill="#010101" d="M9.819,20.38c-0.193,0-0.35-0.157-0.35-0.35v-1.386c0-0.193,0.157-0.35,0.35-0.35s0.35,0.157,0.35,0.35    v1.386C10.169,20.224,10.013,20.38,9.819,20.38z"/>
	</g>
	<g>
		<path fill="#010101" d="M10.527,19.702H9.14c-0.193,0-0.35-0.157-0.35-0.35s0.157-0.35,0.35-0.35h1.388    c0.193,0,0.35,0.157,0.35,0.35S10.721,19.702,10.527,19.702z"/>
	</g>
	<g>
		<path fill="#010101" d="M14.152,20.635c-0.193,0-0.35-0.157-0.35-0.35v-1.414c0-0.193,0.157-0.35,0.35-0.35s0.35,0.157,0.35,0.35    v1.414C14.502,20.479,14.346,20.635,14.152,20.635z"/>
	</g>
	<g>
		<path fill="#010101" d="M14.832,19.928h-1.388c-0.193,0-0.35-0.157-0.35-0.35s0.157-0.35,0.35-0.35h1.388    c0.193,0,0.35,0.157,0.35,0.35S15.025,19.928,14.832,19.928z"/>
	</g>
</g>

	
	
	<metadata>
		<rdf:RDF xmlns:rdf="http://www.w3.org/1999/02/22-rdf-syntax-ns#" xmlns:rdfs="http://www.w3.org/2000/01/rdf-schema#" xmlns:dc="http://purl.org/dc/elements/1.1/">
			<rdf:Description about="https://iconscout.com/legal#licenses" dc:title="Weather, Thunder, Forecast, Snow, Cloud, Nature, Wind" dc:description="Weather, Thunder, Forecast, Snow, Cloud, Nature, Wind" dc:publisher="Iconscout" dc:date="2016-12-14" dc:format="image/svg+xml" dc:language="en">
				<dc:creator>
					<rdf:Bag>
						<rdf:li>Chamestudio</rdf:li>
					</rdf:Bag>
				</dc:creator>
			</rdf:Description>
		</rdf:RDF>
    </metadata></svg>
