<?xml version="1.0" encoding="utf-8"?>
<!DOCTYPE svg PUBLIC "-//W3C//DTD SVG 1.0//EN" "http://www.w3.org/TR/2001/REC-SVG-20010904/DTD/svg10.dtd">
<svg xmlns="http://www.w3.org/2000/svg" xmlns:xlink="http://www.w3.org/1999/xlink" version="1.0" id="Layer_1" x="0px" y="0px" width="24px" height="24px" viewBox="0 0 24 24" enable-background="new 0 0 24 24" xml:space="preserve">
<g>
	<g>
		<path fill="#010101" d="M6.818,11.629c-0.088,0-0.176-0.033-0.244-0.099c-0.571-0.556-0.89-1.301-0.895-2.098    s0.302-1.544,0.864-2.105c1.131-1.165,2.991-1.207,4.144-0.088c0.139,0.135,0.142,0.356,0.007,0.495    c-0.134,0.14-0.355,0.142-0.495,0.007c-0.875-0.85-2.291-0.813-3.157,0.078C6.609,8.25,6.376,8.821,6.38,9.428    s0.246,1.176,0.683,1.6c0.139,0.135,0.142,0.356,0.007,0.495C7.001,11.594,6.909,11.629,6.818,11.629z"/>
	</g>
	<g>
		<path fill="#010101" d="M8.66,5.748c-0.193,0-0.35-0.157-0.35-0.35V4.38c0-0.193,0.156-0.35,0.35-0.35s0.35,0.157,0.35,0.35v1.018    C9.01,5.591,8.854,5.748,8.66,5.748z"/>
	</g>
	<g>
		<path fill="#010101" d="M4.553,9.848H3.506c-0.193,0-0.35-0.157-0.35-0.35s0.156-0.35,0.35-0.35h1.047    c0.193,0,0.35,0.157,0.35,0.35S4.746,9.848,4.553,9.848z"/>
	</g>
	<g>
		<path fill="#010101" d="M5.742,6.963c-0.092,0-0.184-0.036-0.252-0.107L4.783,6.121c-0.135-0.14-0.13-0.361,0.01-0.495    c0.139-0.133,0.36-0.129,0.494,0.01l0.707,0.735c0.135,0.14,0.13,0.361-0.01,0.495C5.917,6.931,5.829,6.963,5.742,6.963z"/>
	</g>
	<g>
		<path fill="#010101" d="M5.035,13.467c-0.09,0-0.179-0.034-0.247-0.103c-0.137-0.137-0.137-0.358,0-0.495l0.707-0.707    c0.137-0.137,0.357-0.137,0.494,0s0.137,0.358,0,0.495l-0.707,0.707C5.214,13.433,5.125,13.467,5.035,13.467z"/>
	</g>
	<g>
		<path fill="#010101" d="M11.547,6.963c-0.09,0-0.18-0.034-0.248-0.103c-0.136-0.137-0.136-0.358,0.001-0.495l0.736-0.735    c0.137-0.137,0.358-0.137,0.495,0c0.136,0.137,0.136,0.358-0.001,0.495l-0.736,0.735C11.726,6.929,11.637,6.963,11.547,6.963z"/>
	</g>
	<g>
		<path fill="#010101" d="M12.539,15.587H8.377c-0.055,0-0.108-0.015-0.158-0.041c-1.375-0.173-2.4-1.299-2.4-2.656    c0-1.487,1.224-2.697,2.729-2.697c0.036,0,0.072,0,0.106,0c0.079-1.978,1.702-3.563,3.687-3.563c1.574,0,2.982,1.027,3.503,2.556    c0.063,0.183-0.035,0.382-0.218,0.444c-0.188,0.065-0.382-0.036-0.444-0.218c-0.425-1.245-1.566-2.081-2.841-2.081    c-1.648,0-2.99,1.352-2.99,3.014v0.227c0,0.105-0.047,0.204-0.128,0.271c-0.08,0.066-0.188,0.093-0.29,0.073    c-0.122-0.024-0.242-0.024-0.385-0.021c-1.119,0-2.029,0.896-2.029,1.997c0,1.025,0.801,1.872,1.862,1.97    c0.037,0.003,0.073,0.013,0.105,0.027h7.679c0.329-0.022,0.667-0.14,0.928-0.329c0.155-0.113,0.375-0.079,0.488,0.078    c0.113,0.157,0.079,0.375-0.078,0.489c-0.371,0.27-0.825,0.429-1.314,0.461L12.539,15.587z"/>
	</g>
	<g>
		<path fill="#010101" d="M8.971,18.104c-0.193,0-0.35-0.157-0.35-0.35v-1.301c0-0.193,0.156-0.35,0.35-0.35s0.35,0.157,0.35,0.35    v1.301C9.32,17.947,9.164,18.104,8.971,18.104z"/>
	</g>
	<g>
		<path fill="#010101" d="M10.387,20.592c-0.193,0-0.35-0.157-0.35-0.35V18.97c0-0.193,0.156-0.35,0.35-0.35s0.35,0.157,0.35,0.35    v1.272C10.736,20.436,10.58,20.592,10.387,20.592z"/>
	</g>
	<g>
		<path fill="#010101" d="M11.803,18.104c-0.193,0-0.35-0.157-0.35-0.35v-1.301c0-0.193,0.156-0.35,0.35-0.35s0.35,0.157,0.35,0.35    v1.301C12.152,17.947,11.996,18.104,11.803,18.104z"/>
	</g>
	<g>
		<path fill="#010101" d="M13.246,20.592c-0.193,0-0.35-0.157-0.35-0.35V18.97c0-0.193,0.156-0.35,0.35-0.35s0.35,0.157,0.35,0.35    v1.272C13.596,20.436,13.439,20.592,13.246,20.592z"/>
	</g>
	<g>
		<path fill="#010101" d="M14.662,18.104c-0.193,0-0.35-0.157-0.35-0.35v-1.301c0-0.193,0.156-0.35,0.35-0.35s0.35,0.157,0.35,0.35    v1.301C15.012,17.947,14.855,18.104,14.662,18.104z"/>
	</g>
	<g>
		<path fill="#010101" d="M16.078,20.592c-0.193,0-0.35-0.157-0.35-0.35V18.97c0-0.193,0.156-0.35,0.35-0.35s0.35,0.157,0.35,0.35    v1.272C16.428,20.436,16.271,20.592,16.078,20.592z"/>
	</g>
	<g>
		<path fill="#010101" d="M17.184,15.22c-1.552,0-2.814-1.273-2.814-2.838c0-0.732,0.3-1.422,0.85-1.961V5.313    c0-0.881,0.858-1.905,1.965-1.905c1.09,0,1.936,1.024,1.936,1.905v5.108c0.55,0.539,0.85,1.229,0.85,1.961    C19.969,13.947,18.72,15.22,17.184,15.22z M17.184,4.108c-0.682,0-1.266,0.662-1.266,1.205v5.26c0,0.1-0.042,0.195-0.117,0.262    c-0.334,0.296-0.732,0.805-0.732,1.548c0,1.179,0.949,2.138,2.115,2.138c1.15,0,2.086-0.959,2.086-2.138    c0-0.743-0.398-1.251-0.732-1.548c-0.075-0.066-0.117-0.162-0.117-0.262v-5.26C18.42,4.77,17.85,4.108,17.184,4.108z"/>
	</g>
	<g>
		<path fill="#010101" d="M17.127,11.855c-0.193,0-0.35-0.157-0.35-0.35V8.027c0-0.193,0.156-0.35,0.35-0.35s0.35,0.157,0.35,0.35    v3.478C17.477,11.698,17.32,11.855,17.127,11.855z"/>
	</g>
	<g>
		<path fill="#010101" d="M17.154,13.637c-0.677,0-1.227-0.55-1.227-1.227s0.55-1.227,1.227-1.227c0.678,0,1.229,0.55,1.229,1.227    S17.832,13.637,17.154,13.637z M17.154,11.883c-0.285,0-0.527,0.241-0.527,0.527s0.242,0.527,0.527,0.527    c0.287,0,0.529-0.241,0.529-0.527S17.441,11.883,17.154,11.883z"/>
	</g>
	<g>
		<path fill="#010101" d="M20.496,9.848h-1.699c-0.193,0-0.35-0.157-0.35-0.35s0.156-0.35,0.35-0.35h1.699    c0.193,0,0.35,0.157,0.35,0.35S20.689,9.848,20.496,9.848z"/>
	</g>
	<g>
		<path fill="#010101" d="M20.496,8.264h-1.699c-0.193,0-0.35-0.157-0.35-0.35s0.156-0.35,0.35-0.35h1.699    c0.193,0,0.35,0.157,0.35,0.35S20.689,8.264,20.496,8.264z"/>
	</g>
	<g>
		<path fill="#010101" d="M20.496,6.596h-1.699c-0.193,0-0.35-0.157-0.35-0.35s0.156-0.35,0.35-0.35h1.699    c0.193,0,0.35,0.157,0.35,0.35S20.689,6.596,20.496,6.596z"/>
	</g>
</g>

	
	
	<metadata>
		<rdf:RDF xmlns:rdf="http://www.w3.org/1999/02/22-rdf-syntax-ns#" xmlns:rdfs="http://www.w3.org/2000/01/rdf-schema#" xmlns:dc="http://purl.org/dc/elements/1.1/">
			<rdf:Description about="https://iconscout.com/legal#licenses" dc:title="Weather, Cloud, Sun, Temprature, Forecast, Run, Cloudy" dc:description="Weather, Cloud, Sun, Temprature, Forecast, Run, Cloudy" dc:publisher="Iconscout" dc:date="2016-12-14" dc:format="image/svg+xml" dc:language="en">
				<dc:creator>
					<rdf:Bag>
						<rdf:li>Chamestudio</rdf:li>
					</rdf:Bag>
				</dc:creator>
			</rdf:Description>
		</rdf:RDF>
    </metadata></svg>
