<?xml version="1.0" encoding="utf-8"?>
<!DOCTYPE svg PUBLIC "-//W3C//DTD SVG 1.0//EN" "http://www.w3.org/TR/2001/REC-SVG-20010904/DTD/svg10.dtd">
<svg xmlns="http://www.w3.org/2000/svg" xmlns:xlink="http://www.w3.org/1999/xlink" version="1.0" id="Layer_1" x="0px" y="0px" width="24px" height="24px" viewBox="0 0 24 24" enable-background="new 0 0 24 24" xml:space="preserve">
<g>
	<g>
		<path fill="#010101" d="M11.787,13.834c-0.193,0-0.35-0.157-0.35-0.35s0.157-0.35,0.35-0.35h4.191    c1.291-0.049,2.312-1.137,2.312-2.477c0-1.366-1.101-2.478-2.454-2.478c-0.157,0-0.289,0.021-0.427,0.067    c-0.106,0.036-0.224,0.018-0.315-0.048s-0.146-0.172-0.146-0.284c0-0.118,0.016-0.227,0.033-0.336    c0.011-0.075,0.024-0.149,0.024-0.229c0-2.088-1.669-3.795-3.746-3.861c-0.039,0.017-0.08,0.026-0.124,0.026    c-2.118,0-3.84,1.72-3.84,3.834c0,0.039,0.006,0.073,0.011,0.106c0.009,0.065,0.018,0.13,0.018,0.204    c0,0.102-0.044,0.198-0.121,0.265C7.126,7.99,7.021,8.019,6.924,8.006c-0.21-0.03-0.356-0.052-0.545-0.052    c-1.422,0-2.624,1.186-2.624,2.59c0,1.359,1.042,2.461,2.423,2.563c0.04,0.003,0.078,0.013,0.112,0.027h2.949    c0.193,0,0.35,0.157,0.35,0.35s-0.157,0.35-0.35,0.35H6.181c-0.053,0-0.105-0.014-0.153-0.038    c-1.675-0.174-2.972-1.584-2.972-3.252c0-1.784,1.522-3.291,3.324-3.291c0.078,0,0.149,0.003,0.217,0.008    c0.046-2.416,1.993-4.376,4.407-4.445c0.041-0.019,0.086-0.03,0.133-0.03c2.52,0,4.57,2.047,4.57,4.563    c0,0.046-0.002,0.091-0.006,0.135c0.045-0.003,0.091-0.004,0.138-0.004c1.739,0,3.154,1.426,3.154,3.178    c0,1.718-1.317,3.113-2.999,3.177L11.787,13.834z"/>
	</g>
	<g>
		<path fill="#010101" d="M18.726,19.49c-0.977,0-1.849-0.663-2.121-1.611c-0.053-0.186,0.054-0.379,0.24-0.433    c0.185-0.056,0.379,0.054,0.433,0.24c0.186,0.65,0.781,1.104,1.448,1.104c0.838,0,1.519-0.667,1.519-1.488    s-0.681-1.488-1.519-1.488h-5.891c-0.193,0-0.35-0.157-0.35-0.35s0.157-0.35,0.35-0.35h5.891c1.224,0,2.219,0.981,2.219,2.188    S19.949,19.49,18.726,19.49z"/>
	</g>
	<g>
		<path fill="#010101" d="M13.741,21.214c-0.993,0-1.845-0.647-2.121-1.611c-0.053-0.186,0.054-0.379,0.24-0.433    c0.185-0.055,0.379,0.054,0.433,0.24c0.189,0.66,0.771,1.104,1.448,1.104c0.822,0,1.491-0.667,1.491-1.488    s-0.668-1.488-1.491-1.488h-2.039c-0.193,0-0.35-0.157-0.35-0.35s0.157-0.35,0.35-0.35h2.039c1.208,0,2.191,0.981,2.191,2.188    S14.949,21.214,13.741,21.214z"/>
	</g>
	<g>
		<path fill="#010101" d="M5.076,16.973c-0.09,0-0.179-0.034-0.248-0.103c-0.137-0.137-0.137-0.358,0-0.495l1.161-1.159    c0.136-0.137,0.358-0.137,0.495,0c0.137,0.137,0.137,0.358,0,0.495l-1.161,1.159C5.255,16.939,5.166,16.973,5.076,16.973z"/>
	</g>
	<g>
		<path fill="#010101" d="M4.198,19.857c-0.09,0-0.179-0.034-0.248-0.103c-0.137-0.137-0.137-0.358,0-0.495L5.112,18.1    c0.136-0.137,0.358-0.137,0.495,0c0.137,0.137,0.137,0.358,0,0.495l-1.161,1.159C4.377,19.823,4.288,19.857,4.198,19.857z"/>
	</g>
	<g>
		<path fill="#010101" d="M6.351,19.857c-0.09,0-0.179-0.034-0.248-0.103c-0.137-0.137-0.137-0.358,0-0.495L7.265,18.1    c0.136-0.137,0.358-0.137,0.495,0c0.137,0.137,0.137,0.358,0,0.495l-1.161,1.159C6.53,19.823,6.44,19.857,6.351,19.857z"/>
	</g>
	<g>
		<path fill="#010101" d="M9.579,20.479c-0.046,0-0.092-0.009-0.136-0.028c-0.153-0.064-0.24-0.229-0.207-0.392l0.707-3.481H8.446    c-0.11,0-0.213-0.052-0.279-0.139c-0.066-0.088-0.087-0.201-0.057-0.307l1.218-4.27c0.042-0.15,0.18-0.254,0.336-0.254h3.058    c0.13,0,0.25,0.072,0.31,0.188c0.061,0.115,0.052,0.254-0.022,0.362l-1.403,2.022h1.795c0.13,0,0.249,0.072,0.31,0.187    s0.053,0.254-0.021,0.361l-3.822,5.599C9.801,20.424,9.692,20.479,9.579,20.479z M8.91,15.877h1.461    c0.105,0,0.205,0.047,0.271,0.128c0.066,0.082,0.093,0.188,0.072,0.292l-0.447,2.204l2.472-3.621h-1.801    c-0.13,0-0.25-0.072-0.31-0.188c-0.061-0.115-0.052-0.254,0.022-0.362l1.403-2.022H9.928L8.91,15.877z"/>
	</g>
</g>

	
	
	<metadata>
		<rdf:RDF xmlns:rdf="http://www.w3.org/1999/02/22-rdf-syntax-ns#" xmlns:rdfs="http://www.w3.org/2000/01/rdf-schema#" xmlns:dc="http://purl.org/dc/elements/1.1/">
			<rdf:Description about="https://iconscout.com/legal#licenses" dc:title="Weather, Thunder, Forecast, Lightningwind, Cloudy, Lightning" dc:description="Weather, Thunder, Forecast, Lightningwind, Cloudy, Lightning" dc:publisher="Iconscout" dc:date="2016-12-14" dc:format="image/svg+xml" dc:language="en">
				<dc:creator>
					<rdf:Bag>
						<rdf:li>Chamestudio</rdf:li>
					</rdf:Bag>
				</dc:creator>
			</rdf:Description>
		</rdf:RDF>
    </metadata></svg>
