<?xml version="1.0" encoding="utf-8"?>
<!DOCTYPE svg PUBLIC "-//W3C//DTD SVG 1.0//EN" "http://www.w3.org/TR/2001/REC-SVG-20010904/DTD/svg10.dtd">
<svg xmlns="http://www.w3.org/2000/svg" xmlns:xlink="http://www.w3.org/1999/xlink" version="1.0" id="Layer_1" x="0px" y="0px" width="24px" height="24px" viewBox="0 0 24 24" enable-background="new 0 0 24 24" xml:space="preserve">
<g>
	<g>
		<path fill="#010101" d="M16.956,13.283H7.158c-0.053,0-0.105-0.014-0.153-0.038c-1.675-0.174-2.972-1.583-2.972-3.252    c0-1.814,1.491-3.291,3.324-3.291c0.075,0,0.146,0,0.217,0.002c0.05-2.474,2.067-4.47,4.54-4.47c2.52,0,4.57,2.047,4.57,4.563    c0,0.046-0.002,0.091-0.006,0.134c0.044-0.002,0.09-0.004,0.138-0.004c1.738,0,3.153,1.426,3.153,3.178    c0,1.686-1.314,3.081-2.991,3.177C16.969,13.283,16.963,13.283,16.956,13.283z M7.268,12.583h9.678    c1.302-0.08,2.321-1.166,2.321-2.478c0-1.366-1.1-2.478-2.453-2.478c-0.177,0-0.329,0.026-0.48,0.052    c-0.101,0.018-0.205-0.012-0.284-0.078s-0.124-0.164-0.124-0.267c0-0.1,0.015-0.2,0.031-0.303    c0.012-0.074,0.025-0.151,0.025-0.234c0-2.13-1.736-3.863-3.87-3.863c-2.118,0-3.84,1.733-3.84,3.863    c0,0.039,0.006,0.072,0.011,0.106c0.009,0.065,0.018,0.13,0.018,0.205c0,0.11-0.052,0.213-0.139,0.279    C8.075,7.454,7.961,7.476,7.855,7.445C7.704,7.402,7.566,7.402,7.356,7.402c-1.447,0-2.624,1.162-2.624,2.591    c0,1.359,1.042,2.461,2.423,2.563C7.195,12.559,7.233,12.568,7.268,12.583z"/>
	</g>
	<g>
		<path fill="#010101" d="M7.413,20.042c-1.208,0-2.191-0.982-2.191-2.188s0.983-2.188,2.191-2.188h8.835    c0.193,0,0.35,0.157,0.35,0.35s-0.157,0.35-0.35,0.35H7.413c-0.822,0-1.491,0.667-1.491,1.488c0,0.821,0.668,1.488,1.491,1.488    c0.676,0,1.258-0.443,1.447-1.104c0.053-0.185,0.248-0.293,0.433-0.24c0.186,0.053,0.293,0.247,0.24,0.433    C9.257,19.394,8.405,20.042,7.413,20.042z"/>
	</g>
	<g>
		<path fill="#010101" d="M16.305,14.838H7.47c-0.193,0-0.35-0.157-0.35-0.35s0.157-0.35,0.35-0.35h8.835    c0.193,0,0.35,0.157,0.35,0.35S16.498,14.838,16.305,14.838z"/>
	</g>
	<g>
		<path fill="#010101" d="M12.396,21.766c-1.208,0-2.191-0.981-2.191-2.188c0-1.222,0.983-2.216,2.191-2.216h3.767    c0.193,0,0.35,0.157,0.35,0.35s-0.157,0.35-0.35,0.35h-3.767c-0.822,0-1.491,0.68-1.491,1.516c0,0.82,0.668,1.488,1.491,1.488    c0.689,0,1.284-0.449,1.445-1.092c0.046-0.188,0.239-0.305,0.424-0.254c0.188,0.047,0.301,0.237,0.254,0.424    C14.281,21.099,13.408,21.766,12.396,21.766z"/>
	</g>
</g>

	
	
	<metadata>
		<rdf:RDF xmlns:rdf="http://www.w3.org/1999/02/22-rdf-syntax-ns#" xmlns:rdfs="http://www.w3.org/2000/01/rdf-schema#" xmlns:dc="http://purl.org/dc/elements/1.1/">
			<rdf:Description about="https://iconscout.com/legal#licenses" dc:title="Weather, Thunder, Forecast, Cloud, Cloudy, Storm, Dark" dc:description="Weather, Thunder, Forecast, Cloud, Cloudy, Storm, Dark" dc:publisher="Iconscout" dc:date="2016-12-14" dc:format="image/svg+xml" dc:language="en">
				<dc:creator>
					<rdf:Bag>
						<rdf:li>Chamestudio</rdf:li>
					</rdf:Bag>
				</dc:creator>
			</rdf:Description>
		</rdf:RDF>
    </metadata></svg>
